# Lembah Karsa humanoid mesh — gen_humanoid_obj.py
o part_0
v 0.0000 0.0000 0.0000
v 0.0000 0.0000 0.0000
v 0.0000 0.0000 0.0000
v 0.0000 0.0000 0.0000
v 0.0000 0.0000 0.0000
v 0.0000 0.0000 0.0000
v 0.0000 0.0000 0.0000
v -0.0000 0.0000 0.0000
v -0.0000 0.0000 0.0000
v -0.0000 0.0000 0.0000
v -0.0000 0.0000 0.0000
v -0.0000 0.0000 0.0000
v -0.0000 0.0000 0.0000
v -0.0000 0.0000 -0.0000
v -0.0000 0.0000 -0.0000
v -0.0000 0.0000 -0.0000
v -0.0000 0.0000 -0.0000
v -0.0000 0.0000 -0.0000
v -0.0000 0.0000 -0.0000
v 0.0000 0.0000 -0.0000
v 0.0000 0.0000 -0.0000
v 0.0000 0.0000 -0.0000
v 0.0000 0.0000 -0.0000
v 0.0000 0.0000 -0.0000
v 0.0000 0.0000 -0.0000
v 0.1800 0.0500 0.0000
v 0.1739 0.0500 0.0466
v 0.1559 0.0500 0.0900
v 0.1273 0.0500 0.1273
v 0.0900 0.0500 0.1559
v 0.0466 0.0500 0.1739
v 0.0000 0.0500 0.1800
v -0.0466 0.0500 0.1739
v -0.0900 0.0500 0.1559
v -0.1273 0.0500 0.1273
v -0.1559 0.0500 0.0900
v -0.1739 0.0500 0.0466
v -0.1800 0.0500 0.0000
v -0.1739 0.0500 -0.0466
v -0.1559 0.0500 -0.0900
v -0.1273 0.0500 -0.1273
v -0.0900 0.0500 -0.1559
v -0.0466 0.0500 -0.1739
v -0.0000 0.0500 -0.1800
v 0.0466 0.0500 -0.1739
v 0.0900 0.0500 -0.1559
v 0.1273 0.0500 -0.1273
v 0.1559 0.0500 -0.0900
v 0.1739 0.0500 -0.0466
v 0.1800 0.0500 -0.0000
v 0.1600 0.1000 0.0000
v 0.1545 0.1000 0.0414
v 0.1386 0.1000 0.0800
v 0.1131 0.1000 0.1131
v 0.0800 0.1000 0.1386
v 0.0414 0.1000 0.1545
v 0.0000 0.1000 0.1600
v -0.0414 0.1000 0.1545
v -0.0800 0.1000 0.1386
v -0.1131 0.1000 0.1131
v -0.1386 0.1000 0.0800
v -0.1545 0.1000 0.0414
v -0.1600 0.1000 0.0000
v -0.1545 0.1000 -0.0414
v -0.1386 0.1000 -0.0800
v -0.1131 0.1000 -0.1131
v -0.0800 0.1000 -0.1386
v -0.0414 0.1000 -0.1545
v -0.0000 0.1000 -0.1600
v 0.0414 0.1000 -0.1545
v 0.0800 0.1000 -0.1386
v 0.1131 0.1000 -0.1131
v 0.1386 0.1000 -0.0800
v 0.1545 0.1000 -0.0414
v 0.1600 0.1000 -0.0000
v 0.1300 0.4500 0.0000
v 0.1256 0.4500 0.0336
v 0.1126 0.4500 0.0650
v 0.0919 0.4500 0.0919
v 0.0650 0.4500 0.1126
v 0.0336 0.4500 0.1256
v 0.0000 0.4500 0.1300
v -0.0336 0.4500 0.1256
v -0.0650 0.4500 0.1126
v -0.0919 0.4500 0.0919
v -0.1126 0.4500 0.0650
v -0.1256 0.4500 0.0336
v -0.1300 0.4500 0.0000
v -0.1256 0.4500 -0.0336
v -0.1126 0.4500 -0.0650
v -0.0919 0.4500 -0.0919
v -0.0650 0.4500 -0.1126
v -0.0336 0.4500 -0.1256
v -0.0000 0.4500 -0.1300
v 0.0336 0.4500 -0.1256
v 0.0650 0.4500 -0.1126
v 0.0919 0.4500 -0.0919
v 0.1126 0.4500 -0.0650
v 0.1256 0.4500 -0.0336
v 0.1300 0.4500 -0.0000
v 0.1700 0.8000 0.0000
v 0.1642 0.8000 0.0440
v 0.1472 0.8000 0.0850
v 0.1202 0.8000 0.1202
v 0.0850 0.8000 0.1472
v 0.0440 0.8000 0.1642
v 0.0000 0.8000 0.1700
v -0.0440 0.8000 0.1642
v -0.0850 0.8000 0.1472
v -0.1202 0.8000 0.1202
v -0.1472 0.8000 0.0850
v -0.1642 0.8000 0.0440
v -0.1700 0.8000 0.0000
v -0.1642 0.8000 -0.0440
v -0.1472 0.8000 -0.0850
v -0.1202 0.8000 -0.1202
v -0.0850 0.8000 -0.1472
v -0.0440 0.8000 -0.1642
v -0.0000 0.8000 -0.1700
v 0.0440 0.8000 -0.1642
v 0.0850 0.8000 -0.1472
v 0.1202 0.8000 -0.1202
v 0.1472 0.8000 -0.0850
v 0.1642 0.8000 -0.0440
v 0.1700 0.8000 -0.0000
v 0.2000 1.2000 0.0000
v 0.1932 1.2000 0.0518
v 0.1732 1.2000 0.1000
v 0.1414 1.2000 0.1414
v 0.1000 1.2000 0.1732
v 0.0518 1.2000 0.1932
v 0.0000 1.2000 0.2000
v -0.0518 1.2000 0.1932
v -0.1000 1.2000 0.1732
v -0.1414 1.2000 0.1414
v -0.1732 1.2000 0.1000
v -0.1932 1.2000 0.0518
v -0.2000 1.2000 0.0000
v -0.1932 1.2000 -0.0518
v -0.1732 1.2000 -0.1000
v -0.1414 1.2000 -0.1414
v -0.1000 1.2000 -0.1732
v -0.0518 1.2000 -0.1932
v -0.0000 1.2000 -0.2000
v 0.0518 1.2000 -0.1932
v 0.1000 1.2000 -0.1732
v 0.1414 1.2000 -0.1414
v 0.1732 1.2000 -0.1000
v 0.1932 1.2000 -0.0518
v 0.2000 1.2000 -0.0000
v 0.2400 1.5000 0.0000
v 0.2318 1.5000 0.0621
v 0.2078 1.5000 0.1200
v 0.1697 1.5000 0.1697
v 0.1200 1.5000 0.2078
v 0.0621 1.5000 0.2318
v 0.0000 1.5000 0.2400
v -0.0621 1.5000 0.2318
v -0.1200 1.5000 0.2078
v -0.1697 1.5000 0.1697
v -0.2078 1.5000 0.1200
v -0.2318 1.5000 0.0621
v -0.2400 1.5000 0.0000
v -0.2318 1.5000 -0.0621
v -0.2078 1.5000 -0.1200
v -0.1697 1.5000 -0.1697
v -0.1200 1.5000 -0.2078
v -0.0621 1.5000 -0.2318
v -0.0000 1.5000 -0.2400
v 0.0621 1.5000 -0.2318
v 0.1200 1.5000 -0.2078
v 0.1697 1.5000 -0.1697
v 0.2078 1.5000 -0.1200
v 0.2318 1.5000 -0.0621
v 0.2400 1.5000 -0.0000
v 0.2600 1.6000 0.0000
v 0.2511 1.6000 0.0673
v 0.2252 1.6000 0.1300
v 0.1838 1.6000 0.1838
v 0.1300 1.6000 0.2252
v 0.0673 1.6000 0.2511
v 0.0000 1.6000 0.2600
v -0.0673 1.6000 0.2511
v -0.1300 1.6000 0.2252
v -0.1838 1.6000 0.1838
v -0.2252 1.6000 0.1300
v -0.2511 1.6000 0.0673
v -0.2600 1.6000 0.0000
v -0.2511 1.6000 -0.0673
v -0.2252 1.6000 -0.1300
v -0.1838 1.6000 -0.1838
v -0.1300 1.6000 -0.2252
v -0.0673 1.6000 -0.2511
v -0.0000 1.6000 -0.2600
v 0.0673 1.6000 -0.2511
v 0.1300 1.6000 -0.2252
v 0.1838 1.6000 -0.1838
v 0.2252 1.6000 -0.1300
v 0.2511 1.6000 -0.0673
v 0.2600 1.6000 -0.0000
v 0.2400 1.7500 0.0000
v 0.2318 1.7500 0.0621
v 0.2078 1.7500 0.1200
v 0.1697 1.7500 0.1697
v 0.1200 1.7500 0.2078
v 0.0621 1.7500 0.2318
v 0.0000 1.7500 0.2400
v -0.0621 1.7500 0.2318
v -0.1200 1.7500 0.2078
v -0.1697 1.7500 0.1697
v -0.2078 1.7500 0.1200
v -0.2318 1.7500 0.0621
v -0.2400 1.7500 0.0000
v -0.2318 1.7500 -0.0621
v -0.2078 1.7500 -0.1200
v -0.1697 1.7500 -0.1697
v -0.1200 1.7500 -0.2078
v -0.0621 1.7500 -0.2318
v -0.0000 1.7500 -0.2400
v 0.0621 1.7500 -0.2318
v 0.1200 1.7500 -0.2078
v 0.1697 1.7500 -0.1697
v 0.2078 1.7500 -0.1200
v 0.2318 1.7500 -0.0621
v 0.2400 1.7500 -0.0000
v 0.3000 1.9500 0.0000
v 0.2898 1.9500 0.0776
v 0.2598 1.9500 0.1500
v 0.2121 1.9500 0.2121
v 0.1500 1.9500 0.2598
v 0.0776 1.9500 0.2898
v 0.0000 1.9500 0.3000
v -0.0776 1.9500 0.2898
v -0.1500 1.9500 0.2598
v -0.2121 1.9500 0.2121
v -0.2598 1.9500 0.1500
v -0.2898 1.9500 0.0776
v -0.3000 1.9500 0.0000
v -0.2898 1.9500 -0.0776
v -0.2598 1.9500 -0.1500
v -0.2121 1.9500 -0.2121
v -0.1500 1.9500 -0.2598
v -0.0776 1.9500 -0.2898
v -0.0000 1.9500 -0.3000
v 0.0776 1.9500 -0.2898
v 0.1500 1.9500 -0.2598
v 0.2121 1.9500 -0.2121
v 0.2598 1.9500 -0.1500
v 0.2898 1.9500 -0.0776
v 0.3000 1.9500 -0.0000
v 0.3400 2.1000 0.0000
v 0.3284 2.1000 0.0880
v 0.2944 2.1000 0.1700
v 0.2404 2.1000 0.2404
v 0.1700 2.1000 0.2944
v 0.0880 2.1000 0.3284
v 0.0000 2.1000 0.3400
v -0.0880 2.1000 0.3284
v -0.1700 2.1000 0.2944
v -0.2404 2.1000 0.2404
v -0.2944 2.1000 0.1700
v -0.3284 2.1000 0.0880
v -0.3400 2.1000 0.0000
v -0.3284 2.1000 -0.0880
v -0.2944 2.1000 -0.1700
v -0.2404 2.1000 -0.2404
v -0.1700 2.1000 -0.2944
v -0.0880 2.1000 -0.3284
v -0.0000 2.1000 -0.3400
v 0.0880 2.1000 -0.3284
v 0.1700 2.1000 -0.2944
v 0.2404 2.1000 -0.2404
v 0.2944 2.1000 -0.1700
v 0.3284 2.1000 -0.0880
v 0.3400 2.1000 -0.0000
v 0.3200 2.2000 0.0000
v 0.3091 2.2000 0.0828
v 0.2771 2.2000 0.1600
v 0.2263 2.2000 0.2263
v 0.1600 2.2000 0.2771
v 0.0828 2.2000 0.3091
v 0.0000 2.2000 0.3200
v -0.0828 2.2000 0.3091
v -0.1600 2.2000 0.2771
v -0.2263 2.2000 0.2263
v -0.2771 2.2000 0.1600
v -0.3091 2.2000 0.0828
v -0.3200 2.2000 0.0000
v -0.3091 2.2000 -0.0828
v -0.2771 2.2000 -0.1600
v -0.2263 2.2000 -0.2263
v -0.1600 2.2000 -0.2771
v -0.0828 2.2000 -0.3091
v -0.0000 2.2000 -0.3200
v 0.0828 2.2000 -0.3091
v 0.1600 2.2000 -0.2771
v 0.2263 2.2000 -0.2263
v 0.2771 2.2000 -0.1600
v 0.3091 2.2000 -0.0828
v 0.3200 2.2000 -0.0000
v 0.1600 2.2800 0.0000
v 0.1545 2.2800 0.0414
v 0.1386 2.2800 0.0800
v 0.1131 2.2800 0.1131
v 0.0800 2.2800 0.1386
v 0.0414 2.2800 0.1545
v 0.0000 2.2800 0.1600
v -0.0414 2.2800 0.1545
v -0.0800 2.2800 0.1386
v -0.1131 2.2800 0.1131
v -0.1386 2.2800 0.0800
v -0.1545 2.2800 0.0414
v -0.1600 2.2800 0.0000
v -0.1545 2.2800 -0.0414
v -0.1386 2.2800 -0.0800
v -0.1131 2.2800 -0.1131
v -0.0800 2.2800 -0.1386
v -0.0414 2.2800 -0.1545
v -0.0000 2.2800 -0.1600
v 0.0414 2.2800 -0.1545
v 0.0800 2.2800 -0.1386
v 0.1131 2.2800 -0.1131
v 0.1386 2.2800 -0.0800
v 0.1545 2.2800 -0.0414
v 0.1600 2.2800 -0.0000
v 0.1300 2.3600 0.0000
v 0.1256 2.3600 0.0336
v 0.1126 2.3600 0.0650
v 0.0919 2.3600 0.0919
v 0.0650 2.3600 0.1126
v 0.0336 2.3600 0.1256
v 0.0000 2.3600 0.1300
v -0.0336 2.3600 0.1256
v -0.0650 2.3600 0.1126
v -0.0919 2.3600 0.0919
v -0.1126 2.3600 0.0650
v -0.1256 2.3600 0.0336
v -0.1300 2.3600 0.0000
v -0.1256 2.3600 -0.0336
v -0.1126 2.3600 -0.0650
v -0.0919 2.3600 -0.0919
v -0.0650 2.3600 -0.1126
v -0.0336 2.3600 -0.1256
v -0.0000 2.3600 -0.1300
v 0.0336 2.3600 -0.1256
v 0.0650 2.3600 -0.1126
v 0.0919 2.3600 -0.0919
v 0.1126 2.3600 -0.0650
v 0.1256 2.3600 -0.0336
v 0.1300 2.3600 -0.0000
v 0.2200 2.4600 0.0000
v 0.2125 2.4600 0.0569
v 0.1905 2.4600 0.1100
v 0.1556 2.4600 0.1556
v 0.1100 2.4600 0.1905
v 0.0569 2.4600 0.2125
v 0.0000 2.4600 0.2200
v -0.0569 2.4600 0.2125
v -0.1100 2.4600 0.1905
v -0.1556 2.4600 0.1556
v -0.1905 2.4600 0.1100
v -0.2125 2.4600 0.0569
v -0.2200 2.4600 0.0000
v -0.2125 2.4600 -0.0569
v -0.1905 2.4600 -0.1100
v -0.1556 2.4600 -0.1556
v -0.1100 2.4600 -0.1905
v -0.0569 2.4600 -0.2125
v -0.0000 2.4600 -0.2200
v 0.0569 2.4600 -0.2125
v 0.1100 2.4600 -0.1905
v 0.1556 2.4600 -0.1556
v 0.1905 2.4600 -0.1100
v 0.2125 2.4600 -0.0569
v 0.2200 2.4600 -0.0000
v 0.2800 2.6000 0.0000
v 0.2705 2.6000 0.0725
v 0.2425 2.6000 0.1400
v 0.1980 2.6000 0.1980
v 0.1400 2.6000 0.2425
v 0.0725 2.6000 0.2705
v 0.0000 2.6000 0.2800
v -0.0725 2.6000 0.2705
v -0.1400 2.6000 0.2425
v -0.1980 2.6000 0.1980
v -0.2425 2.6000 0.1400
v -0.2705 2.6000 0.0725
v -0.2800 2.6000 0.0000
v -0.2705 2.6000 -0.0725
v -0.2425 2.6000 -0.1400
v -0.1980 2.6000 -0.1980
v -0.1400 2.6000 -0.2425
v -0.0725 2.6000 -0.2705
v -0.0000 2.6000 -0.2800
v 0.0725 2.6000 -0.2705
v 0.1400 2.6000 -0.2425
v 0.1980 2.6000 -0.1980
v 0.2425 2.6000 -0.1400
v 0.2705 2.6000 -0.0725
v 0.2800 2.6000 -0.0000
v 0.2800 2.7400 0.0000
v 0.2705 2.7400 0.0725
v 0.2425 2.7400 0.1400
v 0.1980 2.7400 0.1980
v 0.1400 2.7400 0.2425
v 0.0725 2.7400 0.2705
v 0.0000 2.7400 0.2800
v -0.0725 2.7400 0.2705
v -0.1400 2.7400 0.2425
v -0.1980 2.7400 0.1980
v -0.2425 2.7400 0.1400
v -0.2705 2.7400 0.0725
v -0.2800 2.7400 0.0000
v -0.2705 2.7400 -0.0725
v -0.2425 2.7400 -0.1400
v -0.1980 2.7400 -0.1980
v -0.1400 2.7400 -0.2425
v -0.0725 2.7400 -0.2705
v -0.0000 2.7400 -0.2800
v 0.0725 2.7400 -0.2705
v 0.1400 2.7400 -0.2425
v 0.1980 2.7400 -0.1980
v 0.2425 2.7400 -0.1400
v 0.2705 2.7400 -0.0725
v 0.2800 2.7400 -0.0000
v 0.2400 2.8600 0.0000
v 0.2318 2.8600 0.0621
v 0.2078 2.8600 0.1200
v 0.1697 2.8600 0.1697
v 0.1200 2.8600 0.2078
v 0.0621 2.8600 0.2318
v 0.0000 2.8600 0.2400
v -0.0621 2.8600 0.2318
v -0.1200 2.8600 0.2078
v -0.1697 2.8600 0.1697
v -0.2078 2.8600 0.1200
v -0.2318 2.8600 0.0621
v -0.2400 2.8600 0.0000
v -0.2318 2.8600 -0.0621
v -0.2078 2.8600 -0.1200
v -0.1697 2.8600 -0.1697
v -0.1200 2.8600 -0.2078
v -0.0621 2.8600 -0.2318
v -0.0000 2.8600 -0.2400
v 0.0621 2.8600 -0.2318
v 0.1200 2.8600 -0.2078
v 0.1697 2.8600 -0.1697
v 0.2078 2.8600 -0.1200
v 0.2318 2.8600 -0.0621
v 0.2400 2.8600 -0.0000
v 0.1600 2.9400 0.0000
v 0.1545 2.9400 0.0414
v 0.1386 2.9400 0.0800
v 0.1131 2.9400 0.1131
v 0.0800 2.9400 0.1386
v 0.0414 2.9400 0.1545
v 0.0000 2.9400 0.1600
v -0.0414 2.9400 0.1545
v -0.0800 2.9400 0.1386
v -0.1131 2.9400 0.1131
v -0.1386 2.9400 0.0800
v -0.1545 2.9400 0.0414
v -0.1600 2.9400 0.0000
v -0.1545 2.9400 -0.0414
v -0.1386 2.9400 -0.0800
v -0.1131 2.9400 -0.1131
v -0.0800 2.9400 -0.1386
v -0.0414 2.9400 -0.1545
v -0.0000 2.9400 -0.1600
v 0.0414 2.9400 -0.1545
v 0.0800 2.9400 -0.1386
v 0.1131 2.9400 -0.1131
v 0.1386 2.9400 -0.0800
v 0.1545 2.9400 -0.0414
v 0.1600 2.9400 -0.0000
v 0.0000 3.0000 0.0000
v 0.0000 3.0000 0.0000
v 0.0000 3.0000 0.0000
v 0.0000 3.0000 0.0000
v 0.0000 3.0000 0.0000
v 0.0000 3.0000 0.0000
v 0.0000 3.0000 0.0000
v -0.0000 3.0000 0.0000
v -0.0000 3.0000 0.0000
v -0.0000 3.0000 0.0000
v -0.0000 3.0000 0.0000
v -0.0000 3.0000 0.0000
v -0.0000 3.0000 0.0000
v -0.0000 3.0000 -0.0000
v -0.0000 3.0000 -0.0000
v -0.0000 3.0000 -0.0000
v -0.0000 3.0000 -0.0000
v -0.0000 3.0000 -0.0000
v -0.0000 3.0000 -0.0000
v 0.0000 3.0000 -0.0000
v 0.0000 3.0000 -0.0000
v 0.0000 3.0000 -0.0000
v 0.0000 3.0000 -0.0000
v 0.0000 3.0000 -0.0000
v 0.0000 3.0000 -0.0000
vt 0.0000 0.0000
vt 0.0417 0.0000
vt 0.0833 0.0000
vt 0.1250 0.0000
vt 0.1667 0.0000
vt 0.2083 0.0000
vt 0.2500 0.0000
vt 0.2917 0.0000
vt 0.3333 0.0000
vt 0.3750 0.0000
vt 0.4167 0.0000
vt 0.4583 0.0000
vt 0.5000 0.0000
vt 0.5417 0.0000
vt 0.5833 0.0000
vt 0.6250 0.0000
vt 0.6667 0.0000
vt 0.7083 0.0000
vt 0.7500 0.0000
vt 0.7917 0.0000
vt 0.8333 0.0000
vt 0.8750 0.0000
vt 0.9167 0.0000
vt 0.9583 0.0000
vt 1.0000 0.0000
vt 0.0000 0.0526
vt 0.0417 0.0526
vt 0.0833 0.0526
vt 0.1250 0.0526
vt 0.1667 0.0526
vt 0.2083 0.0526
vt 0.2500 0.0526
vt 0.2917 0.0526
vt 0.3333 0.0526
vt 0.3750 0.0526
vt 0.4167 0.0526
vt 0.4583 0.0526
vt 0.5000 0.0526
vt 0.5417 0.0526
vt 0.5833 0.0526
vt 0.6250 0.0526
vt 0.6667 0.0526
vt 0.7083 0.0526
vt 0.7500 0.0526
vt 0.7917 0.0526
vt 0.8333 0.0526
vt 0.8750 0.0526
vt 0.9167 0.0526
vt 0.9583 0.0526
vt 1.0000 0.0526
vt 0.0000 0.1053
vt 0.0417 0.1053
vt 0.0833 0.1053
vt 0.1250 0.1053
vt 0.1667 0.1053
vt 0.2083 0.1053
vt 0.2500 0.1053
vt 0.2917 0.1053
vt 0.3333 0.1053
vt 0.3750 0.1053
vt 0.4167 0.1053
vt 0.4583 0.1053
vt 0.5000 0.1053
vt 0.5417 0.1053
vt 0.5833 0.1053
vt 0.6250 0.1053
vt 0.6667 0.1053
vt 0.7083 0.1053
vt 0.7500 0.1053
vt 0.7917 0.1053
vt 0.8333 0.1053
vt 0.8750 0.1053
vt 0.9167 0.1053
vt 0.9583 0.1053
vt 1.0000 0.1053
vt 0.0000 0.1579
vt 0.0417 0.1579
vt 0.0833 0.1579
vt 0.1250 0.1579
vt 0.1667 0.1579
vt 0.2083 0.1579
vt 0.2500 0.1579
vt 0.2917 0.1579
vt 0.3333 0.1579
vt 0.3750 0.1579
vt 0.4167 0.1579
vt 0.4583 0.1579
vt 0.5000 0.1579
vt 0.5417 0.1579
vt 0.5833 0.1579
vt 0.6250 0.1579
vt 0.6667 0.1579
vt 0.7083 0.1579
vt 0.7500 0.1579
vt 0.7917 0.1579
vt 0.8333 0.1579
vt 0.8750 0.1579
vt 0.9167 0.1579
vt 0.9583 0.1579
vt 1.0000 0.1579
vt 0.0000 0.2105
vt 0.0417 0.2105
vt 0.0833 0.2105
vt 0.1250 0.2105
vt 0.1667 0.2105
vt 0.2083 0.2105
vt 0.2500 0.2105
vt 0.2917 0.2105
vt 0.3333 0.2105
vt 0.3750 0.2105
vt 0.4167 0.2105
vt 0.4583 0.2105
vt 0.5000 0.2105
vt 0.5417 0.2105
vt 0.5833 0.2105
vt 0.6250 0.2105
vt 0.6667 0.2105
vt 0.7083 0.2105
vt 0.7500 0.2105
vt 0.7917 0.2105
vt 0.8333 0.2105
vt 0.8750 0.2105
vt 0.9167 0.2105
vt 0.9583 0.2105
vt 1.0000 0.2105
vt 0.0000 0.2632
vt 0.0417 0.2632
vt 0.0833 0.2632
vt 0.1250 0.2632
vt 0.1667 0.2632
vt 0.2083 0.2632
vt 0.2500 0.2632
vt 0.2917 0.2632
vt 0.3333 0.2632
vt 0.3750 0.2632
vt 0.4167 0.2632
vt 0.4583 0.2632
vt 0.5000 0.2632
vt 0.5417 0.2632
vt 0.5833 0.2632
vt 0.6250 0.2632
vt 0.6667 0.2632
vt 0.7083 0.2632
vt 0.7500 0.2632
vt 0.7917 0.2632
vt 0.8333 0.2632
vt 0.8750 0.2632
vt 0.9167 0.2632
vt 0.9583 0.2632
vt 1.0000 0.2632
vt 0.0000 0.3158
vt 0.0417 0.3158
vt 0.0833 0.3158
vt 0.1250 0.3158
vt 0.1667 0.3158
vt 0.2083 0.3158
vt 0.2500 0.3158
vt 0.2917 0.3158
vt 0.3333 0.3158
vt 0.3750 0.3158
vt 0.4167 0.3158
vt 0.4583 0.3158
vt 0.5000 0.3158
vt 0.5417 0.3158
vt 0.5833 0.3158
vt 0.6250 0.3158
vt 0.6667 0.3158
vt 0.7083 0.3158
vt 0.7500 0.3158
vt 0.7917 0.3158
vt 0.8333 0.3158
vt 0.8750 0.3158
vt 0.9167 0.3158
vt 0.9583 0.3158
vt 1.0000 0.3158
vt 0.0000 0.3684
vt 0.0417 0.3684
vt 0.0833 0.3684
vt 0.1250 0.3684
vt 0.1667 0.3684
vt 0.2083 0.3684
vt 0.2500 0.3684
vt 0.2917 0.3684
vt 0.3333 0.3684
vt 0.3750 0.3684
vt 0.4167 0.3684
vt 0.4583 0.3684
vt 0.5000 0.3684
vt 0.5417 0.3684
vt 0.5833 0.3684
vt 0.6250 0.3684
vt 0.6667 0.3684
vt 0.7083 0.3684
vt 0.7500 0.3684
vt 0.7917 0.3684
vt 0.8333 0.3684
vt 0.8750 0.3684
vt 0.9167 0.3684
vt 0.9583 0.3684
vt 1.0000 0.3684
vt 0.0000 0.4211
vt 0.0417 0.4211
vt 0.0833 0.4211
vt 0.1250 0.4211
vt 0.1667 0.4211
vt 0.2083 0.4211
vt 0.2500 0.4211
vt 0.2917 0.4211
vt 0.3333 0.4211
vt 0.3750 0.4211
vt 0.4167 0.4211
vt 0.4583 0.4211
vt 0.5000 0.4211
vt 0.5417 0.4211
vt 0.5833 0.4211
vt 0.6250 0.4211
vt 0.6667 0.4211
vt 0.7083 0.4211
vt 0.7500 0.4211
vt 0.7917 0.4211
vt 0.8333 0.4211
vt 0.8750 0.4211
vt 0.9167 0.4211
vt 0.9583 0.4211
vt 1.0000 0.4211
vt 0.0000 0.4737
vt 0.0417 0.4737
vt 0.0833 0.4737
vt 0.1250 0.4737
vt 0.1667 0.4737
vt 0.2083 0.4737
vt 0.2500 0.4737
vt 0.2917 0.4737
vt 0.3333 0.4737
vt 0.3750 0.4737
vt 0.4167 0.4737
vt 0.4583 0.4737
vt 0.5000 0.4737
vt 0.5417 0.4737
vt 0.5833 0.4737
vt 0.6250 0.4737
vt 0.6667 0.4737
vt 0.7083 0.4737
vt 0.7500 0.4737
vt 0.7917 0.4737
vt 0.8333 0.4737
vt 0.8750 0.4737
vt 0.9167 0.4737
vt 0.9583 0.4737
vt 1.0000 0.4737
vt 0.0000 0.5263
vt 0.0417 0.5263
vt 0.0833 0.5263
vt 0.1250 0.5263
vt 0.1667 0.5263
vt 0.2083 0.5263
vt 0.2500 0.5263
vt 0.2917 0.5263
vt 0.3333 0.5263
vt 0.3750 0.5263
vt 0.4167 0.5263
vt 0.4583 0.5263
vt 0.5000 0.5263
vt 0.5417 0.5263
vt 0.5833 0.5263
vt 0.6250 0.5263
vt 0.6667 0.5263
vt 0.7083 0.5263
vt 0.7500 0.5263
vt 0.7917 0.5263
vt 0.8333 0.5263
vt 0.8750 0.5263
vt 0.9167 0.5263
vt 0.9583 0.5263
vt 1.0000 0.5263
vt 0.0000 0.5789
vt 0.0417 0.5789
vt 0.0833 0.5789
vt 0.1250 0.5789
vt 0.1667 0.5789
vt 0.2083 0.5789
vt 0.2500 0.5789
vt 0.2917 0.5789
vt 0.3333 0.5789
vt 0.3750 0.5789
vt 0.4167 0.5789
vt 0.4583 0.5789
vt 0.5000 0.5789
vt 0.5417 0.5789
vt 0.5833 0.5789
vt 0.6250 0.5789
vt 0.6667 0.5789
vt 0.7083 0.5789
vt 0.7500 0.5789
vt 0.7917 0.5789
vt 0.8333 0.5789
vt 0.8750 0.5789
vt 0.9167 0.5789
vt 0.9583 0.5789
vt 1.0000 0.5789
vt 0.0000 0.6316
vt 0.0417 0.6316
vt 0.0833 0.6316
vt 0.1250 0.6316
vt 0.1667 0.6316
vt 0.2083 0.6316
vt 0.2500 0.6316
vt 0.2917 0.6316
vt 0.3333 0.6316
vt 0.3750 0.6316
vt 0.4167 0.6316
vt 0.4583 0.6316
vt 0.5000 0.6316
vt 0.5417 0.6316
vt 0.5833 0.6316
vt 0.6250 0.6316
vt 0.6667 0.6316
vt 0.7083 0.6316
vt 0.7500 0.6316
vt 0.7917 0.6316
vt 0.8333 0.6316
vt 0.8750 0.6316
vt 0.9167 0.6316
vt 0.9583 0.6316
vt 1.0000 0.6316
vt 0.0000 0.6842
vt 0.0417 0.6842
vt 0.0833 0.6842
vt 0.1250 0.6842
vt 0.1667 0.6842
vt 0.2083 0.6842
vt 0.2500 0.6842
vt 0.2917 0.6842
vt 0.3333 0.6842
vt 0.3750 0.6842
vt 0.4167 0.6842
vt 0.4583 0.6842
vt 0.5000 0.6842
vt 0.5417 0.6842
vt 0.5833 0.6842
vt 0.6250 0.6842
vt 0.6667 0.6842
vt 0.7083 0.6842
vt 0.7500 0.6842
vt 0.7917 0.6842
vt 0.8333 0.6842
vt 0.8750 0.6842
vt 0.9167 0.6842
vt 0.9583 0.6842
vt 1.0000 0.6842
vt 0.0000 0.7368
vt 0.0417 0.7368
vt 0.0833 0.7368
vt 0.1250 0.7368
vt 0.1667 0.7368
vt 0.2083 0.7368
vt 0.2500 0.7368
vt 0.2917 0.7368
vt 0.3333 0.7368
vt 0.3750 0.7368
vt 0.4167 0.7368
vt 0.4583 0.7368
vt 0.5000 0.7368
vt 0.5417 0.7368
vt 0.5833 0.7368
vt 0.6250 0.7368
vt 0.6667 0.7368
vt 0.7083 0.7368
vt 0.7500 0.7368
vt 0.7917 0.7368
vt 0.8333 0.7368
vt 0.8750 0.7368
vt 0.9167 0.7368
vt 0.9583 0.7368
vt 1.0000 0.7368
vt 0.0000 0.7895
vt 0.0417 0.7895
vt 0.0833 0.7895
vt 0.1250 0.7895
vt 0.1667 0.7895
vt 0.2083 0.7895
vt 0.2500 0.7895
vt 0.2917 0.7895
vt 0.3333 0.7895
vt 0.3750 0.7895
vt 0.4167 0.7895
vt 0.4583 0.7895
vt 0.5000 0.7895
vt 0.5417 0.7895
vt 0.5833 0.7895
vt 0.6250 0.7895
vt 0.6667 0.7895
vt 0.7083 0.7895
vt 0.7500 0.7895
vt 0.7917 0.7895
vt 0.8333 0.7895
vt 0.8750 0.7895
vt 0.9167 0.7895
vt 0.9583 0.7895
vt 1.0000 0.7895
vt 0.0000 0.8421
vt 0.0417 0.8421
vt 0.0833 0.8421
vt 0.1250 0.8421
vt 0.1667 0.8421
vt 0.2083 0.8421
vt 0.2500 0.8421
vt 0.2917 0.8421
vt 0.3333 0.8421
vt 0.3750 0.8421
vt 0.4167 0.8421
vt 0.4583 0.8421
vt 0.5000 0.8421
vt 0.5417 0.8421
vt 0.5833 0.8421
vt 0.6250 0.8421
vt 0.6667 0.8421
vt 0.7083 0.8421
vt 0.7500 0.8421
vt 0.7917 0.8421
vt 0.8333 0.8421
vt 0.8750 0.8421
vt 0.9167 0.8421
vt 0.9583 0.8421
vt 1.0000 0.8421
vt 0.0000 0.8947
vt 0.0417 0.8947
vt 0.0833 0.8947
vt 0.1250 0.8947
vt 0.1667 0.8947
vt 0.2083 0.8947
vt 0.2500 0.8947
vt 0.2917 0.8947
vt 0.3333 0.8947
vt 0.3750 0.8947
vt 0.4167 0.8947
vt 0.4583 0.8947
vt 0.5000 0.8947
vt 0.5417 0.8947
vt 0.5833 0.8947
vt 0.6250 0.8947
vt 0.6667 0.8947
vt 0.7083 0.8947
vt 0.7500 0.8947
vt 0.7917 0.8947
vt 0.8333 0.8947
vt 0.8750 0.8947
vt 0.9167 0.8947
vt 0.9583 0.8947
vt 1.0000 0.8947
vt 0.0000 0.9474
vt 0.0417 0.9474
vt 0.0833 0.9474
vt 0.1250 0.9474
vt 0.1667 0.9474
vt 0.2083 0.9474
vt 0.2500 0.9474
vt 0.2917 0.9474
vt 0.3333 0.9474
vt 0.3750 0.9474
vt 0.4167 0.9474
vt 0.4583 0.9474
vt 0.5000 0.9474
vt 0.5417 0.9474
vt 0.5833 0.9474
vt 0.6250 0.9474
vt 0.6667 0.9474
vt 0.7083 0.9474
vt 0.7500 0.9474
vt 0.7917 0.9474
vt 0.8333 0.9474
vt 0.8750 0.9474
vt 0.9167 0.9474
vt 0.9583 0.9474
vt 1.0000 0.9474
vt 0.0000 1.0000
vt 0.0417 1.0000
vt 0.0833 1.0000
vt 0.1250 1.0000
vt 0.1667 1.0000
vt 0.2083 1.0000
vt 0.2500 1.0000
vt 0.2917 1.0000
vt 0.3333 1.0000
vt 0.3750 1.0000
vt 0.4167 1.0000
vt 0.4583 1.0000
vt 0.5000 1.0000
vt 0.5417 1.0000
vt 0.5833 1.0000
vt 0.6250 1.0000
vt 0.6667 1.0000
vt 0.7083 1.0000
vt 0.7500 1.0000
vt 0.7917 1.0000
vt 0.8333 1.0000
vt 0.8750 1.0000
vt 0.9167 1.0000
vt 0.9583 1.0000
vt 1.0000 1.0000
vn 0.0000 -1.0000 0.0000
vn 0.0000 -1.0000 0.0000
vn 0.0000 -1.0000 0.0000
vn 0.0000 -1.0000 0.0000
vn 0.0000 -1.0000 0.0000
vn 0.0000 -1.0000 0.0000
vn 0.0000 -1.0000 0.0000
vn 0.0000 -1.0000 0.0000
vn 0.0000 -1.0000 0.0000
vn 0.0000 -1.0000 0.0000
vn 0.0000 -1.0000 0.0000
vn 0.0000 -1.0000 0.0000
vn 0.0000 -1.0000 0.0000
vn 0.0000 -1.0000 0.0000
vn 0.0000 -1.0000 0.0000
vn 0.0000 -1.0000 0.0000
vn 0.0000 -1.0000 0.0000
vn 0.0000 -1.0000 0.0000
vn 0.0000 -1.0000 0.0000
vn 0.0000 -1.0000 0.0000
vn 0.0000 -1.0000 0.0000
vn 0.0000 -1.0000 0.0000
vn 0.0000 -1.0000 0.0000
vn 0.0000 -1.0000 0.0000
vn 0.0000 -1.0000 0.0000
vn 1.0000 0.0000 0.0000
vn 0.9659 0.0000 0.2588
vn 0.8660 0.0000 0.5000
vn 0.7071 0.0000 0.7071
vn 0.5000 0.0000 0.8660
vn 0.2588 0.0000 0.9659
vn 0.0000 0.0000 1.0000
vn -0.2588 0.0000 0.9659
vn -0.5000 0.0000 0.8660
vn -0.7071 0.0000 0.7071
vn -0.8660 0.0000 0.5000
vn -0.9659 0.0000 0.2588
vn -1.0000 0.0000 0.0000
vn -0.9659 0.0000 -0.2588
vn -0.8660 0.0000 -0.5000
vn -0.7071 0.0000 -0.7071
vn -0.5000 0.0000 -0.8660
vn -0.2588 0.0000 -0.9659
vn -0.0000 0.0000 -1.0000
vn 0.2588 0.0000 -0.9659
vn 0.5000 0.0000 -0.8660
vn 0.7071 0.0000 -0.7071
vn 0.8660 0.0000 -0.5000
vn 0.9659 0.0000 -0.2588
vn 1.0000 0.0000 -0.0000
vn 1.0000 0.0000 0.0000
vn 0.9659 0.0000 0.2588
vn 0.8660 0.0000 0.5000
vn 0.7071 0.0000 0.7071
vn 0.5000 0.0000 0.8660
vn 0.2588 0.0000 0.9659
vn 0.0000 0.0000 1.0000
vn -0.2588 0.0000 0.9659
vn -0.5000 0.0000 0.8660
vn -0.7071 0.0000 0.7071
vn -0.8660 0.0000 0.5000
vn -0.9659 0.0000 0.2588
vn -1.0000 0.0000 0.0000
vn -0.9659 0.0000 -0.2588
vn -0.8660 0.0000 -0.5000
vn -0.7071 0.0000 -0.7071
vn -0.5000 0.0000 -0.8660
vn -0.2588 0.0000 -0.9659
vn -0.0000 0.0000 -1.0000
vn 0.2588 0.0000 -0.9659
vn 0.5000 0.0000 -0.8660
vn 0.7071 0.0000 -0.7071
vn 0.8660 0.0000 -0.5000
vn 0.9659 0.0000 -0.2588
vn 1.0000 0.0000 -0.0000
vn 1.0000 0.0000 0.0000
vn 0.9659 0.0000 0.2588
vn 0.8660 0.0000 0.5000
vn 0.7071 0.0000 0.7071
vn 0.5000 0.0000 0.8660
vn 0.2588 0.0000 0.9659
vn 0.0000 0.0000 1.0000
vn -0.2588 0.0000 0.9659
vn -0.5000 0.0000 0.8660
vn -0.7071 0.0000 0.7071
vn -0.8660 0.0000 0.5000
vn -0.9659 0.0000 0.2588
vn -1.0000 0.0000 0.0000
vn -0.9659 0.0000 -0.2588
vn -0.8660 0.0000 -0.5000
vn -0.7071 0.0000 -0.7071
vn -0.5000 0.0000 -0.8660
vn -0.2588 0.0000 -0.9659
vn -0.0000 0.0000 -1.0000
vn 0.2588 0.0000 -0.9659
vn 0.5000 0.0000 -0.8660
vn 0.7071 0.0000 -0.7071
vn 0.8660 0.0000 -0.5000
vn 0.9659 0.0000 -0.2588
vn 1.0000 0.0000 -0.0000
vn 1.0000 0.0000 0.0000
vn 0.9659 0.0000 0.2588
vn 0.8660 0.0000 0.5000
vn 0.7071 0.0000 0.7071
vn 0.5000 0.0000 0.8660
vn 0.2588 0.0000 0.9659
vn 0.0000 0.0000 1.0000
vn -0.2588 0.0000 0.9659
vn -0.5000 0.0000 0.8660
vn -0.7071 0.0000 0.7071
vn -0.8660 0.0000 0.5000
vn -0.9659 0.0000 0.2588
vn -1.0000 0.0000 0.0000
vn -0.9659 0.0000 -0.2588
vn -0.8660 0.0000 -0.5000
vn -0.7071 0.0000 -0.7071
vn -0.5000 0.0000 -0.8660
vn -0.2588 0.0000 -0.9659
vn -0.0000 0.0000 -1.0000
vn 0.2588 0.0000 -0.9659
vn 0.5000 0.0000 -0.8660
vn 0.7071 0.0000 -0.7071
vn 0.8660 0.0000 -0.5000
vn 0.9659 0.0000 -0.2588
vn 1.0000 0.0000 -0.0000
vn 1.0000 0.0000 0.0000
vn 0.9659 0.0000 0.2588
vn 0.8660 0.0000 0.5000
vn 0.7071 0.0000 0.7071
vn 0.5000 0.0000 0.8660
vn 0.2588 0.0000 0.9659
vn 0.0000 0.0000 1.0000
vn -0.2588 0.0000 0.9659
vn -0.5000 0.0000 0.8660
vn -0.7071 0.0000 0.7071
vn -0.8660 0.0000 0.5000
vn -0.9659 0.0000 0.2588
vn -1.0000 0.0000 0.0000
vn -0.9659 0.0000 -0.2588
vn -0.8660 0.0000 -0.5000
vn -0.7071 0.0000 -0.7071
vn -0.5000 0.0000 -0.8660
vn -0.2588 0.0000 -0.9659
vn -0.0000 0.0000 -1.0000
vn 0.2588 0.0000 -0.9659
vn 0.5000 0.0000 -0.8660
vn 0.7071 0.0000 -0.7071
vn 0.8660 0.0000 -0.5000
vn 0.9659 0.0000 -0.2588
vn 1.0000 0.0000 -0.0000
vn 1.0000 0.0000 0.0000
vn 0.9659 0.0000 0.2588
vn 0.8660 0.0000 0.5000
vn 0.7071 0.0000 0.7071
vn 0.5000 0.0000 0.8660
vn 0.2588 0.0000 0.9659
vn 0.0000 0.0000 1.0000
vn -0.2588 0.0000 0.9659
vn -0.5000 0.0000 0.8660
vn -0.7071 0.0000 0.7071
vn -0.8660 0.0000 0.5000
vn -0.9659 0.0000 0.2588
vn -1.0000 0.0000 0.0000
vn -0.9659 0.0000 -0.2588
vn -0.8660 0.0000 -0.5000
vn -0.7071 0.0000 -0.7071
vn -0.5000 0.0000 -0.8660
vn -0.2588 0.0000 -0.9659
vn -0.0000 0.0000 -1.0000
vn 0.2588 0.0000 -0.9659
vn 0.5000 0.0000 -0.8660
vn 0.7071 0.0000 -0.7071
vn 0.8660 0.0000 -0.5000
vn 0.9659 0.0000 -0.2588
vn 1.0000 0.0000 -0.0000
vn 1.0000 0.0000 0.0000
vn 0.9659 0.0000 0.2588
vn 0.8660 0.0000 0.5000
vn 0.7071 0.0000 0.7071
vn 0.5000 0.0000 0.8660
vn 0.2588 0.0000 0.9659
vn 0.0000 0.0000 1.0000
vn -0.2588 0.0000 0.9659
vn -0.5000 0.0000 0.8660
vn -0.7071 0.0000 0.7071
vn -0.8660 0.0000 0.5000
vn -0.9659 0.0000 0.2588
vn -1.0000 0.0000 0.0000
vn -0.9659 0.0000 -0.2588
vn -0.8660 0.0000 -0.5000
vn -0.7071 0.0000 -0.7071
vn -0.5000 0.0000 -0.8660
vn -0.2588 0.0000 -0.9659
vn -0.0000 0.0000 -1.0000
vn 0.2588 0.0000 -0.9659
vn 0.5000 0.0000 -0.8660
vn 0.7071 0.0000 -0.7071
vn 0.8660 0.0000 -0.5000
vn 0.9659 0.0000 -0.2588
vn 1.0000 0.0000 -0.0000
vn 1.0000 0.0000 0.0000
vn 0.9659 0.0000 0.2588
vn 0.8660 0.0000 0.5000
vn 0.7071 0.0000 0.7071
vn 0.5000 0.0000 0.8660
vn 0.2588 0.0000 0.9659
vn 0.0000 0.0000 1.0000
vn -0.2588 0.0000 0.9659
vn -0.5000 0.0000 0.8660
vn -0.7071 0.0000 0.7071
vn -0.8660 0.0000 0.5000
vn -0.9659 0.0000 0.2588
vn -1.0000 0.0000 0.0000
vn -0.9659 0.0000 -0.2588
vn -0.8660 0.0000 -0.5000
vn -0.7071 0.0000 -0.7071
vn -0.5000 0.0000 -0.8660
vn -0.2588 0.0000 -0.9659
vn -0.0000 0.0000 -1.0000
vn 0.2588 0.0000 -0.9659
vn 0.5000 0.0000 -0.8660
vn 0.7071 0.0000 -0.7071
vn 0.8660 0.0000 -0.5000
vn 0.9659 0.0000 -0.2588
vn 1.0000 0.0000 -0.0000
vn 1.0000 0.0000 0.0000
vn 0.9659 0.0000 0.2588
vn 0.8660 0.0000 0.5000
vn 0.7071 0.0000 0.7071
vn 0.5000 0.0000 0.8660
vn 0.2588 0.0000 0.9659
vn 0.0000 0.0000 1.0000
vn -0.2588 0.0000 0.9659
vn -0.5000 0.0000 0.8660
vn -0.7071 0.0000 0.7071
vn -0.8660 0.0000 0.5000
vn -0.9659 0.0000 0.2588
vn -1.0000 0.0000 0.0000
vn -0.9659 0.0000 -0.2588
vn -0.8660 0.0000 -0.5000
vn -0.7071 0.0000 -0.7071
vn -0.5000 0.0000 -0.8660
vn -0.2588 0.0000 -0.9659
vn -0.0000 0.0000 -1.0000
vn 0.2588 0.0000 -0.9659
vn 0.5000 0.0000 -0.8660
vn 0.7071 0.0000 -0.7071
vn 0.8660 0.0000 -0.5000
vn 0.9659 0.0000 -0.2588
vn 1.0000 0.0000 -0.0000
vn 1.0000 0.0000 0.0000
vn 0.9659 0.0000 0.2588
vn 0.8660 0.0000 0.5000
vn 0.7071 0.0000 0.7071
vn 0.5000 0.0000 0.8660
vn 0.2588 0.0000 0.9659
vn 0.0000 0.0000 1.0000
vn -0.2588 0.0000 0.9659
vn -0.5000 0.0000 0.8660
vn -0.7071 0.0000 0.7071
vn -0.8660 0.0000 0.5000
vn -0.9659 0.0000 0.2588
vn -1.0000 0.0000 0.0000
vn -0.9659 0.0000 -0.2588
vn -0.8660 0.0000 -0.5000
vn -0.7071 0.0000 -0.7071
vn -0.5000 0.0000 -0.8660
vn -0.2588 0.0000 -0.9659
vn -0.0000 0.0000 -1.0000
vn 0.2588 0.0000 -0.9659
vn 0.5000 0.0000 -0.8660
vn 0.7071 0.0000 -0.7071
vn 0.8660 0.0000 -0.5000
vn 0.9659 0.0000 -0.2588
vn 1.0000 0.0000 -0.0000
vn 1.0000 0.0000 0.0000
vn 0.9659 0.0000 0.2588
vn 0.8660 0.0000 0.5000
vn 0.7071 0.0000 0.7071
vn 0.5000 0.0000 0.8660
vn 0.2588 0.0000 0.9659
vn 0.0000 0.0000 1.0000
vn -0.2588 0.0000 0.9659
vn -0.5000 0.0000 0.8660
vn -0.7071 0.0000 0.7071
vn -0.8660 0.0000 0.5000
vn -0.9659 0.0000 0.2588
vn -1.0000 0.0000 0.0000
vn -0.9659 0.0000 -0.2588
vn -0.8660 0.0000 -0.5000
vn -0.7071 0.0000 -0.7071
vn -0.5000 0.0000 -0.8660
vn -0.2588 0.0000 -0.9659
vn -0.0000 0.0000 -1.0000
vn 0.2588 0.0000 -0.9659
vn 0.5000 0.0000 -0.8660
vn 0.7071 0.0000 -0.7071
vn 0.8660 0.0000 -0.5000
vn 0.9659 0.0000 -0.2588
vn 1.0000 0.0000 -0.0000
vn 1.0000 0.0000 0.0000
vn 0.9659 0.0000 0.2588
vn 0.8660 0.0000 0.5000
vn 0.7071 0.0000 0.7071
vn 0.5000 0.0000 0.8660
vn 0.2588 0.0000 0.9659
vn 0.0000 0.0000 1.0000
vn -0.2588 0.0000 0.9659
vn -0.5000 0.0000 0.8660
vn -0.7071 0.0000 0.7071
vn -0.8660 0.0000 0.5000
vn -0.9659 0.0000 0.2588
vn -1.0000 0.0000 0.0000
vn -0.9659 0.0000 -0.2588
vn -0.8660 0.0000 -0.5000
vn -0.7071 0.0000 -0.7071
vn -0.5000 0.0000 -0.8660
vn -0.2588 0.0000 -0.9659
vn -0.0000 0.0000 -1.0000
vn 0.2588 0.0000 -0.9659
vn 0.5000 0.0000 -0.8660
vn 0.7071 0.0000 -0.7071
vn 0.8660 0.0000 -0.5000
vn 0.9659 0.0000 -0.2588
vn 1.0000 0.0000 -0.0000
vn 1.0000 0.0000 0.0000
vn 0.9659 0.0000 0.2588
vn 0.8660 0.0000 0.5000
vn 0.7071 0.0000 0.7071
vn 0.5000 0.0000 0.8660
vn 0.2588 0.0000 0.9659
vn 0.0000 0.0000 1.0000
vn -0.2588 0.0000 0.9659
vn -0.5000 0.0000 0.8660
vn -0.7071 0.0000 0.7071
vn -0.8660 0.0000 0.5000
vn -0.9659 0.0000 0.2588
vn -1.0000 0.0000 0.0000
vn -0.9659 0.0000 -0.2588
vn -0.8660 0.0000 -0.5000
vn -0.7071 0.0000 -0.7071
vn -0.5000 0.0000 -0.8660
vn -0.2588 0.0000 -0.9659
vn -0.0000 0.0000 -1.0000
vn 0.2588 0.0000 -0.9659
vn 0.5000 0.0000 -0.8660
vn 0.7071 0.0000 -0.7071
vn 0.8660 0.0000 -0.5000
vn 0.9659 0.0000 -0.2588
vn 1.0000 0.0000 -0.0000
vn 1.0000 0.0000 0.0000
vn 0.9659 0.0000 0.2588
vn 0.8660 0.0000 0.5000
vn 0.7071 0.0000 0.7071
vn 0.5000 0.0000 0.8660
vn 0.2588 0.0000 0.9659
vn 0.0000 0.0000 1.0000
vn -0.2588 0.0000 0.9659
vn -0.5000 0.0000 0.8660
vn -0.7071 0.0000 0.7071
vn -0.8660 0.0000 0.5000
vn -0.9659 0.0000 0.2588
vn -1.0000 0.0000 0.0000
vn -0.9659 0.0000 -0.2588
vn -0.8660 0.0000 -0.5000
vn -0.7071 0.0000 -0.7071
vn -0.5000 0.0000 -0.8660
vn -0.2588 0.0000 -0.9659
vn -0.0000 0.0000 -1.0000
vn 0.2588 0.0000 -0.9659
vn 0.5000 0.0000 -0.8660
vn 0.7071 0.0000 -0.7071
vn 0.8660 0.0000 -0.5000
vn 0.9659 0.0000 -0.2588
vn 1.0000 0.0000 -0.0000
vn 1.0000 0.0000 0.0000
vn 0.9659 0.0000 0.2588
vn 0.8660 0.0000 0.5000
vn 0.7071 0.0000 0.7071
vn 0.5000 0.0000 0.8660
vn 0.2588 0.0000 0.9659
vn 0.0000 0.0000 1.0000
vn -0.2588 0.0000 0.9659
vn -0.5000 0.0000 0.8660
vn -0.7071 0.0000 0.7071
vn -0.8660 0.0000 0.5000
vn -0.9659 0.0000 0.2588
vn -1.0000 0.0000 0.0000
vn -0.9659 0.0000 -0.2588
vn -0.8660 0.0000 -0.5000
vn -0.7071 0.0000 -0.7071
vn -0.5000 0.0000 -0.8660
vn -0.2588 0.0000 -0.9659
vn -0.0000 0.0000 -1.0000
vn 0.2588 0.0000 -0.9659
vn 0.5000 0.0000 -0.8660
vn 0.7071 0.0000 -0.7071
vn 0.8660 0.0000 -0.5000
vn 0.9659 0.0000 -0.2588
vn 1.0000 0.0000 -0.0000
vn 1.0000 0.0000 0.0000
vn 0.9659 0.0000 0.2588
vn 0.8660 0.0000 0.5000
vn 0.7071 0.0000 0.7071
vn 0.5000 0.0000 0.8660
vn 0.2588 0.0000 0.9659
vn 0.0000 0.0000 1.0000
vn -0.2588 0.0000 0.9659
vn -0.5000 0.0000 0.8660
vn -0.7071 0.0000 0.7071
vn -0.8660 0.0000 0.5000
vn -0.9659 0.0000 0.2588
vn -1.0000 0.0000 0.0000
vn -0.9659 0.0000 -0.2588
vn -0.8660 0.0000 -0.5000
vn -0.7071 0.0000 -0.7071
vn -0.5000 0.0000 -0.8660
vn -0.2588 0.0000 -0.9659
vn -0.0000 0.0000 -1.0000
vn 0.2588 0.0000 -0.9659
vn 0.5000 0.0000 -0.8660
vn 0.7071 0.0000 -0.7071
vn 0.8660 0.0000 -0.5000
vn 0.9659 0.0000 -0.2588
vn 1.0000 0.0000 -0.0000
vn 1.0000 0.0000 0.0000
vn 0.9659 0.0000 0.2588
vn 0.8660 0.0000 0.5000
vn 0.7071 0.0000 0.7071
vn 0.5000 0.0000 0.8660
vn 0.2588 0.0000 0.9659
vn 0.0000 0.0000 1.0000
vn -0.2588 0.0000 0.9659
vn -0.5000 0.0000 0.8660
vn -0.7071 0.0000 0.7071
vn -0.8660 0.0000 0.5000
vn -0.9659 0.0000 0.2588
vn -1.0000 0.0000 0.0000
vn -0.9659 0.0000 -0.2588
vn -0.8660 0.0000 -0.5000
vn -0.7071 0.0000 -0.7071
vn -0.5000 0.0000 -0.8660
vn -0.2588 0.0000 -0.9659
vn -0.0000 0.0000 -1.0000
vn 0.2588 0.0000 -0.9659
vn 0.5000 0.0000 -0.8660
vn 0.7071 0.0000 -0.7071
vn 0.8660 0.0000 -0.5000
vn 0.9659 0.0000 -0.2588
vn 1.0000 0.0000 -0.0000
vn 1.0000 0.0000 0.0000
vn 0.9659 0.0000 0.2588
vn 0.8660 0.0000 0.5000
vn 0.7071 0.0000 0.7071
vn 0.5000 0.0000 0.8660
vn 0.2588 0.0000 0.9659
vn 0.0000 0.0000 1.0000
vn -0.2588 0.0000 0.9659
vn -0.5000 0.0000 0.8660
vn -0.7071 0.0000 0.7071
vn -0.8660 0.0000 0.5000
vn -0.9659 0.0000 0.2588
vn -1.0000 0.0000 0.0000
vn -0.9659 0.0000 -0.2588
vn -0.8660 0.0000 -0.5000
vn -0.7071 0.0000 -0.7071
vn -0.5000 0.0000 -0.8660
vn -0.2588 0.0000 -0.9659
vn -0.0000 0.0000 -1.0000
vn 0.2588 0.0000 -0.9659
vn 0.5000 0.0000 -0.8660
vn 0.7071 0.0000 -0.7071
vn 0.8660 0.0000 -0.5000
vn 0.9659 0.0000 -0.2588
vn 1.0000 0.0000 -0.0000
vn 0.0000 1.0000 0.0000
vn 0.0000 1.0000 0.0000
vn 0.0000 1.0000 0.0000
vn 0.0000 1.0000 0.0000
vn 0.0000 1.0000 0.0000
vn 0.0000 1.0000 0.0000
vn 0.0000 1.0000 0.0000
vn 0.0000 1.0000 0.0000
vn 0.0000 1.0000 0.0000
vn 0.0000 1.0000 0.0000
vn 0.0000 1.0000 0.0000
vn 0.0000 1.0000 0.0000
vn 0.0000 1.0000 0.0000
vn 0.0000 1.0000 0.0000
vn 0.0000 1.0000 0.0000
vn 0.0000 1.0000 0.0000
vn 0.0000 1.0000 0.0000
vn 0.0000 1.0000 0.0000
vn 0.0000 1.0000 0.0000
vn 0.0000 1.0000 0.0000
vn 0.0000 1.0000 0.0000
vn 0.0000 1.0000 0.0000
vn 0.0000 1.0000 0.0000
vn 0.0000 1.0000 0.0000
vn 0.0000 1.0000 0.0000
f 1/1/1 2/2/2 26/26/26
f 2/2/2 27/27/27 26/26/26
f 2/2/2 3/3/3 27/27/27
f 3/3/3 28/28/28 27/27/27
f 3/3/3 4/4/4 28/28/28
f 4/4/4 29/29/29 28/28/28
f 4/4/4 5/5/5 29/29/29
f 5/5/5 30/30/30 29/29/29
f 5/5/5 6/6/6 30/30/30
f 6/6/6 31/31/31 30/30/30
f 6/6/6 7/7/7 31/31/31
f 7/7/7 32/32/32 31/31/31
f 7/7/7 8/8/8 32/32/32
f 8/8/8 33/33/33 32/32/32
f 8/8/8 9/9/9 33/33/33
f 9/9/9 34/34/34 33/33/33
f 9/9/9 10/10/10 34/34/34
f 10/10/10 35/35/35 34/34/34
f 10/10/10 11/11/11 35/35/35
f 11/11/11 36/36/36 35/35/35
f 11/11/11 12/12/12 36/36/36
f 12/12/12 37/37/37 36/36/36
f 12/12/12 13/13/13 37/37/37
f 13/13/13 38/38/38 37/37/37
f 13/13/13 14/14/14 38/38/38
f 14/14/14 39/39/39 38/38/38
f 14/14/14 15/15/15 39/39/39
f 15/15/15 40/40/40 39/39/39
f 15/15/15 16/16/16 40/40/40
f 16/16/16 41/41/41 40/40/40
f 16/16/16 17/17/17 41/41/41
f 17/17/17 42/42/42 41/41/41
f 17/17/17 18/18/18 42/42/42
f 18/18/18 43/43/43 42/42/42
f 18/18/18 19/19/19 43/43/43
f 19/19/19 44/44/44 43/43/43
f 19/19/19 20/20/20 44/44/44
f 20/20/20 45/45/45 44/44/44
f 20/20/20 21/21/21 45/45/45
f 21/21/21 46/46/46 45/45/45
f 21/21/21 22/22/22 46/46/46
f 22/22/22 47/47/47 46/46/46
f 22/22/22 23/23/23 47/47/47
f 23/23/23 48/48/48 47/47/47
f 23/23/23 24/24/24 48/48/48
f 24/24/24 49/49/49 48/48/48
f 24/24/24 25/25/25 49/49/49
f 25/25/25 50/50/50 49/49/49
f 26/26/26 27/27/27 51/51/51
f 27/27/27 52/52/52 51/51/51
f 27/27/27 28/28/28 52/52/52
f 28/28/28 53/53/53 52/52/52
f 28/28/28 29/29/29 53/53/53
f 29/29/29 54/54/54 53/53/53
f 29/29/29 30/30/30 54/54/54
f 30/30/30 55/55/55 54/54/54
f 30/30/30 31/31/31 55/55/55
f 31/31/31 56/56/56 55/55/55
f 31/31/31 32/32/32 56/56/56
f 32/32/32 57/57/57 56/56/56
f 32/32/32 33/33/33 57/57/57
f 33/33/33 58/58/58 57/57/57
f 33/33/33 34/34/34 58/58/58
f 34/34/34 59/59/59 58/58/58
f 34/34/34 35/35/35 59/59/59
f 35/35/35 60/60/60 59/59/59
f 35/35/35 36/36/36 60/60/60
f 36/36/36 61/61/61 60/60/60
f 36/36/36 37/37/37 61/61/61
f 37/37/37 62/62/62 61/61/61
f 37/37/37 38/38/38 62/62/62
f 38/38/38 63/63/63 62/62/62
f 38/38/38 39/39/39 63/63/63
f 39/39/39 64/64/64 63/63/63
f 39/39/39 40/40/40 64/64/64
f 40/40/40 65/65/65 64/64/64
f 40/40/40 41/41/41 65/65/65
f 41/41/41 66/66/66 65/65/65
f 41/41/41 42/42/42 66/66/66
f 42/42/42 67/67/67 66/66/66
f 42/42/42 43/43/43 67/67/67
f 43/43/43 68/68/68 67/67/67
f 43/43/43 44/44/44 68/68/68
f 44/44/44 69/69/69 68/68/68
f 44/44/44 45/45/45 69/69/69
f 45/45/45 70/70/70 69/69/69
f 45/45/45 46/46/46 70/70/70
f 46/46/46 71/71/71 70/70/70
f 46/46/46 47/47/47 71/71/71
f 47/47/47 72/72/72 71/71/71
f 47/47/47 48/48/48 72/72/72
f 48/48/48 73/73/73 72/72/72
f 48/48/48 49/49/49 73/73/73
f 49/49/49 74/74/74 73/73/73
f 49/49/49 50/50/50 74/74/74
f 50/50/50 75/75/75 74/74/74
f 51/51/51 52/52/52 76/76/76
f 52/52/52 77/77/77 76/76/76
f 52/52/52 53/53/53 77/77/77
f 53/53/53 78/78/78 77/77/77
f 53/53/53 54/54/54 78/78/78
f 54/54/54 79/79/79 78/78/78
f 54/54/54 55/55/55 79/79/79
f 55/55/55 80/80/80 79/79/79
f 55/55/55 56/56/56 80/80/80
f 56/56/56 81/81/81 80/80/80
f 56/56/56 57/57/57 81/81/81
f 57/57/57 82/82/82 81/81/81
f 57/57/57 58/58/58 82/82/82
f 58/58/58 83/83/83 82/82/82
f 58/58/58 59/59/59 83/83/83
f 59/59/59 84/84/84 83/83/83
f 59/59/59 60/60/60 84/84/84
f 60/60/60 85/85/85 84/84/84
f 60/60/60 61/61/61 85/85/85
f 61/61/61 86/86/86 85/85/85
f 61/61/61 62/62/62 86/86/86
f 62/62/62 87/87/87 86/86/86
f 62/62/62 63/63/63 87/87/87
f 63/63/63 88/88/88 87/87/87
f 63/63/63 64/64/64 88/88/88
f 64/64/64 89/89/89 88/88/88
f 64/64/64 65/65/65 89/89/89
f 65/65/65 90/90/90 89/89/89
f 65/65/65 66/66/66 90/90/90
f 66/66/66 91/91/91 90/90/90
f 66/66/66 67/67/67 91/91/91
f 67/67/67 92/92/92 91/91/91
f 67/67/67 68/68/68 92/92/92
f 68/68/68 93/93/93 92/92/92
f 68/68/68 69/69/69 93/93/93
f 69/69/69 94/94/94 93/93/93
f 69/69/69 70/70/70 94/94/94
f 70/70/70 95/95/95 94/94/94
f 70/70/70 71/71/71 95/95/95
f 71/71/71 96/96/96 95/95/95
f 71/71/71 72/72/72 96/96/96
f 72/72/72 97/97/97 96/96/96
f 72/72/72 73/73/73 97/97/97
f 73/73/73 98/98/98 97/97/97
f 73/73/73 74/74/74 98/98/98
f 74/74/74 99/99/99 98/98/98
f 74/74/74 75/75/75 99/99/99
f 75/75/75 100/100/100 99/99/99
f 76/76/76 77/77/77 101/101/101
f 77/77/77 102/102/102 101/101/101
f 77/77/77 78/78/78 102/102/102
f 78/78/78 103/103/103 102/102/102
f 78/78/78 79/79/79 103/103/103
f 79/79/79 104/104/104 103/103/103
f 79/79/79 80/80/80 104/104/104
f 80/80/80 105/105/105 104/104/104
f 80/80/80 81/81/81 105/105/105
f 81/81/81 106/106/106 105/105/105
f 81/81/81 82/82/82 106/106/106
f 82/82/82 107/107/107 106/106/106
f 82/82/82 83/83/83 107/107/107
f 83/83/83 108/108/108 107/107/107
f 83/83/83 84/84/84 108/108/108
f 84/84/84 109/109/109 108/108/108
f 84/84/84 85/85/85 109/109/109
f 85/85/85 110/110/110 109/109/109
f 85/85/85 86/86/86 110/110/110
f 86/86/86 111/111/111 110/110/110
f 86/86/86 87/87/87 111/111/111
f 87/87/87 112/112/112 111/111/111
f 87/87/87 88/88/88 112/112/112
f 88/88/88 113/113/113 112/112/112
f 88/88/88 89/89/89 113/113/113
f 89/89/89 114/114/114 113/113/113
f 89/89/89 90/90/90 114/114/114
f 90/90/90 115/115/115 114/114/114
f 90/90/90 91/91/91 115/115/115
f 91/91/91 116/116/116 115/115/115
f 91/91/91 92/92/92 116/116/116
f 92/92/92 117/117/117 116/116/116
f 92/92/92 93/93/93 117/117/117
f 93/93/93 118/118/118 117/117/117
f 93/93/93 94/94/94 118/118/118
f 94/94/94 119/119/119 118/118/118
f 94/94/94 95/95/95 119/119/119
f 95/95/95 120/120/120 119/119/119
f 95/95/95 96/96/96 120/120/120
f 96/96/96 121/121/121 120/120/120
f 96/96/96 97/97/97 121/121/121
f 97/97/97 122/122/122 121/121/121
f 97/97/97 98/98/98 122/122/122
f 98/98/98 123/123/123 122/122/122
f 98/98/98 99/99/99 123/123/123
f 99/99/99 124/124/124 123/123/123
f 99/99/99 100/100/100 124/124/124
f 100/100/100 125/125/125 124/124/124
f 101/101/101 102/102/102 126/126/126
f 102/102/102 127/127/127 126/126/126
f 102/102/102 103/103/103 127/127/127
f 103/103/103 128/128/128 127/127/127
f 103/103/103 104/104/104 128/128/128
f 104/104/104 129/129/129 128/128/128
f 104/104/104 105/105/105 129/129/129
f 105/105/105 130/130/130 129/129/129
f 105/105/105 106/106/106 130/130/130
f 106/106/106 131/131/131 130/130/130
f 106/106/106 107/107/107 131/131/131
f 107/107/107 132/132/132 131/131/131
f 107/107/107 108/108/108 132/132/132
f 108/108/108 133/133/133 132/132/132
f 108/108/108 109/109/109 133/133/133
f 109/109/109 134/134/134 133/133/133
f 109/109/109 110/110/110 134/134/134
f 110/110/110 135/135/135 134/134/134
f 110/110/110 111/111/111 135/135/135
f 111/111/111 136/136/136 135/135/135
f 111/111/111 112/112/112 136/136/136
f 112/112/112 137/137/137 136/136/136
f 112/112/112 113/113/113 137/137/137
f 113/113/113 138/138/138 137/137/137
f 113/113/113 114/114/114 138/138/138
f 114/114/114 139/139/139 138/138/138
f 114/114/114 115/115/115 139/139/139
f 115/115/115 140/140/140 139/139/139
f 115/115/115 116/116/116 140/140/140
f 116/116/116 141/141/141 140/140/140
f 116/116/116 117/117/117 141/141/141
f 117/117/117 142/142/142 141/141/141
f 117/117/117 118/118/118 142/142/142
f 118/118/118 143/143/143 142/142/142
f 118/118/118 119/119/119 143/143/143
f 119/119/119 144/144/144 143/143/143
f 119/119/119 120/120/120 144/144/144
f 120/120/120 145/145/145 144/144/144
f 120/120/120 121/121/121 145/145/145
f 121/121/121 146/146/146 145/145/145
f 121/121/121 122/122/122 146/146/146
f 122/122/122 147/147/147 146/146/146
f 122/122/122 123/123/123 147/147/147
f 123/123/123 148/148/148 147/147/147
f 123/123/123 124/124/124 148/148/148
f 124/124/124 149/149/149 148/148/148
f 124/124/124 125/125/125 149/149/149
f 125/125/125 150/150/150 149/149/149
f 126/126/126 127/127/127 151/151/151
f 127/127/127 152/152/152 151/151/151
f 127/127/127 128/128/128 152/152/152
f 128/128/128 153/153/153 152/152/152
f 128/128/128 129/129/129 153/153/153
f 129/129/129 154/154/154 153/153/153
f 129/129/129 130/130/130 154/154/154
f 130/130/130 155/155/155 154/154/154
f 130/130/130 131/131/131 155/155/155
f 131/131/131 156/156/156 155/155/155
f 131/131/131 132/132/132 156/156/156
f 132/132/132 157/157/157 156/156/156
f 132/132/132 133/133/133 157/157/157
f 133/133/133 158/158/158 157/157/157
f 133/133/133 134/134/134 158/158/158
f 134/134/134 159/159/159 158/158/158
f 134/134/134 135/135/135 159/159/159
f 135/135/135 160/160/160 159/159/159
f 135/135/135 136/136/136 160/160/160
f 136/136/136 161/161/161 160/160/160
f 136/136/136 137/137/137 161/161/161
f 137/137/137 162/162/162 161/161/161
f 137/137/137 138/138/138 162/162/162
f 138/138/138 163/163/163 162/162/162
f 138/138/138 139/139/139 163/163/163
f 139/139/139 164/164/164 163/163/163
f 139/139/139 140/140/140 164/164/164
f 140/140/140 165/165/165 164/164/164
f 140/140/140 141/141/141 165/165/165
f 141/141/141 166/166/166 165/165/165
f 141/141/141 142/142/142 166/166/166
f 142/142/142 167/167/167 166/166/166
f 142/142/142 143/143/143 167/167/167
f 143/143/143 168/168/168 167/167/167
f 143/143/143 144/144/144 168/168/168
f 144/144/144 169/169/169 168/168/168
f 144/144/144 145/145/145 169/169/169
f 145/145/145 170/170/170 169/169/169
f 145/145/145 146/146/146 170/170/170
f 146/146/146 171/171/171 170/170/170
f 146/146/146 147/147/147 171/171/171
f 147/147/147 172/172/172 171/171/171
f 147/147/147 148/148/148 172/172/172
f 148/148/148 173/173/173 172/172/172
f 148/148/148 149/149/149 173/173/173
f 149/149/149 174/174/174 173/173/173
f 149/149/149 150/150/150 174/174/174
f 150/150/150 175/175/175 174/174/174
f 151/151/151 152/152/152 176/176/176
f 152/152/152 177/177/177 176/176/176
f 152/152/152 153/153/153 177/177/177
f 153/153/153 178/178/178 177/177/177
f 153/153/153 154/154/154 178/178/178
f 154/154/154 179/179/179 178/178/178
f 154/154/154 155/155/155 179/179/179
f 155/155/155 180/180/180 179/179/179
f 155/155/155 156/156/156 180/180/180
f 156/156/156 181/181/181 180/180/180
f 156/156/156 157/157/157 181/181/181
f 157/157/157 182/182/182 181/181/181
f 157/157/157 158/158/158 182/182/182
f 158/158/158 183/183/183 182/182/182
f 158/158/158 159/159/159 183/183/183
f 159/159/159 184/184/184 183/183/183
f 159/159/159 160/160/160 184/184/184
f 160/160/160 185/185/185 184/184/184
f 160/160/160 161/161/161 185/185/185
f 161/161/161 186/186/186 185/185/185
f 161/161/161 162/162/162 186/186/186
f 162/162/162 187/187/187 186/186/186
f 162/162/162 163/163/163 187/187/187
f 163/163/163 188/188/188 187/187/187
f 163/163/163 164/164/164 188/188/188
f 164/164/164 189/189/189 188/188/188
f 164/164/164 165/165/165 189/189/189
f 165/165/165 190/190/190 189/189/189
f 165/165/165 166/166/166 190/190/190
f 166/166/166 191/191/191 190/190/190
f 166/166/166 167/167/167 191/191/191
f 167/167/167 192/192/192 191/191/191
f 167/167/167 168/168/168 192/192/192
f 168/168/168 193/193/193 192/192/192
f 168/168/168 169/169/169 193/193/193
f 169/169/169 194/194/194 193/193/193
f 169/169/169 170/170/170 194/194/194
f 170/170/170 195/195/195 194/194/194
f 170/170/170 171/171/171 195/195/195
f 171/171/171 196/196/196 195/195/195
f 171/171/171 172/172/172 196/196/196
f 172/172/172 197/197/197 196/196/196
f 172/172/172 173/173/173 197/197/197
f 173/173/173 198/198/198 197/197/197
f 173/173/173 174/174/174 198/198/198
f 174/174/174 199/199/199 198/198/198
f 174/174/174 175/175/175 199/199/199
f 175/175/175 200/200/200 199/199/199
f 176/176/176 177/177/177 201/201/201
f 177/177/177 202/202/202 201/201/201
f 177/177/177 178/178/178 202/202/202
f 178/178/178 203/203/203 202/202/202
f 178/178/178 179/179/179 203/203/203
f 179/179/179 204/204/204 203/203/203
f 179/179/179 180/180/180 204/204/204
f 180/180/180 205/205/205 204/204/204
f 180/180/180 181/181/181 205/205/205
f 181/181/181 206/206/206 205/205/205
f 181/181/181 182/182/182 206/206/206
f 182/182/182 207/207/207 206/206/206
f 182/182/182 183/183/183 207/207/207
f 183/183/183 208/208/208 207/207/207
f 183/183/183 184/184/184 208/208/208
f 184/184/184 209/209/209 208/208/208
f 184/184/184 185/185/185 209/209/209
f 185/185/185 210/210/210 209/209/209
f 185/185/185 186/186/186 210/210/210
f 186/186/186 211/211/211 210/210/210
f 186/186/186 187/187/187 211/211/211
f 187/187/187 212/212/212 211/211/211
f 187/187/187 188/188/188 212/212/212
f 188/188/188 213/213/213 212/212/212
f 188/188/188 189/189/189 213/213/213
f 189/189/189 214/214/214 213/213/213
f 189/189/189 190/190/190 214/214/214
f 190/190/190 215/215/215 214/214/214
f 190/190/190 191/191/191 215/215/215
f 191/191/191 216/216/216 215/215/215
f 191/191/191 192/192/192 216/216/216
f 192/192/192 217/217/217 216/216/216
f 192/192/192 193/193/193 217/217/217
f 193/193/193 218/218/218 217/217/217
f 193/193/193 194/194/194 218/218/218
f 194/194/194 219/219/219 218/218/218
f 194/194/194 195/195/195 219/219/219
f 195/195/195 220/220/220 219/219/219
f 195/195/195 196/196/196 220/220/220
f 196/196/196 221/221/221 220/220/220
f 196/196/196 197/197/197 221/221/221
f 197/197/197 222/222/222 221/221/221
f 197/197/197 198/198/198 222/222/222
f 198/198/198 223/223/223 222/222/222
f 198/198/198 199/199/199 223/223/223
f 199/199/199 224/224/224 223/223/223
f 199/199/199 200/200/200 224/224/224
f 200/200/200 225/225/225 224/224/224
f 201/201/201 202/202/202 226/226/226
f 202/202/202 227/227/227 226/226/226
f 202/202/202 203/203/203 227/227/227
f 203/203/203 228/228/228 227/227/227
f 203/203/203 204/204/204 228/228/228
f 204/204/204 229/229/229 228/228/228
f 204/204/204 205/205/205 229/229/229
f 205/205/205 230/230/230 229/229/229
f 205/205/205 206/206/206 230/230/230
f 206/206/206 231/231/231 230/230/230
f 206/206/206 207/207/207 231/231/231
f 207/207/207 232/232/232 231/231/231
f 207/207/207 208/208/208 232/232/232
f 208/208/208 233/233/233 232/232/232
f 208/208/208 209/209/209 233/233/233
f 209/209/209 234/234/234 233/233/233
f 209/209/209 210/210/210 234/234/234
f 210/210/210 235/235/235 234/234/234
f 210/210/210 211/211/211 235/235/235
f 211/211/211 236/236/236 235/235/235
f 211/211/211 212/212/212 236/236/236
f 212/212/212 237/237/237 236/236/236
f 212/212/212 213/213/213 237/237/237
f 213/213/213 238/238/238 237/237/237
f 213/213/213 214/214/214 238/238/238
f 214/214/214 239/239/239 238/238/238
f 214/214/214 215/215/215 239/239/239
f 215/215/215 240/240/240 239/239/239
f 215/215/215 216/216/216 240/240/240
f 216/216/216 241/241/241 240/240/240
f 216/216/216 217/217/217 241/241/241
f 217/217/217 242/242/242 241/241/241
f 217/217/217 218/218/218 242/242/242
f 218/218/218 243/243/243 242/242/242
f 218/218/218 219/219/219 243/243/243
f 219/219/219 244/244/244 243/243/243
f 219/219/219 220/220/220 244/244/244
f 220/220/220 245/245/245 244/244/244
f 220/220/220 221/221/221 245/245/245
f 221/221/221 246/246/246 245/245/245
f 221/221/221 222/222/222 246/246/246
f 222/222/222 247/247/247 246/246/246
f 222/222/222 223/223/223 247/247/247
f 223/223/223 248/248/248 247/247/247
f 223/223/223 224/224/224 248/248/248
f 224/224/224 249/249/249 248/248/248
f 224/224/224 225/225/225 249/249/249
f 225/225/225 250/250/250 249/249/249
f 226/226/226 227/227/227 251/251/251
f 227/227/227 252/252/252 251/251/251
f 227/227/227 228/228/228 252/252/252
f 228/228/228 253/253/253 252/252/252
f 228/228/228 229/229/229 253/253/253
f 229/229/229 254/254/254 253/253/253
f 229/229/229 230/230/230 254/254/254
f 230/230/230 255/255/255 254/254/254
f 230/230/230 231/231/231 255/255/255
f 231/231/231 256/256/256 255/255/255
f 231/231/231 232/232/232 256/256/256
f 232/232/232 257/257/257 256/256/256
f 232/232/232 233/233/233 257/257/257
f 233/233/233 258/258/258 257/257/257
f 233/233/233 234/234/234 258/258/258
f 234/234/234 259/259/259 258/258/258
f 234/234/234 235/235/235 259/259/259
f 235/235/235 260/260/260 259/259/259
f 235/235/235 236/236/236 260/260/260
f 236/236/236 261/261/261 260/260/260
f 236/236/236 237/237/237 261/261/261
f 237/237/237 262/262/262 261/261/261
f 237/237/237 238/238/238 262/262/262
f 238/238/238 263/263/263 262/262/262
f 238/238/238 239/239/239 263/263/263
f 239/239/239 264/264/264 263/263/263
f 239/239/239 240/240/240 264/264/264
f 240/240/240 265/265/265 264/264/264
f 240/240/240 241/241/241 265/265/265
f 241/241/241 266/266/266 265/265/265
f 241/241/241 242/242/242 266/266/266
f 242/242/242 267/267/267 266/266/266
f 242/242/242 243/243/243 267/267/267
f 243/243/243 268/268/268 267/267/267
f 243/243/243 244/244/244 268/268/268
f 244/244/244 269/269/269 268/268/268
f 244/244/244 245/245/245 269/269/269
f 245/245/245 270/270/270 269/269/269
f 245/245/245 246/246/246 270/270/270
f 246/246/246 271/271/271 270/270/270
f 246/246/246 247/247/247 271/271/271
f 247/247/247 272/272/272 271/271/271
f 247/247/247 248/248/248 272/272/272
f 248/248/248 273/273/273 272/272/272
f 248/248/248 249/249/249 273/273/273
f 249/249/249 274/274/274 273/273/273
f 249/249/249 250/250/250 274/274/274
f 250/250/250 275/275/275 274/274/274
f 251/251/251 252/252/252 276/276/276
f 252/252/252 277/277/277 276/276/276
f 252/252/252 253/253/253 277/277/277
f 253/253/253 278/278/278 277/277/277
f 253/253/253 254/254/254 278/278/278
f 254/254/254 279/279/279 278/278/278
f 254/254/254 255/255/255 279/279/279
f 255/255/255 280/280/280 279/279/279
f 255/255/255 256/256/256 280/280/280
f 256/256/256 281/281/281 280/280/280
f 256/256/256 257/257/257 281/281/281
f 257/257/257 282/282/282 281/281/281
f 257/257/257 258/258/258 282/282/282
f 258/258/258 283/283/283 282/282/282
f 258/258/258 259/259/259 283/283/283
f 259/259/259 284/284/284 283/283/283
f 259/259/259 260/260/260 284/284/284
f 260/260/260 285/285/285 284/284/284
f 260/260/260 261/261/261 285/285/285
f 261/261/261 286/286/286 285/285/285
f 261/261/261 262/262/262 286/286/286
f 262/262/262 287/287/287 286/286/286
f 262/262/262 263/263/263 287/287/287
f 263/263/263 288/288/288 287/287/287
f 263/263/263 264/264/264 288/288/288
f 264/264/264 289/289/289 288/288/288
f 264/264/264 265/265/265 289/289/289
f 265/265/265 290/290/290 289/289/289
f 265/265/265 266/266/266 290/290/290
f 266/266/266 291/291/291 290/290/290
f 266/266/266 267/267/267 291/291/291
f 267/267/267 292/292/292 291/291/291
f 267/267/267 268/268/268 292/292/292
f 268/268/268 293/293/293 292/292/292
f 268/268/268 269/269/269 293/293/293
f 269/269/269 294/294/294 293/293/293
f 269/269/269 270/270/270 294/294/294
f 270/270/270 295/295/295 294/294/294
f 270/270/270 271/271/271 295/295/295
f 271/271/271 296/296/296 295/295/295
f 271/271/271 272/272/272 296/296/296
f 272/272/272 297/297/297 296/296/296
f 272/272/272 273/273/273 297/297/297
f 273/273/273 298/298/298 297/297/297
f 273/273/273 274/274/274 298/298/298
f 274/274/274 299/299/299 298/298/298
f 274/274/274 275/275/275 299/299/299
f 275/275/275 300/300/300 299/299/299
f 276/276/276 277/277/277 301/301/301
f 277/277/277 302/302/302 301/301/301
f 277/277/277 278/278/278 302/302/302
f 278/278/278 303/303/303 302/302/302
f 278/278/278 279/279/279 303/303/303
f 279/279/279 304/304/304 303/303/303
f 279/279/279 280/280/280 304/304/304
f 280/280/280 305/305/305 304/304/304
f 280/280/280 281/281/281 305/305/305
f 281/281/281 306/306/306 305/305/305
f 281/281/281 282/282/282 306/306/306
f 282/282/282 307/307/307 306/306/306
f 282/282/282 283/283/283 307/307/307
f 283/283/283 308/308/308 307/307/307
f 283/283/283 284/284/284 308/308/308
f 284/284/284 309/309/309 308/308/308
f 284/284/284 285/285/285 309/309/309
f 285/285/285 310/310/310 309/309/309
f 285/285/285 286/286/286 310/310/310
f 286/286/286 311/311/311 310/310/310
f 286/286/286 287/287/287 311/311/311
f 287/287/287 312/312/312 311/311/311
f 287/287/287 288/288/288 312/312/312
f 288/288/288 313/313/313 312/312/312
f 288/288/288 289/289/289 313/313/313
f 289/289/289 314/314/314 313/313/313
f 289/289/289 290/290/290 314/314/314
f 290/290/290 315/315/315 314/314/314
f 290/290/290 291/291/291 315/315/315
f 291/291/291 316/316/316 315/315/315
f 291/291/291 292/292/292 316/316/316
f 292/292/292 317/317/317 316/316/316
f 292/292/292 293/293/293 317/317/317
f 293/293/293 318/318/318 317/317/317
f 293/293/293 294/294/294 318/318/318
f 294/294/294 319/319/319 318/318/318
f 294/294/294 295/295/295 319/319/319
f 295/295/295 320/320/320 319/319/319
f 295/295/295 296/296/296 320/320/320
f 296/296/296 321/321/321 320/320/320
f 296/296/296 297/297/297 321/321/321
f 297/297/297 322/322/322 321/321/321
f 297/297/297 298/298/298 322/322/322
f 298/298/298 323/323/323 322/322/322
f 298/298/298 299/299/299 323/323/323
f 299/299/299 324/324/324 323/323/323
f 299/299/299 300/300/300 324/324/324
f 300/300/300 325/325/325 324/324/324
f 301/301/301 302/302/302 326/326/326
f 302/302/302 327/327/327 326/326/326
f 302/302/302 303/303/303 327/327/327
f 303/303/303 328/328/328 327/327/327
f 303/303/303 304/304/304 328/328/328
f 304/304/304 329/329/329 328/328/328
f 304/304/304 305/305/305 329/329/329
f 305/305/305 330/330/330 329/329/329
f 305/305/305 306/306/306 330/330/330
f 306/306/306 331/331/331 330/330/330
f 306/306/306 307/307/307 331/331/331
f 307/307/307 332/332/332 331/331/331
f 307/307/307 308/308/308 332/332/332
f 308/308/308 333/333/333 332/332/332
f 308/308/308 309/309/309 333/333/333
f 309/309/309 334/334/334 333/333/333
f 309/309/309 310/310/310 334/334/334
f 310/310/310 335/335/335 334/334/334
f 310/310/310 311/311/311 335/335/335
f 311/311/311 336/336/336 335/335/335
f 311/311/311 312/312/312 336/336/336
f 312/312/312 337/337/337 336/336/336
f 312/312/312 313/313/313 337/337/337
f 313/313/313 338/338/338 337/337/337
f 313/313/313 314/314/314 338/338/338
f 314/314/314 339/339/339 338/338/338
f 314/314/314 315/315/315 339/339/339
f 315/315/315 340/340/340 339/339/339
f 315/315/315 316/316/316 340/340/340
f 316/316/316 341/341/341 340/340/340
f 316/316/316 317/317/317 341/341/341
f 317/317/317 342/342/342 341/341/341
f 317/317/317 318/318/318 342/342/342
f 318/318/318 343/343/343 342/342/342
f 318/318/318 319/319/319 343/343/343
f 319/319/319 344/344/344 343/343/343
f 319/319/319 320/320/320 344/344/344
f 320/320/320 345/345/345 344/344/344
f 320/320/320 321/321/321 345/345/345
f 321/321/321 346/346/346 345/345/345
f 321/321/321 322/322/322 346/346/346
f 322/322/322 347/347/347 346/346/346
f 322/322/322 323/323/323 347/347/347
f 323/323/323 348/348/348 347/347/347
f 323/323/323 324/324/324 348/348/348
f 324/324/324 349/349/349 348/348/348
f 324/324/324 325/325/325 349/349/349
f 325/325/325 350/350/350 349/349/349
f 326/326/326 327/327/327 351/351/351
f 327/327/327 352/352/352 351/351/351
f 327/327/327 328/328/328 352/352/352
f 328/328/328 353/353/353 352/352/352
f 328/328/328 329/329/329 353/353/353
f 329/329/329 354/354/354 353/353/353
f 329/329/329 330/330/330 354/354/354
f 330/330/330 355/355/355 354/354/354
f 330/330/330 331/331/331 355/355/355
f 331/331/331 356/356/356 355/355/355
f 331/331/331 332/332/332 356/356/356
f 332/332/332 357/357/357 356/356/356
f 332/332/332 333/333/333 357/357/357
f 333/333/333 358/358/358 357/357/357
f 333/333/333 334/334/334 358/358/358
f 334/334/334 359/359/359 358/358/358
f 334/334/334 335/335/335 359/359/359
f 335/335/335 360/360/360 359/359/359
f 335/335/335 336/336/336 360/360/360
f 336/336/336 361/361/361 360/360/360
f 336/336/336 337/337/337 361/361/361
f 337/337/337 362/362/362 361/361/361
f 337/337/337 338/338/338 362/362/362
f 338/338/338 363/363/363 362/362/362
f 338/338/338 339/339/339 363/363/363
f 339/339/339 364/364/364 363/363/363
f 339/339/339 340/340/340 364/364/364
f 340/340/340 365/365/365 364/364/364
f 340/340/340 341/341/341 365/365/365
f 341/341/341 366/366/366 365/365/365
f 341/341/341 342/342/342 366/366/366
f 342/342/342 367/367/367 366/366/366
f 342/342/342 343/343/343 367/367/367
f 343/343/343 368/368/368 367/367/367
f 343/343/343 344/344/344 368/368/368
f 344/344/344 369/369/369 368/368/368
f 344/344/344 345/345/345 369/369/369
f 345/345/345 370/370/370 369/369/369
f 345/345/345 346/346/346 370/370/370
f 346/346/346 371/371/371 370/370/370
f 346/346/346 347/347/347 371/371/371
f 347/347/347 372/372/372 371/371/371
f 347/347/347 348/348/348 372/372/372
f 348/348/348 373/373/373 372/372/372
f 348/348/348 349/349/349 373/373/373
f 349/349/349 374/374/374 373/373/373
f 349/349/349 350/350/350 374/374/374
f 350/350/350 375/375/375 374/374/374
f 351/351/351 352/352/352 376/376/376
f 352/352/352 377/377/377 376/376/376
f 352/352/352 353/353/353 377/377/377
f 353/353/353 378/378/378 377/377/377
f 353/353/353 354/354/354 378/378/378
f 354/354/354 379/379/379 378/378/378
f 354/354/354 355/355/355 379/379/379
f 355/355/355 380/380/380 379/379/379
f 355/355/355 356/356/356 380/380/380
f 356/356/356 381/381/381 380/380/380
f 356/356/356 357/357/357 381/381/381
f 357/357/357 382/382/382 381/381/381
f 357/357/357 358/358/358 382/382/382
f 358/358/358 383/383/383 382/382/382
f 358/358/358 359/359/359 383/383/383
f 359/359/359 384/384/384 383/383/383
f 359/359/359 360/360/360 384/384/384
f 360/360/360 385/385/385 384/384/384
f 360/360/360 361/361/361 385/385/385
f 361/361/361 386/386/386 385/385/385
f 361/361/361 362/362/362 386/386/386
f 362/362/362 387/387/387 386/386/386
f 362/362/362 363/363/363 387/387/387
f 363/363/363 388/388/388 387/387/387
f 363/363/363 364/364/364 388/388/388
f 364/364/364 389/389/389 388/388/388
f 364/364/364 365/365/365 389/389/389
f 365/365/365 390/390/390 389/389/389
f 365/365/365 366/366/366 390/390/390
f 366/366/366 391/391/391 390/390/390
f 366/366/366 367/367/367 391/391/391
f 367/367/367 392/392/392 391/391/391
f 367/367/367 368/368/368 392/392/392
f 368/368/368 393/393/393 392/392/392
f 368/368/368 369/369/369 393/393/393
f 369/369/369 394/394/394 393/393/393
f 369/369/369 370/370/370 394/394/394
f 370/370/370 395/395/395 394/394/394
f 370/370/370 371/371/371 395/395/395
f 371/371/371 396/396/396 395/395/395
f 371/371/371 372/372/372 396/396/396
f 372/372/372 397/397/397 396/396/396
f 372/372/372 373/373/373 397/397/397
f 373/373/373 398/398/398 397/397/397
f 373/373/373 374/374/374 398/398/398
f 374/374/374 399/399/399 398/398/398
f 374/374/374 375/375/375 399/399/399
f 375/375/375 400/400/400 399/399/399
f 376/376/376 377/377/377 401/401/401
f 377/377/377 402/402/402 401/401/401
f 377/377/377 378/378/378 402/402/402
f 378/378/378 403/403/403 402/402/402
f 378/378/378 379/379/379 403/403/403
f 379/379/379 404/404/404 403/403/403
f 379/379/379 380/380/380 404/404/404
f 380/380/380 405/405/405 404/404/404
f 380/380/380 381/381/381 405/405/405
f 381/381/381 406/406/406 405/405/405
f 381/381/381 382/382/382 406/406/406
f 382/382/382 407/407/407 406/406/406
f 382/382/382 383/383/383 407/407/407
f 383/383/383 408/408/408 407/407/407
f 383/383/383 384/384/384 408/408/408
f 384/384/384 409/409/409 408/408/408
f 384/384/384 385/385/385 409/409/409
f 385/385/385 410/410/410 409/409/409
f 385/385/385 386/386/386 410/410/410
f 386/386/386 411/411/411 410/410/410
f 386/386/386 387/387/387 411/411/411
f 387/387/387 412/412/412 411/411/411
f 387/387/387 388/388/388 412/412/412
f 388/388/388 413/413/413 412/412/412
f 388/388/388 389/389/389 413/413/413
f 389/389/389 414/414/414 413/413/413
f 389/389/389 390/390/390 414/414/414
f 390/390/390 415/415/415 414/414/414
f 390/390/390 391/391/391 415/415/415
f 391/391/391 416/416/416 415/415/415
f 391/391/391 392/392/392 416/416/416
f 392/392/392 417/417/417 416/416/416
f 392/392/392 393/393/393 417/417/417
f 393/393/393 418/418/418 417/417/417
f 393/393/393 394/394/394 418/418/418
f 394/394/394 419/419/419 418/418/418
f 394/394/394 395/395/395 419/419/419
f 395/395/395 420/420/420 419/419/419
f 395/395/395 396/396/396 420/420/420
f 396/396/396 421/421/421 420/420/420
f 396/396/396 397/397/397 421/421/421
f 397/397/397 422/422/422 421/421/421
f 397/397/397 398/398/398 422/422/422
f 398/398/398 423/423/423 422/422/422
f 398/398/398 399/399/399 423/423/423
f 399/399/399 424/424/424 423/423/423
f 399/399/399 400/400/400 424/424/424
f 400/400/400 425/425/425 424/424/424
f 401/401/401 402/402/402 426/426/426
f 402/402/402 427/427/427 426/426/426
f 402/402/402 403/403/403 427/427/427
f 403/403/403 428/428/428 427/427/427
f 403/403/403 404/404/404 428/428/428
f 404/404/404 429/429/429 428/428/428
f 404/404/404 405/405/405 429/429/429
f 405/405/405 430/430/430 429/429/429
f 405/405/405 406/406/406 430/430/430
f 406/406/406 431/431/431 430/430/430
f 406/406/406 407/407/407 431/431/431
f 407/407/407 432/432/432 431/431/431
f 407/407/407 408/408/408 432/432/432
f 408/408/408 433/433/433 432/432/432
f 408/408/408 409/409/409 433/433/433
f 409/409/409 434/434/434 433/433/433
f 409/409/409 410/410/410 434/434/434
f 410/410/410 435/435/435 434/434/434
f 410/410/410 411/411/411 435/435/435
f 411/411/411 436/436/436 435/435/435
f 411/411/411 412/412/412 436/436/436
f 412/412/412 437/437/437 436/436/436
f 412/412/412 413/413/413 437/437/437
f 413/413/413 438/438/438 437/437/437
f 413/413/413 414/414/414 438/438/438
f 414/414/414 439/439/439 438/438/438
f 414/414/414 415/415/415 439/439/439
f 415/415/415 440/440/440 439/439/439
f 415/415/415 416/416/416 440/440/440
f 416/416/416 441/441/441 440/440/440
f 416/416/416 417/417/417 441/441/441
f 417/417/417 442/442/442 441/441/441
f 417/417/417 418/418/418 442/442/442
f 418/418/418 443/443/443 442/442/442
f 418/418/418 419/419/419 443/443/443
f 419/419/419 444/444/444 443/443/443
f 419/419/419 420/420/420 444/444/444
f 420/420/420 445/445/445 444/444/444
f 420/420/420 421/421/421 445/445/445
f 421/421/421 446/446/446 445/445/445
f 421/421/421 422/422/422 446/446/446
f 422/422/422 447/447/447 446/446/446
f 422/422/422 423/423/423 447/447/447
f 423/423/423 448/448/448 447/447/447
f 423/423/423 424/424/424 448/448/448
f 424/424/424 449/449/449 448/448/448
f 424/424/424 425/425/425 449/449/449
f 425/425/425 450/450/450 449/449/449
f 426/426/426 427/427/427 451/451/451
f 427/427/427 452/452/452 451/451/451
f 427/427/427 428/428/428 452/452/452
f 428/428/428 453/453/453 452/452/452
f 428/428/428 429/429/429 453/453/453
f 429/429/429 454/454/454 453/453/453
f 429/429/429 430/430/430 454/454/454
f 430/430/430 455/455/455 454/454/454
f 430/430/430 431/431/431 455/455/455
f 431/431/431 456/456/456 455/455/455
f 431/431/431 432/432/432 456/456/456
f 432/432/432 457/457/457 456/456/456
f 432/432/432 433/433/433 457/457/457
f 433/433/433 458/458/458 457/457/457
f 433/433/433 434/434/434 458/458/458
f 434/434/434 459/459/459 458/458/458
f 434/434/434 435/435/435 459/459/459
f 435/435/435 460/460/460 459/459/459
f 435/435/435 436/436/436 460/460/460
f 436/436/436 461/461/461 460/460/460
f 436/436/436 437/437/437 461/461/461
f 437/437/437 462/462/462 461/461/461
f 437/437/437 438/438/438 462/462/462
f 438/438/438 463/463/463 462/462/462
f 438/438/438 439/439/439 463/463/463
f 439/439/439 464/464/464 463/463/463
f 439/439/439 440/440/440 464/464/464
f 440/440/440 465/465/465 464/464/464
f 440/440/440 441/441/441 465/465/465
f 441/441/441 466/466/466 465/465/465
f 441/441/441 442/442/442 466/466/466
f 442/442/442 467/467/467 466/466/466
f 442/442/442 443/443/443 467/467/467
f 443/443/443 468/468/468 467/467/467
f 443/443/443 444/444/444 468/468/468
f 444/444/444 469/469/469 468/468/468
f 444/444/444 445/445/445 469/469/469
f 445/445/445 470/470/470 469/469/469
f 445/445/445 446/446/446 470/470/470
f 446/446/446 471/471/471 470/470/470
f 446/446/446 447/447/447 471/471/471
f 447/447/447 472/472/472 471/471/471
f 447/447/447 448/448/448 472/472/472
f 448/448/448 473/473/473 472/472/472
f 448/448/448 449/449/449 473/473/473
f 449/449/449 474/474/474 473/473/473
f 449/449/449 450/450/450 474/474/474
f 450/450/450 475/475/475 474/474/474
f 451/451/451 452/452/452 476/476/476
f 452/452/452 477/477/477 476/476/476
f 452/452/452 453/453/453 477/477/477
f 453/453/453 478/478/478 477/477/477
f 453/453/453 454/454/454 478/478/478
f 454/454/454 479/479/479 478/478/478
f 454/454/454 455/455/455 479/479/479
f 455/455/455 480/480/480 479/479/479
f 455/455/455 456/456/456 480/480/480
f 456/456/456 481/481/481 480/480/480
f 456/456/456 457/457/457 481/481/481
f 457/457/457 482/482/482 481/481/481
f 457/457/457 458/458/458 482/482/482
f 458/458/458 483/483/483 482/482/482
f 458/458/458 459/459/459 483/483/483
f 459/459/459 484/484/484 483/483/483
f 459/459/459 460/460/460 484/484/484
f 460/460/460 485/485/485 484/484/484
f 460/460/460 461/461/461 485/485/485
f 461/461/461 486/486/486 485/485/485
f 461/461/461 462/462/462 486/486/486
f 462/462/462 487/487/487 486/486/486
f 462/462/462 463/463/463 487/487/487
f 463/463/463 488/488/488 487/487/487
f 463/463/463 464/464/464 488/488/488
f 464/464/464 489/489/489 488/488/488
f 464/464/464 465/465/465 489/489/489
f 465/465/465 490/490/490 489/489/489
f 465/465/465 466/466/466 490/490/490
f 466/466/466 491/491/491 490/490/490
f 466/466/466 467/467/467 491/491/491
f 467/467/467 492/492/492 491/491/491
f 467/467/467 468/468/468 492/492/492
f 468/468/468 493/493/493 492/492/492
f 468/468/468 469/469/469 493/493/493
f 469/469/469 494/494/494 493/493/493
f 469/469/469 470/470/470 494/494/494
f 470/470/470 495/495/495 494/494/494
f 470/470/470 471/471/471 495/495/495
f 471/471/471 496/496/496 495/495/495
f 471/471/471 472/472/472 496/496/496
f 472/472/472 497/497/497 496/496/496
f 472/472/472 473/473/473 497/497/497
f 473/473/473 498/498/498 497/497/497
f 473/473/473 474/474/474 498/498/498
f 474/474/474 499/499/499 498/498/498
f 474/474/474 475/475/475 499/499/499
f 475/475/475 500/500/500 499/499/499
o part_1
v -0.4200 2.1800 0.0000
v -0.4200 2.1800 0.0000
v -0.4200 2.1800 0.0000
v -0.4200 2.1800 0.0000
v -0.4200 2.1800 0.0000
v -0.4200 2.1800 0.0000
v -0.4200 2.1800 0.0000
v -0.4200 2.1800 -0.0000
v -0.4200 2.1800 -0.0000
v -0.4200 2.1800 -0.0000
v -0.4200 2.1800 -0.0000
v -0.4200 2.1800 -0.0000
v -0.4200 2.1800 -0.0000
v -0.3000 2.1800 0.0000
v -0.3161 2.1800 0.0600
v -0.3600 2.1800 0.1039
v -0.4200 2.1800 0.1200
v -0.4800 2.1800 0.1039
v -0.5239 2.1800 0.0600
v -0.5400 2.1800 0.0000
v -0.5239 2.1800 -0.0600
v -0.4800 2.1800 -0.1039
v -0.4200 2.1800 -0.1200
v -0.3600 2.1800 -0.1039
v -0.3161 2.1800 -0.0600
v -0.3000 2.1800 -0.0000
v -0.2900 2.1000 0.0000
v -0.3074 2.1000 0.0650
v -0.3550 2.1000 0.1126
v -0.4200 2.1000 0.1300
v -0.4850 2.1000 0.1126
v -0.5326 2.1000 0.0650
v -0.5500 2.1000 0.0000
v -0.5326 2.1000 -0.0650
v -0.4850 2.1000 -0.1126
v -0.4200 2.1000 -0.1300
v -0.3550 2.1000 -0.1126
v -0.3074 2.1000 -0.0650
v -0.2900 2.1000 -0.0000
v -0.3100 1.8500 0.0000
v -0.3247 1.8500 0.0550
v -0.3650 1.8500 0.0953
v -0.4200 1.8500 0.1100
v -0.4750 1.8500 0.0953
v -0.5153 1.8500 0.0550
v -0.5300 1.8500 0.0000
v -0.5153 1.8500 -0.0550
v -0.4750 1.8500 -0.0953
v -0.4200 1.8500 -0.1100
v -0.3650 1.8500 -0.0953
v -0.3247 1.8500 -0.0550
v -0.3100 1.8500 -0.0000
v -0.3200 1.5500 0.0000
v -0.3334 1.5500 0.0500
v -0.3700 1.5500 0.0866
v -0.4200 1.5500 0.1000
v -0.4700 1.5500 0.0866
v -0.5066 1.5500 0.0500
v -0.5200 1.5500 0.0000
v -0.5066 1.5500 -0.0500
v -0.4700 1.5500 -0.0866
v -0.4200 1.5500 -0.1000
v -0.3700 1.5500 -0.0866
v -0.3334 1.5500 -0.0500
v -0.3200 1.5500 -0.0000
v -0.3300 1.2500 0.0000
v -0.3421 1.2500 0.0450
v -0.3750 1.2500 0.0779
v -0.4200 1.2500 0.0900
v -0.4650 1.2500 0.0779
v -0.4979 1.2500 0.0450
v -0.5100 1.2500 0.0000
v -0.4979 1.2500 -0.0450
v -0.4650 1.2500 -0.0779
v -0.4200 1.2500 -0.0900
v -0.3750 1.2500 -0.0779
v -0.3421 1.2500 -0.0450
v -0.3300 1.2500 -0.0000
v -0.3200 1.0500 0.0000
v -0.3334 1.0500 0.0500
v -0.3700 1.0500 0.0866
v -0.4200 1.0500 0.1000
v -0.4700 1.0500 0.0866
v -0.5066 1.0500 0.0500
v -0.5200 1.0500 0.0000
v -0.5066 1.0500 -0.0500
v -0.4700 1.0500 -0.0866
v -0.4200 1.0500 -0.1000
v -0.3700 1.0500 -0.0866
v -0.3334 1.0500 -0.0500
v -0.3200 1.0500 -0.0000
v -0.2900 0.9500 0.0000
v -0.3074 0.9500 0.0650
v -0.3550 0.9500 0.1126
v -0.4200 0.9500 0.1300
v -0.4850 0.9500 0.1126
v -0.5326 0.9500 0.0650
v -0.5500 0.9500 0.0000
v -0.5326 0.9500 -0.0650
v -0.4850 0.9500 -0.1126
v -0.4200 0.9500 -0.1300
v -0.3550 0.9500 -0.1126
v -0.3074 0.9500 -0.0650
v -0.2900 0.9500 -0.0000
v -0.4200 0.9000 0.0000
v -0.4200 0.9000 0.0000
v -0.4200 0.9000 0.0000
v -0.4200 0.9000 0.0000
v -0.4200 0.9000 0.0000
v -0.4200 0.9000 0.0000
v -0.4200 0.9000 0.0000
v -0.4200 0.9000 -0.0000
v -0.4200 0.9000 -0.0000
v -0.4200 0.9000 -0.0000
v -0.4200 0.9000 -0.0000
v -0.4200 0.9000 -0.0000
v -0.4200 0.9000 -0.0000
vt 0.0000 0.0000
vt 0.0833 0.0000
vt 0.1667 0.0000
vt 0.2500 0.0000
vt 0.3333 0.0000
vt 0.4167 0.0000
vt 0.5000 0.0000
vt 0.5833 0.0000
vt 0.6667 0.0000
vt 0.7500 0.0000
vt 0.8333 0.0000
vt 0.9167 0.0000
vt 1.0000 0.0000
vt 0.0000 0.1250
vt 0.0833 0.1250
vt 0.1667 0.1250
vt 0.2500 0.1250
vt 0.3333 0.1250
vt 0.4167 0.1250
vt 0.5000 0.1250
vt 0.5833 0.1250
vt 0.6667 0.1250
vt 0.7500 0.1250
vt 0.8333 0.1250
vt 0.9167 0.1250
vt 1.0000 0.1250
vt 0.0000 0.2500
vt 0.0833 0.2500
vt 0.1667 0.2500
vt 0.2500 0.2500
vt 0.3333 0.2500
vt 0.4167 0.2500
vt 0.5000 0.2500
vt 0.5833 0.2500
vt 0.6667 0.2500
vt 0.7500 0.2500
vt 0.8333 0.2500
vt 0.9167 0.2500
vt 1.0000 0.2500
vt 0.0000 0.3750
vt 0.0833 0.3750
vt 0.1667 0.3750
vt 0.2500 0.3750
vt 0.3333 0.3750
vt 0.4167 0.3750
vt 0.5000 0.3750
vt 0.5833 0.3750
vt 0.6667 0.3750
vt 0.7500 0.3750
vt 0.8333 0.3750
vt 0.9167 0.3750
vt 1.0000 0.3750
vt 0.0000 0.5000
vt 0.0833 0.5000
vt 0.1667 0.5000
vt 0.2500 0.5000
vt 0.3333 0.5000
vt 0.4167 0.5000
vt 0.5000 0.5000
vt 0.5833 0.5000
vt 0.6667 0.5000
vt 0.7500 0.5000
vt 0.8333 0.5000
vt 0.9167 0.5000
vt 1.0000 0.5000
vt 0.0000 0.6250
vt 0.0833 0.6250
vt 0.1667 0.6250
vt 0.2500 0.6250
vt 0.3333 0.6250
vt 0.4167 0.6250
vt 0.5000 0.6250
vt 0.5833 0.6250
vt 0.6667 0.6250
vt 0.7500 0.6250
vt 0.8333 0.6250
vt 0.9167 0.6250
vt 1.0000 0.6250
vt 0.0000 0.7500
vt 0.0833 0.7500
vt 0.1667 0.7500
vt 0.2500 0.7500
vt 0.3333 0.7500
vt 0.4167 0.7500
vt 0.5000 0.7500
vt 0.5833 0.7500
vt 0.6667 0.7500
vt 0.7500 0.7500
vt 0.8333 0.7500
vt 0.9167 0.7500
vt 1.0000 0.7500
vt 0.0000 0.8750
vt 0.0833 0.8750
vt 0.1667 0.8750
vt 0.2500 0.8750
vt 0.3333 0.8750
vt 0.4167 0.8750
vt 0.5000 0.8750
vt 0.5833 0.8750
vt 0.6667 0.8750
vt 0.7500 0.8750
vt 0.8333 0.8750
vt 0.9167 0.8750
vt 1.0000 0.8750
vt 0.0000 1.0000
vt 0.0833 1.0000
vt 0.1667 1.0000
vt 0.2500 1.0000
vt 0.3333 1.0000
vt 0.4167 1.0000
vt 0.5000 1.0000
vt 0.5833 1.0000
vt 0.6667 1.0000
vt 0.7500 1.0000
vt 0.8333 1.0000
vt 0.9167 1.0000
vt 1.0000 1.0000
vn -1.0000 0.0000 0.0000
vn -0.8660 0.0000 0.5000
vn -0.5000 0.0000 0.8660
vn -0.0000 0.0000 1.0000
vn 0.5000 0.0000 0.8660
vn 0.8660 0.0000 0.5000
vn 1.0000 0.0000 0.0000
vn 0.8660 0.0000 -0.5000
vn 0.5000 0.0000 -0.8660
vn 0.0000 0.0000 -1.0000
vn -0.5000 0.0000 -0.8660
vn -0.8660 0.0000 -0.5000
vn -1.0000 0.0000 -0.0000
vn -1.0000 0.0000 0.0000
vn -0.8660 0.0000 0.5000
vn -0.5000 0.0000 0.8660
vn -0.0000 0.0000 1.0000
vn 0.5000 0.0000 0.8660
vn 0.8660 0.0000 0.5000
vn 1.0000 0.0000 0.0000
vn 0.8660 0.0000 -0.5000
vn 0.5000 0.0000 -0.8660
vn 0.0000 0.0000 -1.0000
vn -0.5000 0.0000 -0.8660
vn -0.8660 0.0000 -0.5000
vn -1.0000 0.0000 -0.0000
vn -1.0000 0.0000 0.0000
vn -0.8660 0.0000 0.5000
vn -0.5000 0.0000 0.8660
vn -0.0000 0.0000 1.0000
vn 0.5000 0.0000 0.8660
vn 0.8660 0.0000 0.5000
vn 1.0000 0.0000 0.0000
vn 0.8660 0.0000 -0.5000
vn 0.5000 0.0000 -0.8660
vn 0.0000 0.0000 -1.0000
vn -0.5000 0.0000 -0.8660
vn -0.8660 0.0000 -0.5000
vn -1.0000 0.0000 -0.0000
vn -1.0000 0.0000 0.0000
vn -0.8660 0.0000 0.5000
vn -0.5000 0.0000 0.8660
vn -0.0000 0.0000 1.0000
vn 0.5000 0.0000 0.8660
vn 0.8660 0.0000 0.5000
vn 1.0000 0.0000 0.0000
vn 0.8660 0.0000 -0.5000
vn 0.5000 0.0000 -0.8660
vn 0.0000 0.0000 -1.0000
vn -0.5000 0.0000 -0.8660
vn -0.8660 0.0000 -0.5000
vn -1.0000 0.0000 -0.0000
vn -1.0000 0.0000 0.0000
vn -0.8660 0.0000 0.5000
vn -0.5000 0.0000 0.8660
vn -0.0000 0.0000 1.0000
vn 0.5000 0.0000 0.8660
vn 0.8660 0.0000 0.5000
vn 1.0000 0.0000 0.0000
vn 0.8660 0.0000 -0.5000
vn 0.5000 0.0000 -0.8660
vn 0.0000 0.0000 -1.0000
vn -0.5000 0.0000 -0.8660
vn -0.8660 0.0000 -0.5000
vn -1.0000 0.0000 -0.0000
vn -1.0000 0.0000 0.0000
vn -0.8660 0.0000 0.5000
vn -0.5000 0.0000 0.8660
vn -0.0000 0.0000 1.0000
vn 0.5000 0.0000 0.8660
vn 0.8660 0.0000 0.5000
vn 1.0000 0.0000 0.0000
vn 0.8660 0.0000 -0.5000
vn 0.5000 0.0000 -0.8660
vn 0.0000 0.0000 -1.0000
vn -0.5000 0.0000 -0.8660
vn -0.8660 0.0000 -0.5000
vn -1.0000 0.0000 -0.0000
vn -1.0000 0.0000 0.0000
vn -0.8660 0.0000 0.5000
vn -0.5000 0.0000 0.8660
vn -0.0000 0.0000 1.0000
vn 0.5000 0.0000 0.8660
vn 0.8660 0.0000 0.5000
vn 1.0000 0.0000 0.0000
vn 0.8660 0.0000 -0.5000
vn 0.5000 0.0000 -0.8660
vn 0.0000 0.0000 -1.0000
vn -0.5000 0.0000 -0.8660
vn -0.8660 0.0000 -0.5000
vn -1.0000 0.0000 -0.0000
vn -1.0000 0.0000 0.0000
vn -0.8660 0.0000 0.5000
vn -0.5000 0.0000 0.8660
vn -0.0000 0.0000 1.0000
vn 0.5000 0.0000 0.8660
vn 0.8660 0.0000 0.5000
vn 1.0000 0.0000 0.0000
vn 0.8660 0.0000 -0.5000
vn 0.5000 0.0000 -0.8660
vn 0.0000 0.0000 -1.0000
vn -0.5000 0.0000 -0.8660
vn -0.8660 0.0000 -0.5000
vn -1.0000 0.0000 -0.0000
vn -1.0000 0.0000 0.0000
vn -0.8660 0.0000 0.5000
vn -0.5000 0.0000 0.8660
vn -0.0000 0.0000 1.0000
vn 0.5000 0.0000 0.8660
vn 0.8660 0.0000 0.5000
vn 1.0000 0.0000 0.0000
vn 0.8660 0.0000 -0.5000
vn 0.5000 0.0000 -0.8660
vn 0.0000 0.0000 -1.0000
vn -0.5000 0.0000 -0.8660
vn -0.8660 0.0000 -0.5000
vn -1.0000 0.0000 -0.0000
f 501/501/501 502/502/502 514/514/514
f 502/502/502 515/515/515 514/514/514
f 502/502/502 503/503/503 515/515/515
f 503/503/503 516/516/516 515/515/515
f 503/503/503 504/504/504 516/516/516
f 504/504/504 517/517/517 516/516/516
f 504/504/504 505/505/505 517/517/517
f 505/505/505 518/518/518 517/517/517
f 505/505/505 506/506/506 518/518/518
f 506/506/506 519/519/519 518/518/518
f 506/506/506 507/507/507 519/519/519
f 507/507/507 520/520/520 519/519/519
f 507/507/507 508/508/508 520/520/520
f 508/508/508 521/521/521 520/520/520
f 508/508/508 509/509/509 521/521/521
f 509/509/509 522/522/522 521/521/521
f 509/509/509 510/510/510 522/522/522
f 510/510/510 523/523/523 522/522/522
f 510/510/510 511/511/511 523/523/523
f 511/511/511 524/524/524 523/523/523
f 511/511/511 512/512/512 524/524/524
f 512/512/512 525/525/525 524/524/524
f 512/512/512 513/513/513 525/525/525
f 513/513/513 526/526/526 525/525/525
f 514/514/514 515/515/515 527/527/527
f 515/515/515 528/528/528 527/527/527
f 515/515/515 516/516/516 528/528/528
f 516/516/516 529/529/529 528/528/528
f 516/516/516 517/517/517 529/529/529
f 517/517/517 530/530/530 529/529/529
f 517/517/517 518/518/518 530/530/530
f 518/518/518 531/531/531 530/530/530
f 518/518/518 519/519/519 531/531/531
f 519/519/519 532/532/532 531/531/531
f 519/519/519 520/520/520 532/532/532
f 520/520/520 533/533/533 532/532/532
f 520/520/520 521/521/521 533/533/533
f 521/521/521 534/534/534 533/533/533
f 521/521/521 522/522/522 534/534/534
f 522/522/522 535/535/535 534/534/534
f 522/522/522 523/523/523 535/535/535
f 523/523/523 536/536/536 535/535/535
f 523/523/523 524/524/524 536/536/536
f 524/524/524 537/537/537 536/536/536
f 524/524/524 525/525/525 537/537/537
f 525/525/525 538/538/538 537/537/537
f 525/525/525 526/526/526 538/538/538
f 526/526/526 539/539/539 538/538/538
f 527/527/527 528/528/528 540/540/540
f 528/528/528 541/541/541 540/540/540
f 528/528/528 529/529/529 541/541/541
f 529/529/529 542/542/542 541/541/541
f 529/529/529 530/530/530 542/542/542
f 530/530/530 543/543/543 542/542/542
f 530/530/530 531/531/531 543/543/543
f 531/531/531 544/544/544 543/543/543
f 531/531/531 532/532/532 544/544/544
f 532/532/532 545/545/545 544/544/544
f 532/532/532 533/533/533 545/545/545
f 533/533/533 546/546/546 545/545/545
f 533/533/533 534/534/534 546/546/546
f 534/534/534 547/547/547 546/546/546
f 534/534/534 535/535/535 547/547/547
f 535/535/535 548/548/548 547/547/547
f 535/535/535 536/536/536 548/548/548
f 536/536/536 549/549/549 548/548/548
f 536/536/536 537/537/537 549/549/549
f 537/537/537 550/550/550 549/549/549
f 537/537/537 538/538/538 550/550/550
f 538/538/538 551/551/551 550/550/550
f 538/538/538 539/539/539 551/551/551
f 539/539/539 552/552/552 551/551/551
f 540/540/540 541/541/541 553/553/553
f 541/541/541 554/554/554 553/553/553
f 541/541/541 542/542/542 554/554/554
f 542/542/542 555/555/555 554/554/554
f 542/542/542 543/543/543 555/555/555
f 543/543/543 556/556/556 555/555/555
f 543/543/543 544/544/544 556/556/556
f 544/544/544 557/557/557 556/556/556
f 544/544/544 545/545/545 557/557/557
f 545/545/545 558/558/558 557/557/557
f 545/545/545 546/546/546 558/558/558
f 546/546/546 559/559/559 558/558/558
f 546/546/546 547/547/547 559/559/559
f 547/547/547 560/560/560 559/559/559
f 547/547/547 548/548/548 560/560/560
f 548/548/548 561/561/561 560/560/560
f 548/548/548 549/549/549 561/561/561
f 549/549/549 562/562/562 561/561/561
f 549/549/549 550/550/550 562/562/562
f 550/550/550 563/563/563 562/562/562
f 550/550/550 551/551/551 563/563/563
f 551/551/551 564/564/564 563/563/563
f 551/551/551 552/552/552 564/564/564
f 552/552/552 565/565/565 564/564/564
f 553/553/553 554/554/554 566/566/566
f 554/554/554 567/567/567 566/566/566
f 554/554/554 555/555/555 567/567/567
f 555/555/555 568/568/568 567/567/567
f 555/555/555 556/556/556 568/568/568
f 556/556/556 569/569/569 568/568/568
f 556/556/556 557/557/557 569/569/569
f 557/557/557 570/570/570 569/569/569
f 557/557/557 558/558/558 570/570/570
f 558/558/558 571/571/571 570/570/570
f 558/558/558 559/559/559 571/571/571
f 559/559/559 572/572/572 571/571/571
f 559/559/559 560/560/560 572/572/572
f 560/560/560 573/573/573 572/572/572
f 560/560/560 561/561/561 573/573/573
f 561/561/561 574/574/574 573/573/573
f 561/561/561 562/562/562 574/574/574
f 562/562/562 575/575/575 574/574/574
f 562/562/562 563/563/563 575/575/575
f 563/563/563 576/576/576 575/575/575
f 563/563/563 564/564/564 576/576/576
f 564/564/564 577/577/577 576/576/576
f 564/564/564 565/565/565 577/577/577
f 565/565/565 578/578/578 577/577/577
f 566/566/566 567/567/567 579/579/579
f 567/567/567 580/580/580 579/579/579
f 567/567/567 568/568/568 580/580/580
f 568/568/568 581/581/581 580/580/580
f 568/568/568 569/569/569 581/581/581
f 569/569/569 582/582/582 581/581/581
f 569/569/569 570/570/570 582/582/582
f 570/570/570 583/583/583 582/582/582
f 570/570/570 571/571/571 583/583/583
f 571/571/571 584/584/584 583/583/583
f 571/571/571 572/572/572 584/584/584
f 572/572/572 585/585/585 584/584/584
f 572/572/572 573/573/573 585/585/585
f 573/573/573 586/586/586 585/585/585
f 573/573/573 574/574/574 586/586/586
f 574/574/574 587/587/587 586/586/586
f 574/574/574 575/575/575 587/587/587
f 575/575/575 588/588/588 587/587/587
f 575/575/575 576/576/576 588/588/588
f 576/576/576 589/589/589 588/588/588
f 576/576/576 577/577/577 589/589/589
f 577/577/577 590/590/590 589/589/589
f 577/577/577 578/578/578 590/590/590
f 578/578/578 591/591/591 590/590/590
f 579/579/579 580/580/580 592/592/592
f 580/580/580 593/593/593 592/592/592
f 580/580/580 581/581/581 593/593/593
f 581/581/581 594/594/594 593/593/593
f 581/581/581 582/582/582 594/594/594
f 582/582/582 595/595/595 594/594/594
f 582/582/582 583/583/583 595/595/595
f 583/583/583 596/596/596 595/595/595
f 583/583/583 584/584/584 596/596/596
f 584/584/584 597/597/597 596/596/596
f 584/584/584 585/585/585 597/597/597
f 585/585/585 598/598/598 597/597/597
f 585/585/585 586/586/586 598/598/598
f 586/586/586 599/599/599 598/598/598
f 586/586/586 587/587/587 599/599/599
f 587/587/587 600/600/600 599/599/599
f 587/587/587 588/588/588 600/600/600
f 588/588/588 601/601/601 600/600/600
f 588/588/588 589/589/589 601/601/601
f 589/589/589 602/602/602 601/601/601
f 589/589/589 590/590/590 602/602/602
f 590/590/590 603/603/603 602/602/602
f 590/590/590 591/591/591 603/603/603
f 591/591/591 604/604/604 603/603/603
f 592/592/592 593/593/593 605/605/605
f 593/593/593 606/606/606 605/605/605
f 593/593/593 594/594/594 606/606/606
f 594/594/594 607/607/607 606/606/606
f 594/594/594 595/595/595 607/607/607
f 595/595/595 608/608/608 607/607/607
f 595/595/595 596/596/596 608/608/608
f 596/596/596 609/609/609 608/608/608
f 596/596/596 597/597/597 609/609/609
f 597/597/597 610/610/610 609/609/609
f 597/597/597 598/598/598 610/610/610
f 598/598/598 611/611/611 610/610/610
f 598/598/598 599/599/599 611/611/611
f 599/599/599 612/612/612 611/611/611
f 599/599/599 600/600/600 612/612/612
f 600/600/600 613/613/613 612/612/612
f 600/600/600 601/601/601 613/613/613
f 601/601/601 614/614/614 613/613/613
f 601/601/601 602/602/602 614/614/614
f 602/602/602 615/615/615 614/614/614
f 602/602/602 603/603/603 615/615/615
f 603/603/603 616/616/616 615/615/615
f 603/603/603 604/604/604 616/616/616
f 604/604/604 617/617/617 616/616/616
o part_2
v 0.4200 2.1800 0.0000
v 0.4200 2.1800 0.0000
v 0.4200 2.1800 0.0000
v 0.4200 2.1800 0.0000
v 0.4200 2.1800 0.0000
v 0.4200 2.1800 0.0000
v 0.4200 2.1800 0.0000
v 0.4200 2.1800 -0.0000
v 0.4200 2.1800 -0.0000
v 0.4200 2.1800 -0.0000
v 0.4200 2.1800 -0.0000
v 0.4200 2.1800 -0.0000
v 0.4200 2.1800 -0.0000
v 0.5400 2.1800 0.0000
v 0.5239 2.1800 0.0600
v 0.4800 2.1800 0.1039
v 0.4200 2.1800 0.1200
v 0.3600 2.1800 0.1039
v 0.3161 2.1800 0.0600
v 0.3000 2.1800 0.0000
v 0.3161 2.1800 -0.0600
v 0.3600 2.1800 -0.1039
v 0.4200 2.1800 -0.1200
v 0.4800 2.1800 -0.1039
v 0.5239 2.1800 -0.0600
v 0.5400 2.1800 -0.0000
v 0.5500 2.1000 0.0000
v 0.5326 2.1000 0.0650
v 0.4850 2.1000 0.1126
v 0.4200 2.1000 0.1300
v 0.3550 2.1000 0.1126
v 0.3074 2.1000 0.0650
v 0.2900 2.1000 0.0000
v 0.3074 2.1000 -0.0650
v 0.3550 2.1000 -0.1126
v 0.4200 2.1000 -0.1300
v 0.4850 2.1000 -0.1126
v 0.5326 2.1000 -0.0650
v 0.5500 2.1000 -0.0000
v 0.5300 1.8500 0.0000
v 0.5153 1.8500 0.0550
v 0.4750 1.8500 0.0953
v 0.4200 1.8500 0.1100
v 0.3650 1.8500 0.0953
v 0.3247 1.8500 0.0550
v 0.3100 1.8500 0.0000
v 0.3247 1.8500 -0.0550
v 0.3650 1.8500 -0.0953
v 0.4200 1.8500 -0.1100
v 0.4750 1.8500 -0.0953
v 0.5153 1.8500 -0.0550
v 0.5300 1.8500 -0.0000
v 0.5200 1.5500 0.0000
v 0.5066 1.5500 0.0500
v 0.4700 1.5500 0.0866
v 0.4200 1.5500 0.1000
v 0.3700 1.5500 0.0866
v 0.3334 1.5500 0.0500
v 0.3200 1.5500 0.0000
v 0.3334 1.5500 -0.0500
v 0.3700 1.5500 -0.0866
v 0.4200 1.5500 -0.1000
v 0.4700 1.5500 -0.0866
v 0.5066 1.5500 -0.0500
v 0.5200 1.5500 -0.0000
v 0.5100 1.2500 0.0000
v 0.4979 1.2500 0.0450
v 0.4650 1.2500 0.0779
v 0.4200 1.2500 0.0900
v 0.3750 1.2500 0.0779
v 0.3421 1.2500 0.0450
v 0.3300 1.2500 0.0000
v 0.3421 1.2500 -0.0450
v 0.3750 1.2500 -0.0779
v 0.4200 1.2500 -0.0900
v 0.4650 1.2500 -0.0779
v 0.4979 1.2500 -0.0450
v 0.5100 1.2500 -0.0000
v 0.5200 1.0500 0.0000
v 0.5066 1.0500 0.0500
v 0.4700 1.0500 0.0866
v 0.4200 1.0500 0.1000
v 0.3700 1.0500 0.0866
v 0.3334 1.0500 0.0500
v 0.3200 1.0500 0.0000
v 0.3334 1.0500 -0.0500
v 0.3700 1.0500 -0.0866
v 0.4200 1.0500 -0.1000
v 0.4700 1.0500 -0.0866
v 0.5066 1.0500 -0.0500
v 0.5200 1.0500 -0.0000
v 0.5500 0.9500 0.0000
v 0.5326 0.9500 0.0650
v 0.4850 0.9500 0.1126
v 0.4200 0.9500 0.1300
v 0.3550 0.9500 0.1126
v 0.3074 0.9500 0.0650
v 0.2900 0.9500 0.0000
v 0.3074 0.9500 -0.0650
v 0.3550 0.9500 -0.1126
v 0.4200 0.9500 -0.1300
v 0.4850 0.9500 -0.1126
v 0.5326 0.9500 -0.0650
v 0.5500 0.9500 -0.0000
v 0.4200 0.9000 0.0000
v 0.4200 0.9000 0.0000
v 0.4200 0.9000 0.0000
v 0.4200 0.9000 0.0000
v 0.4200 0.9000 0.0000
v 0.4200 0.9000 0.0000
v 0.4200 0.9000 0.0000
v 0.4200 0.9000 -0.0000
v 0.4200 0.9000 -0.0000
v 0.4200 0.9000 -0.0000
v 0.4200 0.9000 -0.0000
v 0.4200 0.9000 -0.0000
v 0.4200 0.9000 -0.0000
vt 0.0000 0.0000
vt 0.0833 0.0000
vt 0.1667 0.0000
vt 0.2500 0.0000
vt 0.3333 0.0000
vt 0.4167 0.0000
vt 0.5000 0.0000
vt 0.5833 0.0000
vt 0.6667 0.0000
vt 0.7500 0.0000
vt 0.8333 0.0000
vt 0.9167 0.0000
vt 1.0000 0.0000
vt 0.0000 0.1250
vt 0.0833 0.1250
vt 0.1667 0.1250
vt 0.2500 0.1250
vt 0.3333 0.1250
vt 0.4167 0.1250
vt 0.5000 0.1250
vt 0.5833 0.1250
vt 0.6667 0.1250
vt 0.7500 0.1250
vt 0.8333 0.1250
vt 0.9167 0.1250
vt 1.0000 0.1250
vt 0.0000 0.2500
vt 0.0833 0.2500
vt 0.1667 0.2500
vt 0.2500 0.2500
vt 0.3333 0.2500
vt 0.4167 0.2500
vt 0.5000 0.2500
vt 0.5833 0.2500
vt 0.6667 0.2500
vt 0.7500 0.2500
vt 0.8333 0.2500
vt 0.9167 0.2500
vt 1.0000 0.2500
vt 0.0000 0.3750
vt 0.0833 0.3750
vt 0.1667 0.3750
vt 0.2500 0.3750
vt 0.3333 0.3750
vt 0.4167 0.3750
vt 0.5000 0.3750
vt 0.5833 0.3750
vt 0.6667 0.3750
vt 0.7500 0.3750
vt 0.8333 0.3750
vt 0.9167 0.3750
vt 1.0000 0.3750
vt 0.0000 0.5000
vt 0.0833 0.5000
vt 0.1667 0.5000
vt 0.2500 0.5000
vt 0.3333 0.5000
vt 0.4167 0.5000
vt 0.5000 0.5000
vt 0.5833 0.5000
vt 0.6667 0.5000
vt 0.7500 0.5000
vt 0.8333 0.5000
vt 0.9167 0.5000
vt 1.0000 0.5000
vt 0.0000 0.6250
vt 0.0833 0.6250
vt 0.1667 0.6250
vt 0.2500 0.6250
vt 0.3333 0.6250
vt 0.4167 0.6250
vt 0.5000 0.6250
vt 0.5833 0.6250
vt 0.6667 0.6250
vt 0.7500 0.6250
vt 0.8333 0.6250
vt 0.9167 0.6250
vt 1.0000 0.6250
vt 0.0000 0.7500
vt 0.0833 0.7500
vt 0.1667 0.7500
vt 0.2500 0.7500
vt 0.3333 0.7500
vt 0.4167 0.7500
vt 0.5000 0.7500
vt 0.5833 0.7500
vt 0.6667 0.7500
vt 0.7500 0.7500
vt 0.8333 0.7500
vt 0.9167 0.7500
vt 1.0000 0.7500
vt 0.0000 0.8750
vt 0.0833 0.8750
vt 0.1667 0.8750
vt 0.2500 0.8750
vt 0.3333 0.8750
vt 0.4167 0.8750
vt 0.5000 0.8750
vt 0.5833 0.8750
vt 0.6667 0.8750
vt 0.7500 0.8750
vt 0.8333 0.8750
vt 0.9167 0.8750
vt 1.0000 0.8750
vt 0.0000 1.0000
vt 0.0833 1.0000
vt 0.1667 1.0000
vt 0.2500 1.0000
vt 0.3333 1.0000
vt 0.4167 1.0000
vt 0.5000 1.0000
vt 0.5833 1.0000
vt 0.6667 1.0000
vt 0.7500 1.0000
vt 0.8333 1.0000
vt 0.9167 1.0000
vt 1.0000 1.0000
vn 1.0000 0.0000 0.0000
vn 0.8660 0.0000 0.5000
vn 0.5000 0.0000 0.8660
vn 0.0000 0.0000 1.0000
vn -0.5000 0.0000 0.8660
vn -0.8660 0.0000 0.5000
vn -1.0000 0.0000 0.0000
vn -0.8660 0.0000 -0.5000
vn -0.5000 0.0000 -0.8660
vn -0.0000 0.0000 -1.0000
vn 0.5000 0.0000 -0.8660
vn 0.8660 0.0000 -0.5000
vn 1.0000 0.0000 -0.0000
vn 1.0000 0.0000 0.0000
vn 0.8660 0.0000 0.5000
vn 0.5000 0.0000 0.8660
vn 0.0000 0.0000 1.0000
vn -0.5000 0.0000 0.8660
vn -0.8660 0.0000 0.5000
vn -1.0000 0.0000 0.0000
vn -0.8660 0.0000 -0.5000
vn -0.5000 0.0000 -0.8660
vn -0.0000 0.0000 -1.0000
vn 0.5000 0.0000 -0.8660
vn 0.8660 0.0000 -0.5000
vn 1.0000 0.0000 -0.0000
vn 1.0000 0.0000 0.0000
vn 0.8660 0.0000 0.5000
vn 0.5000 0.0000 0.8660
vn 0.0000 0.0000 1.0000
vn -0.5000 0.0000 0.8660
vn -0.8660 0.0000 0.5000
vn -1.0000 0.0000 0.0000
vn -0.8660 0.0000 -0.5000
vn -0.5000 0.0000 -0.8660
vn -0.0000 0.0000 -1.0000
vn 0.5000 0.0000 -0.8660
vn 0.8660 0.0000 -0.5000
vn 1.0000 0.0000 -0.0000
vn 1.0000 0.0000 0.0000
vn 0.8660 0.0000 0.5000
vn 0.5000 0.0000 0.8660
vn 0.0000 0.0000 1.0000
vn -0.5000 0.0000 0.8660
vn -0.8660 0.0000 0.5000
vn -1.0000 0.0000 0.0000
vn -0.8660 0.0000 -0.5000
vn -0.5000 0.0000 -0.8660
vn -0.0000 0.0000 -1.0000
vn 0.5000 0.0000 -0.8660
vn 0.8660 0.0000 -0.5000
vn 1.0000 0.0000 -0.0000
vn 1.0000 0.0000 0.0000
vn 0.8660 0.0000 0.5000
vn 0.5000 0.0000 0.8660
vn 0.0000 0.0000 1.0000
vn -0.5000 0.0000 0.8660
vn -0.8660 0.0000 0.5000
vn -1.0000 0.0000 0.0000
vn -0.8660 0.0000 -0.5000
vn -0.5000 0.0000 -0.8660
vn -0.0000 0.0000 -1.0000
vn 0.5000 0.0000 -0.8660
vn 0.8660 0.0000 -0.5000
vn 1.0000 0.0000 -0.0000
vn 1.0000 0.0000 0.0000
vn 0.8660 0.0000 0.5000
vn 0.5000 0.0000 0.8660
vn 0.0000 0.0000 1.0000
vn -0.5000 0.0000 0.8660
vn -0.8660 0.0000 0.5000
vn -1.0000 0.0000 0.0000
vn -0.8660 0.0000 -0.5000
vn -0.5000 0.0000 -0.8660
vn -0.0000 0.0000 -1.0000
vn 0.5000 0.0000 -0.8660
vn 0.8660 0.0000 -0.5000
vn 1.0000 0.0000 -0.0000
vn 1.0000 0.0000 0.0000
vn 0.8660 0.0000 0.5000
vn 0.5000 0.0000 0.8660
vn 0.0000 0.0000 1.0000
vn -0.5000 0.0000 0.8660
vn -0.8660 0.0000 0.5000
vn -1.0000 0.0000 0.0000
vn -0.8660 0.0000 -0.5000
vn -0.5000 0.0000 -0.8660
vn -0.0000 0.0000 -1.0000
vn 0.5000 0.0000 -0.8660
vn 0.8660 0.0000 -0.5000
vn 1.0000 0.0000 -0.0000
vn 1.0000 0.0000 0.0000
vn 0.8660 0.0000 0.5000
vn 0.5000 0.0000 0.8660
vn 0.0000 0.0000 1.0000
vn -0.5000 0.0000 0.8660
vn -0.8660 0.0000 0.5000
vn -1.0000 0.0000 0.0000
vn -0.8660 0.0000 -0.5000
vn -0.5000 0.0000 -0.8660
vn -0.0000 0.0000 -1.0000
vn 0.5000 0.0000 -0.8660
vn 0.8660 0.0000 -0.5000
vn 1.0000 0.0000 -0.0000
vn 1.0000 0.0000 0.0000
vn 0.8660 0.0000 0.5000
vn 0.5000 0.0000 0.8660
vn 0.0000 0.0000 1.0000
vn -0.5000 0.0000 0.8660
vn -0.8660 0.0000 0.5000
vn -1.0000 0.0000 0.0000
vn -0.8660 0.0000 -0.5000
vn -0.5000 0.0000 -0.8660
vn -0.0000 0.0000 -1.0000
vn 0.5000 0.0000 -0.8660
vn 0.8660 0.0000 -0.5000
vn 1.0000 0.0000 -0.0000
f 618/618/618 619/619/619 631/631/631
f 619/619/619 632/632/632 631/631/631
f 619/619/619 620/620/620 632/632/632
f 620/620/620 633/633/633 632/632/632
f 620/620/620 621/621/621 633/633/633
f 621/621/621 634/634/634 633/633/633
f 621/621/621 622/622/622 634/634/634
f 622/622/622 635/635/635 634/634/634
f 622/622/622 623/623/623 635/635/635
f 623/623/623 636/636/636 635/635/635
f 623/623/623 624/624/624 636/636/636
f 624/624/624 637/637/637 636/636/636
f 624/624/624 625/625/625 637/637/637
f 625/625/625 638/638/638 637/637/637
f 625/625/625 626/626/626 638/638/638
f 626/626/626 639/639/639 638/638/638
f 626/626/626 627/627/627 639/639/639
f 627/627/627 640/640/640 639/639/639
f 627/627/627 628/628/628 640/640/640
f 628/628/628 641/641/641 640/640/640
f 628/628/628 629/629/629 641/641/641
f 629/629/629 642/642/642 641/641/641
f 629/629/629 630/630/630 642/642/642
f 630/630/630 643/643/643 642/642/642
f 631/631/631 632/632/632 644/644/644
f 632/632/632 645/645/645 644/644/644
f 632/632/632 633/633/633 645/645/645
f 633/633/633 646/646/646 645/645/645
f 633/633/633 634/634/634 646/646/646
f 634/634/634 647/647/647 646/646/646
f 634/634/634 635/635/635 647/647/647
f 635/635/635 648/648/648 647/647/647
f 635/635/635 636/636/636 648/648/648
f 636/636/636 649/649/649 648/648/648
f 636/636/636 637/637/637 649/649/649
f 637/637/637 650/650/650 649/649/649
f 637/637/637 638/638/638 650/650/650
f 638/638/638 651/651/651 650/650/650
f 638/638/638 639/639/639 651/651/651
f 639/639/639 652/652/652 651/651/651
f 639/639/639 640/640/640 652/652/652
f 640/640/640 653/653/653 652/652/652
f 640/640/640 641/641/641 653/653/653
f 641/641/641 654/654/654 653/653/653
f 641/641/641 642/642/642 654/654/654
f 642/642/642 655/655/655 654/654/654
f 642/642/642 643/643/643 655/655/655
f 643/643/643 656/656/656 655/655/655
f 644/644/644 645/645/645 657/657/657
f 645/645/645 658/658/658 657/657/657
f 645/645/645 646/646/646 658/658/658
f 646/646/646 659/659/659 658/658/658
f 646/646/646 647/647/647 659/659/659
f 647/647/647 660/660/660 659/659/659
f 647/647/647 648/648/648 660/660/660
f 648/648/648 661/661/661 660/660/660
f 648/648/648 649/649/649 661/661/661
f 649/649/649 662/662/662 661/661/661
f 649/649/649 650/650/650 662/662/662
f 650/650/650 663/663/663 662/662/662
f 650/650/650 651/651/651 663/663/663
f 651/651/651 664/664/664 663/663/663
f 651/651/651 652/652/652 664/664/664
f 652/652/652 665/665/665 664/664/664
f 652/652/652 653/653/653 665/665/665
f 653/653/653 666/666/666 665/665/665
f 653/653/653 654/654/654 666/666/666
f 654/654/654 667/667/667 666/666/666
f 654/654/654 655/655/655 667/667/667
f 655/655/655 668/668/668 667/667/667
f 655/655/655 656/656/656 668/668/668
f 656/656/656 669/669/669 668/668/668
f 657/657/657 658/658/658 670/670/670
f 658/658/658 671/671/671 670/670/670
f 658/658/658 659/659/659 671/671/671
f 659/659/659 672/672/672 671/671/671
f 659/659/659 660/660/660 672/672/672
f 660/660/660 673/673/673 672/672/672
f 660/660/660 661/661/661 673/673/673
f 661/661/661 674/674/674 673/673/673
f 661/661/661 662/662/662 674/674/674
f 662/662/662 675/675/675 674/674/674
f 662/662/662 663/663/663 675/675/675
f 663/663/663 676/676/676 675/675/675
f 663/663/663 664/664/664 676/676/676
f 664/664/664 677/677/677 676/676/676
f 664/664/664 665/665/665 677/677/677
f 665/665/665 678/678/678 677/677/677
f 665/665/665 666/666/666 678/678/678
f 666/666/666 679/679/679 678/678/678
f 666/666/666 667/667/667 679/679/679
f 667/667/667 680/680/680 679/679/679
f 667/667/667 668/668/668 680/680/680
f 668/668/668 681/681/681 680/680/680
f 668/668/668 669/669/669 681/681/681
f 669/669/669 682/682/682 681/681/681
f 670/670/670 671/671/671 683/683/683
f 671/671/671 684/684/684 683/683/683
f 671/671/671 672/672/672 684/684/684
f 672/672/672 685/685/685 684/684/684
f 672/672/672 673/673/673 685/685/685
f 673/673/673 686/686/686 685/685/685
f 673/673/673 674/674/674 686/686/686
f 674/674/674 687/687/687 686/686/686
f 674/674/674 675/675/675 687/687/687
f 675/675/675 688/688/688 687/687/687
f 675/675/675 676/676/676 688/688/688
f 676/676/676 689/689/689 688/688/688
f 676/676/676 677/677/677 689/689/689
f 677/677/677 690/690/690 689/689/689
f 677/677/677 678/678/678 690/690/690
f 678/678/678 691/691/691 690/690/690
f 678/678/678 679/679/679 691/691/691
f 679/679/679 692/692/692 691/691/691
f 679/679/679 680/680/680 692/692/692
f 680/680/680 693/693/693 692/692/692
f 680/680/680 681/681/681 693/693/693
f 681/681/681 694/694/694 693/693/693
f 681/681/681 682/682/682 694/694/694
f 682/682/682 695/695/695 694/694/694
f 683/683/683 684/684/684 696/696/696
f 684/684/684 697/697/697 696/696/696
f 684/684/684 685/685/685 697/697/697
f 685/685/685 698/698/698 697/697/697
f 685/685/685 686/686/686 698/698/698
f 686/686/686 699/699/699 698/698/698
f 686/686/686 687/687/687 699/699/699
f 687/687/687 700/700/700 699/699/699
f 687/687/687 688/688/688 700/700/700
f 688/688/688 701/701/701 700/700/700
f 688/688/688 689/689/689 701/701/701
f 689/689/689 702/702/702 701/701/701
f 689/689/689 690/690/690 702/702/702
f 690/690/690 703/703/703 702/702/702
f 690/690/690 691/691/691 703/703/703
f 691/691/691 704/704/704 703/703/703
f 691/691/691 692/692/692 704/704/704
f 692/692/692 705/705/705 704/704/704
f 692/692/692 693/693/693 705/705/705
f 693/693/693 706/706/706 705/705/705
f 693/693/693 694/694/694 706/706/706
f 694/694/694 707/707/707 706/706/706
f 694/694/694 695/695/695 707/707/707
f 695/695/695 708/708/708 707/707/707
f 696/696/696 697/697/697 709/709/709
f 697/697/697 710/710/710 709/709/709
f 697/697/697 698/698/698 710/710/710
f 698/698/698 711/711/711 710/710/710
f 698/698/698 699/699/699 711/711/711
f 699/699/699 712/712/712 711/711/711
f 699/699/699 700/700/700 712/712/712
f 700/700/700 713/713/713 712/712/712
f 700/700/700 701/701/701 713/713/713
f 701/701/701 714/714/714 713/713/713
f 701/701/701 702/702/702 714/714/714
f 702/702/702 715/715/715 714/714/714
f 702/702/702 703/703/703 715/715/715
f 703/703/703 716/716/716 715/715/715
f 703/703/703 704/704/704 716/716/716
f 704/704/704 717/717/717 716/716/716
f 704/704/704 705/705/705 717/717/717
f 705/705/705 718/718/718 717/717/717
f 705/705/705 706/706/706 718/718/718
f 706/706/706 719/719/719 718/718/718
f 706/706/706 707/707/707 719/719/719
f 707/707/707 720/720/720 719/719/719
f 707/707/707 708/708/708 720/720/720
f 708/708/708 721/721/721 720/720/720
f 709/709/709 710/710/710 722/722/722
f 710/710/710 723/723/723 722/722/722
f 710/710/710 711/711/711 723/723/723
f 711/711/711 724/724/724 723/723/723
f 711/711/711 712/712/712 724/724/724
f 712/712/712 725/725/725 724/724/724
f 712/712/712 713/713/713 725/725/725
f 713/713/713 726/726/726 725/725/725
f 713/713/713 714/714/714 726/726/726
f 714/714/714 727/727/727 726/726/726
f 714/714/714 715/715/715 727/727/727
f 715/715/715 728/728/728 727/727/727
f 715/715/715 716/716/716 728/728/728
f 716/716/716 729/729/729 728/728/728
f 716/716/716 717/717/717 729/729/729
f 717/717/717 730/730/730 729/729/729
f 717/717/717 718/718/718 730/730/730
f 718/718/718 731/731/731 730/730/730
f 718/718/718 719/719/719 731/731/731
f 719/719/719 732/732/732 731/731/731
f 719/719/719 720/720/720 732/732/732
f 720/720/720 733/733/733 732/732/732
f 720/720/720 721/721/721 733/733/733
f 721/721/721 734/734/734 733/733/733