# Lembah Karsa humanoid mesh — gen_humanoid_obj.py
o part_0
v 0.4200 2.1800 0.0000
v 0.4200 2.1800 0.0000
v 0.4200 2.1800 0.0000
v 0.4200 2.1800 0.0000
v 0.4200 2.1800 0.0000
v 0.4200 2.1800 0.0000
v 0.4200 2.1800 0.0000
v 0.4200 2.1800 -0.0000
v 0.4200 2.1800 -0.0000
v 0.4200 2.1800 -0.0000
v 0.4200 2.1800 -0.0000
v 0.4200 2.1800 -0.0000
v 0.4200 2.1800 -0.0000
v 0.5400 2.1800 0.0000
v 0.5239 2.1800 0.0600
v 0.4800 2.1800 0.1039
v 0.4200 2.1800 0.1200
v 0.3600 2.1800 0.1039
v 0.3161 2.1800 0.0600
v 0.3000 2.1800 0.0000
v 0.3161 2.1800 -0.0600
v 0.3600 2.1800 -0.1039
v 0.4200 2.1800 -0.1200
v 0.4800 2.1800 -0.1039
v 0.5239 2.1800 -0.0600
v 0.5400 2.1800 -0.0000
v 0.5500 2.1000 0.0000
v 0.5326 2.1000 0.0650
v 0.4850 2.1000 0.1126
v 0.4200 2.1000 0.1300
v 0.3550 2.1000 0.1126
v 0.3074 2.1000 0.0650
v 0.2900 2.1000 0.0000
v 0.3074 2.1000 -0.0650
v 0.3550 2.1000 -0.1126
v 0.4200 2.1000 -0.1300
v 0.4850 2.1000 -0.1126
v 0.5326 2.1000 -0.0650
v 0.5500 2.1000 -0.0000
v 0.5300 1.8500 0.0000
v 0.5153 1.8500 0.0550
v 0.4750 1.8500 0.0953
v 0.4200 1.8500 0.1100
v 0.3650 1.8500 0.0953
v 0.3247 1.8500 0.0550
v 0.3100 1.8500 0.0000
v 0.3247 1.8500 -0.0550
v 0.3650 1.8500 -0.0953
v 0.4200 1.8500 -0.1100
v 0.4750 1.8500 -0.0953
v 0.5153 1.8500 -0.0550
v 0.5300 1.8500 -0.0000
v 0.5200 1.5500 0.0000
v 0.5066 1.5500 0.0500
v 0.4700 1.5500 0.0866
v 0.4200 1.5500 0.1000
v 0.3700 1.5500 0.0866
v 0.3334 1.5500 0.0500
v 0.3200 1.5500 0.0000
v 0.3334 1.5500 -0.0500
v 0.3700 1.5500 -0.0866
v 0.4200 1.5500 -0.1000
v 0.4700 1.5500 -0.0866
v 0.5066 1.5500 -0.0500
v 0.5200 1.5500 -0.0000
v 0.5100 1.2500 0.0000
v 0.4979 1.2500 0.0450
v 0.4650 1.2500 0.0779
v 0.4200 1.2500 0.0900
v 0.3750 1.2500 0.0779
v 0.3421 1.2500 0.0450
v 0.3300 1.2500 0.0000
v 0.3421 1.2500 -0.0450
v 0.3750 1.2500 -0.0779
v 0.4200 1.2500 -0.0900
v 0.4650 1.2500 -0.0779
v 0.4979 1.2500 -0.0450
v 0.5100 1.2500 -0.0000
v 0.5200 1.0500 0.0000
v 0.5066 1.0500 0.0500
v 0.4700 1.0500 0.0866
v 0.4200 1.0500 0.1000
v 0.3700 1.0500 0.0866
v 0.3334 1.0500 0.0500
v 0.3200 1.0500 0.0000
v 0.3334 1.0500 -0.0500
v 0.3700 1.0500 -0.0866
v 0.4200 1.0500 -0.1000
v 0.4700 1.0500 -0.0866
v 0.5066 1.0500 -0.0500
v 0.5200 1.0500 -0.0000
v 0.5500 0.9500 0.0000
v 0.5326 0.9500 0.0650
v 0.4850 0.9500 0.1126
v 0.4200 0.9500 0.1300
v 0.3550 0.9500 0.1126
v 0.3074 0.9500 0.0650
v 0.2900 0.9500 0.0000
v 0.3074 0.9500 -0.0650
v 0.3550 0.9500 -0.1126
v 0.4200 0.9500 -0.1300
v 0.4850 0.9500 -0.1126
v 0.5326 0.9500 -0.0650
v 0.5500 0.9500 -0.0000
v 0.4200 0.9000 0.0000
v 0.4200 0.9000 0.0000
v 0.4200 0.9000 0.0000
v 0.4200 0.9000 0.0000
v 0.4200 0.9000 0.0000
v 0.4200 0.9000 0.0000
v 0.4200 0.9000 0.0000
v 0.4200 0.9000 -0.0000
v 0.4200 0.9000 -0.0000
v 0.4200 0.9000 -0.0000
v 0.4200 0.9000 -0.0000
v 0.4200 0.9000 -0.0000
v 0.4200 0.9000 -0.0000
vt 0.0000 0.0000
vt 0.0833 0.0000
vt 0.1667 0.0000
vt 0.2500 0.0000
vt 0.3333 0.0000
vt 0.4167 0.0000
vt 0.5000 0.0000
vt 0.5833 0.0000
vt 0.6667 0.0000
vt 0.7500 0.0000
vt 0.8333 0.0000
vt 0.9167 0.0000
vt 1.0000 0.0000
vt 0.0000 0.1250
vt 0.0833 0.1250
vt 0.1667 0.1250
vt 0.2500 0.1250
vt 0.3333 0.1250
vt 0.4167 0.1250
vt 0.5000 0.1250
vt 0.5833 0.1250
vt 0.6667 0.1250
vt 0.7500 0.1250
vt 0.8333 0.1250
vt 0.9167 0.1250
vt 1.0000 0.1250
vt 0.0000 0.2500
vt 0.0833 0.2500
vt 0.1667 0.2500
vt 0.2500 0.2500
vt 0.3333 0.2500
vt 0.4167 0.2500
vt 0.5000 0.2500
vt 0.5833 0.2500
vt 0.6667 0.2500
vt 0.7500 0.2500
vt 0.8333 0.2500
vt 0.9167 0.2500
vt 1.0000 0.2500
vt 0.0000 0.3750
vt 0.0833 0.3750
vt 0.1667 0.3750
vt 0.2500 0.3750
vt 0.3333 0.3750
vt 0.4167 0.3750
vt 0.5000 0.3750
vt 0.5833 0.3750
vt 0.6667 0.3750
vt 0.7500 0.3750
vt 0.8333 0.3750
vt 0.9167 0.3750
vt 1.0000 0.3750
vt 0.0000 0.5000
vt 0.0833 0.5000
vt 0.1667 0.5000
vt 0.2500 0.5000
vt 0.3333 0.5000
vt 0.4167 0.5000
vt 0.5000 0.5000
vt 0.5833 0.5000
vt 0.6667 0.5000
vt 0.7500 0.5000
vt 0.8333 0.5000
vt 0.9167 0.5000
vt 1.0000 0.5000
vt 0.0000 0.6250
vt 0.0833 0.6250
vt 0.1667 0.6250
vt 0.2500 0.6250
vt 0.3333 0.6250
vt 0.4167 0.6250
vt 0.5000 0.6250
vt 0.5833 0.6250
vt 0.6667 0.6250
vt 0.7500 0.6250
vt 0.8333 0.6250
vt 0.9167 0.6250
vt 1.0000 0.6250
vt 0.0000 0.7500
vt 0.0833 0.7500
vt 0.1667 0.7500
vt 0.2500 0.7500
vt 0.3333 0.7500
vt 0.4167 0.7500
vt 0.5000 0.7500
vt 0.5833 0.7500
vt 0.6667 0.7500
vt 0.7500 0.7500
vt 0.8333 0.7500
vt 0.9167 0.7500
vt 1.0000 0.7500
vt 0.0000 0.8750
vt 0.0833 0.8750
vt 0.1667 0.8750
vt 0.2500 0.8750
vt 0.3333 0.8750
vt 0.4167 0.8750
vt 0.5000 0.8750
vt 0.5833 0.8750
vt 0.6667 0.8750
vt 0.7500 0.8750
vt 0.8333 0.8750
vt 0.9167 0.8750
vt 1.0000 0.8750
vt 0.0000 1.0000
vt 0.0833 1.0000
vt 0.1667 1.0000
vt 0.2500 1.0000
vt 0.3333 1.0000
vt 0.4167 1.0000
vt 0.5000 1.0000
vt 0.5833 1.0000
vt 0.6667 1.0000
vt 0.7500 1.0000
vt 0.8333 1.0000
vt 0.9167 1.0000
vt 1.0000 1.0000
vn 1.0000 0.0000 0.0000
vn 0.8660 0.0000 0.5000
vn 0.5000 0.0000 0.8660
vn 0.0000 0.0000 1.0000
vn -0.5000 0.0000 0.8660
vn -0.8660 0.0000 0.5000
vn -1.0000 0.0000 0.0000
vn -0.8660 0.0000 -0.5000
vn -0.5000 0.0000 -0.8660
vn -0.0000 0.0000 -1.0000
vn 0.5000 0.0000 -0.8660
vn 0.8660 0.0000 -0.5000
vn 1.0000 0.0000 -0.0000
vn 1.0000 0.0000 0.0000
vn 0.8660 0.0000 0.5000
vn 0.5000 0.0000 0.8660
vn 0.0000 0.0000 1.0000
vn -0.5000 0.0000 0.8660
vn -0.8660 0.0000 0.5000
vn -1.0000 0.0000 0.0000
vn -0.8660 0.0000 -0.5000
vn -0.5000 0.0000 -0.8660
vn -0.0000 0.0000 -1.0000
vn 0.5000 0.0000 -0.8660
vn 0.8660 0.0000 -0.5000
vn 1.0000 0.0000 -0.0000
vn 1.0000 0.0000 0.0000
vn 0.8660 0.0000 0.5000
vn 0.5000 0.0000 0.8660
vn 0.0000 0.0000 1.0000
vn -0.5000 0.0000 0.8660
vn -0.8660 0.0000 0.5000
vn -1.0000 0.0000 0.0000
vn -0.8660 0.0000 -0.5000
vn -0.5000 0.0000 -0.8660
vn -0.0000 0.0000 -1.0000
vn 0.5000 0.0000 -0.8660
vn 0.8660 0.0000 -0.5000
vn 1.0000 0.0000 -0.0000
vn 1.0000 0.0000 0.0000
vn 0.8660 0.0000 0.5000
vn 0.5000 0.0000 0.8660
vn 0.0000 0.0000 1.0000
vn -0.5000 0.0000 0.8660
vn -0.8660 0.0000 0.5000
vn -1.0000 0.0000 0.0000
vn -0.8660 0.0000 -0.5000
vn -0.5000 0.0000 -0.8660
vn -0.0000 0.0000 -1.0000
vn 0.5000 0.0000 -0.8660
vn 0.8660 0.0000 -0.5000
vn 1.0000 0.0000 -0.0000
vn 1.0000 0.0000 0.0000
vn 0.8660 0.0000 0.5000
vn 0.5000 0.0000 0.8660
vn 0.0000 0.0000 1.0000
vn -0.5000 0.0000 0.8660
vn -0.8660 0.0000 0.5000
vn -1.0000 0.0000 0.0000
vn -0.8660 0.0000 -0.5000
vn -0.5000 0.0000 -0.8660
vn -0.0000 0.0000 -1.0000
vn 0.5000 0.0000 -0.8660
vn 0.8660 0.0000 -0.5000
vn 1.0000 0.0000 -0.0000
vn 1.0000 0.0000 0.0000
vn 0.8660 0.0000 0.5000
vn 0.5000 0.0000 0.8660
vn 0.0000 0.0000 1.0000
vn -0.5000 0.0000 0.8660
vn -0.8660 0.0000 0.5000
vn -1.0000 0.0000 0.0000
vn -0.8660 0.0000 -0.5000
vn -0.5000 0.0000 -0.8660
vn -0.0000 0.0000 -1.0000
vn 0.5000 0.0000 -0.8660
vn 0.8660 0.0000 -0.5000
vn 1.0000 0.0000 -0.0000
vn 1.0000 0.0000 0.0000
vn 0.8660 0.0000 0.5000
vn 0.5000 0.0000 0.8660
vn 0.0000 0.0000 1.0000
vn -0.5000 0.0000 0.8660
vn -0.8660 0.0000 0.5000
vn -1.0000 0.0000 0.0000
vn -0.8660 0.0000 -0.5000
vn -0.5000 0.0000 -0.8660
vn -0.0000 0.0000 -1.0000
vn 0.5000 0.0000 -0.8660
vn 0.8660 0.0000 -0.5000
vn 1.0000 0.0000 -0.0000
vn 1.0000 0.0000 0.0000
vn 0.8660 0.0000 0.5000
vn 0.5000 0.0000 0.8660
vn 0.0000 0.0000 1.0000
vn -0.5000 0.0000 0.8660
vn -0.8660 0.0000 0.5000
vn -1.0000 0.0000 0.0000
vn -0.8660 0.0000 -0.5000
vn -0.5000 0.0000 -0.8660
vn -0.0000 0.0000 -1.0000
vn 0.5000 0.0000 -0.8660
vn 0.8660 0.0000 -0.5000
vn 1.0000 0.0000 -0.0000
vn 1.0000 0.0000 0.0000
vn 0.8660 0.0000 0.5000
vn 0.5000 0.0000 0.8660
vn 0.0000 0.0000 1.0000
vn -0.5000 0.0000 0.8660
vn -0.8660 0.0000 0.5000
vn -1.0000 0.0000 0.0000
vn -0.8660 0.0000 -0.5000
vn -0.5000 0.0000 -0.8660
vn -0.0000 0.0000 -1.0000
vn 0.5000 0.0000 -0.8660
vn 0.8660 0.0000 -0.5000
vn 1.0000 0.0000 -0.0000
f 1/1/1 2/2/2 14/14/14
f 2/2/2 15/15/15 14/14/14
f 2/2/2 3/3/3 15/15/15
f 3/3/3 16/16/16 15/15/15
f 3/3/3 4/4/4 16/16/16
f 4/4/4 17/17/17 16/16/16
f 4/4/4 5/5/5 17/17/17
f 5/5/5 18/18/18 17/17/17
f 5/5/5 6/6/6 18/18/18
f 6/6/6 19/19/19 18/18/18
f 6/6/6 7/7/7 19/19/19
f 7/7/7 20/20/20 19/19/19
f 7/7/7 8/8/8 20/20/20
f 8/8/8 21/21/21 20/20/20
f 8/8/8 9/9/9 21/21/21
f 9/9/9 22/22/22 21/21/21
f 9/9/9 10/10/10 22/22/22
f 10/10/10 23/23/23 22/22/22
f 10/10/10 11/11/11 23/23/23
f 11/11/11 24/24/24 23/23/23
f 11/11/11 12/12/12 24/24/24
f 12/12/12 25/25/25 24/24/24
f 12/12/12 13/13/13 25/25/25
f 13/13/13 26/26/26 25/25/25
f 14/14/14 15/15/15 27/27/27
f 15/15/15 28/28/28 27/27/27
f 15/15/15 16/16/16 28/28/28
f 16/16/16 29/29/29 28/28/28
f 16/16/16 17/17/17 29/29/29
f 17/17/17 30/30/30 29/29/29
f 17/17/17 18/18/18 30/30/30
f 18/18/18 31/31/31 30/30/30
f 18/18/18 19/19/19 31/31/31
f 19/19/19 32/32/32 31/31/31
f 19/19/19 20/20/20 32/32/32
f 20/20/20 33/33/33 32/32/32
f 20/20/20 21/21/21 33/33/33
f 21/21/21 34/34/34 33/33/33
f 21/21/21 22/22/22 34/34/34
f 22/22/22 35/35/35 34/34/34
f 22/22/22 23/23/23 35/35/35
f 23/23/23 36/36/36 35/35/35
f 23/23/23 24/24/24 36/36/36
f 24/24/24 37/37/37 36/36/36
f 24/24/24 25/25/25 37/37/37
f 25/25/25 38/38/38 37/37/37
f 25/25/25 26/26/26 38/38/38
f 26/26/26 39/39/39 38/38/38
f 27/27/27 28/28/28 40/40/40
f 28/28/28 41/41/41 40/40/40
f 28/28/28 29/29/29 41/41/41
f 29/29/29 42/42/42 41/41/41
f 29/29/29 30/30/30 42/42/42
f 30/30/30 43/43/43 42/42/42
f 30/30/30 31/31/31 43/43/43
f 31/31/31 44/44/44 43/43/43
f 31/31/31 32/32/32 44/44/44
f 32/32/32 45/45/45 44/44/44
f 32/32/32 33/33/33 45/45/45
f 33/33/33 46/46/46 45/45/45
f 33/33/33 34/34/34 46/46/46
f 34/34/34 47/47/47 46/46/46
f 34/34/34 35/35/35 47/47/47
f 35/35/35 48/48/48 47/47/47
f 35/35/35 36/36/36 48/48/48
f 36/36/36 49/49/49 48/48/48
f 36/36/36 37/37/37 49/49/49
f 37/37/37 50/50/50 49/49/49
f 37/37/37 38/38/38 50/50/50
f 38/38/38 51/51/51 50/50/50
f 38/38/38 39/39/39 51/51/51
f 39/39/39 52/52/52 51/51/51
f 40/40/40 41/41/41 53/53/53
f 41/41/41 54/54/54 53/53/53
f 41/41/41 42/42/42 54/54/54
f 42/42/42 55/55/55 54/54/54
f 42/42/42 43/43/43 55/55/55
f 43/43/43 56/56/56 55/55/55
f 43/43/43 44/44/44 56/56/56
f 44/44/44 57/57/57 56/56/56
f 44/44/44 45/45/45 57/57/57
f 45/45/45 58/58/58 57/57/57
f 45/45/45 46/46/46 58/58/58
f 46/46/46 59/59/59 58/58/58
f 46/46/46 47/47/47 59/59/59
f 47/47/47 60/60/60 59/59/59
f 47/47/47 48/48/48 60/60/60
f 48/48/48 61/61/61 60/60/60
f 48/48/48 49/49/49 61/61/61
f 49/49/49 62/62/62 61/61/61
f 49/49/49 50/50/50 62/62/62
f 50/50/50 63/63/63 62/62/62
f 50/50/50 51/51/51 63/63/63
f 51/51/51 64/64/64 63/63/63
f 51/51/51 52/52/52 64/64/64
f 52/52/52 65/65/65 64/64/64
f 53/53/53 54/54/54 66/66/66
f 54/54/54 67/67/67 66/66/66
f 54/54/54 55/55/55 67/67/67
f 55/55/55 68/68/68 67/67/67
f 55/55/55 56/56/56 68/68/68
f 56/56/56 69/69/69 68/68/68
f 56/56/56 57/57/57 69/69/69
f 57/57/57 70/70/70 69/69/69
f 57/57/57 58/58/58 70/70/70
f 58/58/58 71/71/71 70/70/70
f 58/58/58 59/59/59 71/71/71
f 59/59/59 72/72/72 71/71/71
f 59/59/59 60/60/60 72/72/72
f 60/60/60 73/73/73 72/72/72
f 60/60/60 61/61/61 73/73/73
f 61/61/61 74/74/74 73/73/73
f 61/61/61 62/62/62 74/74/74
f 62/62/62 75/75/75 74/74/74
f 62/62/62 63/63/63 75/75/75
f 63/63/63 76/76/76 75/75/75
f 63/63/63 64/64/64 76/76/76
f 64/64/64 77/77/77 76/76/76
f 64/64/64 65/65/65 77/77/77
f 65/65/65 78/78/78 77/77/77
f 66/66/66 67/67/67 79/79/79
f 67/67/67 80/80/80 79/79/79
f 67/67/67 68/68/68 80/80/80
f 68/68/68 81/81/81 80/80/80
f 68/68/68 69/69/69 81/81/81
f 69/69/69 82/82/82 81/81/81
f 69/69/69 70/70/70 82/82/82
f 70/70/70 83/83/83 82/82/82
f 70/70/70 71/71/71 83/83/83
f 71/71/71 84/84/84 83/83/83
f 71/71/71 72/72/72 84/84/84
f 72/72/72 85/85/85 84/84/84
f 72/72/72 73/73/73 85/85/85
f 73/73/73 86/86/86 85/85/85
f 73/73/73 74/74/74 86/86/86
f 74/74/74 87/87/87 86/86/86
f 74/74/74 75/75/75 87/87/87
f 75/75/75 88/88/88 87/87/87
f 75/75/75 76/76/76 88/88/88
f 76/76/76 89/89/89 88/88/88
f 76/76/76 77/77/77 89/89/89
f 77/77/77 90/90/90 89/89/89
f 77/77/77 78/78/78 90/90/90
f 78/78/78 91/91/91 90/90/90
f 79/79/79 80/80/80 92/92/92
f 80/80/80 93/93/93 92/92/92
f 80/80/80 81/81/81 93/93/93
f 81/81/81 94/94/94 93/93/93
f 81/81/81 82/82/82 94/94/94
f 82/82/82 95/95/95 94/94/94
f 82/82/82 83/83/83 95/95/95
f 83/83/83 96/96/96 95/95/95
f 83/83/83 84/84/84 96/96/96
f 84/84/84 97/97/97 96/96/96
f 84/84/84 85/85/85 97/97/97
f 85/85/85 98/98/98 97/97/97
f 85/85/85 86/86/86 98/98/98
f 86/86/86 99/99/99 98/98/98
f 86/86/86 87/87/87 99/99/99
f 87/87/87 100/100/100 99/99/99
f 87/87/87 88/88/88 100/100/100
f 88/88/88 101/101/101 100/100/100
f 88/88/88 89/89/89 101/101/101
f 89/89/89 102/102/102 101/101/101
f 89/89/89 90/90/90 102/102/102
f 90/90/90 103/103/103 102/102/102
f 90/90/90 91/91/91 103/103/103
f 91/91/91 104/104/104 103/103/103
f 92/92/92 93/93/93 105/105/105
f 93/93/93 106/106/106 105/105/105
f 93/93/93 94/94/94 106/106/106
f 94/94/94 107/107/107 106/106/106
f 94/94/94 95/95/95 107/107/107
f 95/95/95 108/108/108 107/107/107
f 95/95/95 96/96/96 108/108/108
f 96/96/96 109/109/109 108/108/108
f 96/96/96 97/97/97 109/109/109
f 97/97/97 110/110/110 109/109/109
f 97/97/97 98/98/98 110/110/110
f 98/98/98 111/111/111 110/110/110
f 98/98/98 99/99/99 111/111/111
f 99/99/99 112/112/112 111/111/111
f 99/99/99 100/100/100 112/112/112
f 100/100/100 113/113/113 112/112/112
f 100/100/100 101/101/101 113/113/113
f 101/101/101 114/114/114 113/113/113
f 101/101/101 102/102/102 114/114/114
f 102/102/102 115/115/115 114/114/114
f 102/102/102 103/103/103 115/115/115
f 103/103/103 116/116/116 115/115/115
f 103/103/103 104/104/104 116/116/116
f 104/104/104 117/117/117 116/116/116