# Blender 5.1.1
# www.blender.org
o Kelelawar
v 0.000000 0.200000 0.000000
v 0.000000 0.190211 -0.061803
v 0.000000 0.117557 -0.161803
v 0.000000 0.061803 -0.190211
v 0.000000 0.000000 -0.200000
v 0.000000 -0.161803 -0.117557
v 0.000000 -0.190211 -0.061803
v 0.000000 -0.200000 0.000000
v 0.026815 0.190211 -0.055683
v 0.051006 0.161803 -0.105915
v 0.070204 0.117557 -0.145780
v 0.082530 0.061803 -0.171374
v 0.086777 0.000000 -0.180194
v 0.082530 -0.061803 -0.171374
v 0.070204 -0.117557 -0.145780
v 0.051006 -0.161803 -0.105915
v 0.026815 -0.190211 -0.055683
v 0.048320 0.190211 -0.038534
v 0.091910 0.161803 -0.073296
v 0.126503 0.117557 -0.100883
v 0.148713 0.061803 -0.118595
v 0.156366 0.000000 -0.124698
v 0.148713 -0.061803 -0.118595
v 0.126503 -0.117557 -0.100883
v 0.091910 -0.161803 -0.073296
v 0.048320 -0.190211 -0.038534
v 0.060254 0.190211 -0.013753
v 0.114610 0.161803 -0.026159
v 0.157747 0.117557 -0.036005
v 0.185442 0.061803 -0.042326
v 0.194986 0.000000 -0.044504
v 0.185442 -0.061803 -0.042326
v 0.157747 -0.117557 -0.036005
v 0.114610 -0.161803 -0.026159
v 0.060254 -0.190211 -0.013753
v 0.060254 0.190211 0.013753
v 0.114610 0.161803 0.026159
v 0.157747 0.117557 0.036005
v 0.185442 0.061803 0.042326
v 0.194986 0.000000 0.044504
v 0.185442 -0.061803 0.042326
v 0.157747 -0.117557 0.036005
v 0.114610 -0.161803 0.026159
v 0.060254 -0.190211 0.013753
v 0.048320 0.190211 0.038534
v 0.091910 0.161803 0.073296
v 0.126503 0.117557 0.100883
v 0.148713 0.061803 0.118595
v 0.156366 0.000000 0.124698
v 0.148713 -0.061803 0.118595
v 0.126503 -0.117557 0.100883
v 0.091910 -0.161803 0.073296
v 0.048320 -0.190211 0.038534
v 0.026815 0.190211 0.055683
v 0.051006 0.161803 0.105915
v 0.070204 0.117557 0.145780
v 0.082530 0.061803 0.171374
v 0.086777 0.000000 0.180194
v 0.082530 -0.061803 0.171374
v 0.070204 -0.117557 0.145780
v 0.051006 -0.161803 0.105915
v 0.026815 -0.190211 0.055683
v -0.000000 0.190211 0.061803
v -0.000000 0.161803 0.117557
v -0.000000 0.117557 0.161803
v -0.000000 0.061803 0.190211
v -0.000000 0.000000 0.200000
v -0.000000 -0.061803 0.190211
v -0.000000 -0.117557 0.161803
v -0.000000 -0.161803 0.117557
v -0.000000 -0.190211 0.061803
v -0.026816 0.190211 0.055683
v -0.051006 0.161803 0.105915
v -0.070204 0.117557 0.145780
v -0.082530 0.061803 0.171374
v -0.086777 0.000000 0.180194
v -0.082530 -0.061803 0.171374
v -0.070204 -0.117557 0.145780
v -0.051006 -0.161803 0.105915
v -0.026816 -0.190211 0.055683
v -0.048320 0.190211 0.038534
v -0.091910 0.161803 0.073296
v -0.126503 0.117557 0.100883
v -0.148713 0.061803 0.118595
v -0.156366 0.000000 0.124698
v -0.148713 -0.061803 0.118595
v -0.126503 -0.117557 0.100883
v -0.091910 -0.161803 0.073296
v -0.048320 -0.190211 0.038534
v -0.060254 0.190211 0.013753
v -0.114610 0.161803 0.026159
v -0.157747 0.117557 0.036005
v -0.185442 0.061803 0.042326
v -0.194986 0.000000 0.044504
v -0.185442 -0.061803 0.042326
v -0.157747 -0.117557 0.036005
v -0.114610 -0.161803 0.026159
v -0.060254 -0.190211 0.013753
v -0.060254 0.190211 -0.013753
v -0.114610 0.161803 -0.026159
v -0.157747 0.117557 -0.036005
v -0.185442 0.061803 -0.042326
v -0.194986 0.000000 -0.044504
v -0.185442 -0.061803 -0.042326
v -0.157747 -0.117557 -0.036005
v -0.114610 -0.161803 -0.026159
v -0.060254 -0.190211 -0.013753
v -0.048320 0.190211 -0.038534
v -0.091910 0.161803 -0.073296
v -0.126503 0.117557 -0.100883
v -0.148713 0.061803 -0.118595
v -0.156366 0.000000 -0.124698
v -0.148713 -0.061803 -0.118595
v -0.126503 -0.117557 -0.100883
v -0.091910 -0.161803 -0.073296
v -0.048320 -0.190211 -0.038534
v -0.026815 0.190211 -0.055683
v -0.051006 0.161803 -0.105915
v -0.070204 0.117557 -0.145780
v -0.082530 0.061803 -0.171374
v -0.086777 0.000000 -0.180194
v -0.082530 -0.061803 -0.171374
v -0.070204 -0.117557 -0.145780
v -0.051006 -0.161803 -0.105915
v -0.026815 -0.190211 -0.055683
v 0.000000 0.161803 -0.117557
v 0.000000 -0.061803 -0.190211
v 0.000000 -0.117557 -0.161803
v 0.000000 0.230000 -0.220000
v 0.000000 0.155801 -0.365623
v 0.000000 0.105623 -0.391190
v 0.000000 0.050000 -0.400000
v 0.000000 -0.005623 -0.391190
v 0.000000 -0.095623 -0.325801
v 0.000000 -0.121190 -0.275623
v 0.000000 -0.130000 -0.220000
v 0.024134 0.221190 -0.270115
v 0.045905 0.195623 -0.315324
v 0.063183 0.155801 -0.351202
v 0.074277 0.105623 -0.374237
v 0.078099 0.050000 -0.382174
v 0.074277 -0.005623 -0.374237
v 0.063183 -0.055801 -0.351202
v 0.045905 -0.095623 -0.315324
v 0.024134 -0.121190 -0.270115
v 0.043488 0.221190 -0.254680
v 0.082719 0.195623 -0.285966
v 0.113853 0.155801 -0.310794
v 0.133842 0.105623 -0.326735
v 0.140730 0.050000 -0.332228
v 0.133842 -0.005623 -0.326735
v 0.113853 -0.055801 -0.310794
v 0.082719 -0.095623 -0.285966
v 0.043488 -0.121190 -0.254680
v 0.054228 0.221190 -0.232377
v 0.103149 0.195623 -0.243543
v 0.141972 0.155801 -0.252404
v 0.166898 0.105623 -0.258093
v 0.175487 0.050000 -0.260054
v 0.166898 -0.005623 -0.258093
v 0.141972 -0.055801 -0.252404
v 0.103149 -0.095623 -0.243543
v 0.054228 -0.121190 -0.232377
v 0.054228 0.221190 -0.207623
v 0.103149 0.195623 -0.196457
v 0.141972 0.155801 -0.187596
v 0.166898 0.105623 -0.181907
v 0.175487 0.050000 -0.179946
v 0.166898 -0.005623 -0.181907
v 0.141972 -0.055801 -0.187596
v 0.103149 -0.095623 -0.196457
v 0.054228 -0.121190 -0.207623
v 0.043488 0.221190 -0.185320
v 0.082719 0.195623 -0.154034
v 0.113853 0.155801 -0.129205
v 0.133842 0.105623 -0.113265
v 0.140730 0.050000 -0.107772
v 0.133842 -0.005623 -0.113265
v 0.113853 -0.055801 -0.129205
v 0.082719 -0.095623 -0.154034
v 0.043488 -0.121190 -0.185320
v 0.024134 0.221190 -0.169885
v 0.045905 0.195623 -0.124676
v 0.063183 0.155801 -0.088798
v 0.074277 0.105623 -0.065763
v 0.078099 0.050000 -0.057826
v 0.074277 -0.005623 -0.065763
v 0.063183 -0.055801 -0.088798
v 0.045905 -0.095623 -0.124676
v 0.024134 -0.121190 -0.169885
v -0.000000 0.221190 -0.164377
v -0.000000 0.195623 -0.114199
v -0.000000 0.155801 -0.074377
v -0.000000 0.105623 -0.048810
v -0.000000 0.050000 -0.040000
v -0.000000 -0.005623 -0.048810
v -0.000000 -0.055801 -0.074377
v -0.000000 -0.095623 -0.114199
v -0.000000 -0.121190 -0.164377
v -0.024134 0.221190 -0.169885
v -0.045906 0.195623 -0.124676
v -0.063184 0.155801 -0.088798
v -0.074277 0.105623 -0.065763
v -0.078099 0.050000 -0.057826
v -0.074277 -0.005623 -0.065763
v -0.063184 -0.055801 -0.088798
v -0.045906 -0.095623 -0.124676
v -0.024134 -0.121190 -0.169885
v -0.043488 0.221190 -0.185320
v -0.082719 0.195623 -0.154034
v -0.113853 0.155801 -0.129206
v -0.133842 0.105623 -0.113265
v -0.140730 0.050000 -0.107772
v -0.133842 -0.005623 -0.113265
v -0.113853 -0.055801 -0.129206
v -0.082719 -0.095623 -0.154034
v -0.043488 -0.121190 -0.185320
v -0.054228 0.221190 -0.207623
v -0.103149 0.195623 -0.196457
v -0.141972 0.155801 -0.187596
v -0.166898 0.105623 -0.181907
v -0.175487 0.050000 -0.179946
v -0.166898 -0.005623 -0.181907
v -0.141972 -0.055801 -0.187596
v -0.103149 -0.095623 -0.196457
v -0.054228 -0.121190 -0.207623
v -0.054228 0.221190 -0.232377
v -0.103149 0.195623 -0.243543
v -0.141972 0.155801 -0.252404
v -0.166898 0.105623 -0.258093
v -0.175487 0.050000 -0.260054
v -0.166898 -0.005623 -0.258093
v -0.141972 -0.055801 -0.252404
v -0.103149 -0.095623 -0.243543
v -0.054228 -0.121190 -0.232377
v -0.043488 0.221190 -0.254680
v -0.082719 0.195623 -0.285966
v -0.113853 0.155801 -0.310795
v -0.133842 0.105623 -0.326735
v -0.140730 0.050000 -0.332228
v -0.133842 -0.005623 -0.326735
v -0.113853 -0.055801 -0.310795
v -0.082719 -0.095623 -0.285966
v -0.043488 -0.121190 -0.254680
v -0.024134 0.221190 -0.270115
v -0.045905 0.195623 -0.315324
v -0.063183 0.155801 -0.351202
v -0.074277 0.105623 -0.374237
v -0.078099 0.050000 -0.382174
v -0.074277 -0.005623 -0.374237
v -0.063183 -0.055801 -0.351202
v -0.045905 -0.095623 -0.315324
v -0.024134 -0.121190 -0.270115
v 0.000000 0.221190 -0.275623
v 0.000000 0.195623 -0.325801
v 0.000000 -0.055801 -0.365623
v -0.100000 0.090000 -0.280000
v -0.088295 0.090000 -0.278847
v -0.077039 0.090000 -0.275433
v -0.066666 0.090000 -0.269888
v -0.057574 0.090000 -0.262426
v -0.050112 0.090000 -0.253334
v -0.044567 0.090000 -0.242961
v -0.041153 0.090000 -0.231705
v -0.040000 0.090000 -0.220000
v -0.041153 0.090000 -0.208295
v -0.044567 0.090000 -0.197039
v -0.050112 0.090000 -0.186666
v -0.057574 0.090000 -0.177574
v -0.066666 0.090000 -0.170112
v -0.077039 0.090000 -0.164567
v -0.088295 0.090000 -0.161153
v -0.100000 0.090000 -0.160000
v -0.111705 0.090000 -0.161153
v -0.122961 0.090000 -0.164567
v -0.133334 0.090000 -0.170112
v -0.142426 0.090000 -0.177574
v -0.149888 0.090000 -0.186666
v -0.155433 0.090000 -0.197039
v -0.158847 0.090000 -0.208295
v -0.160000 0.090000 -0.220000
v -0.158847 0.090000 -0.231705
v -0.155433 0.090000 -0.242961
v -0.149888 0.090000 -0.253334
v -0.142426 0.090000 -0.262426
v -0.133334 0.090000 -0.269888
v -0.122961 0.090000 -0.275433
v -0.111705 0.090000 -0.278847
v -0.100000 0.310000 -0.220000
v 0.100000 0.090000 -0.280000
v 0.111705 0.090000 -0.278847
v 0.122961 0.090000 -0.275433
v 0.133334 0.090000 -0.269888
v 0.142426 0.090000 -0.262426
v 0.149888 0.090000 -0.253334
v 0.155433 0.090000 -0.242961
v 0.158847 0.090000 -0.231705
v 0.160000 0.090000 -0.220000
v 0.158847 0.090000 -0.208295
v 0.155433 0.090000 -0.197039
v 0.149888 0.090000 -0.186666
v 0.142426 0.090000 -0.177574
v 0.133334 0.090000 -0.170112
v 0.122961 0.090000 -0.164567
v 0.111705 0.090000 -0.161153
v 0.100000 0.090000 -0.160000
v 0.088295 0.090000 -0.161153
v 0.077039 0.090000 -0.164567
v 0.066666 0.090000 -0.170112
v 0.057574 0.090000 -0.177574
v 0.050112 0.090000 -0.186666
v 0.044567 0.090000 -0.197039
v 0.041153 0.090000 -0.208295
v 0.040000 0.090000 -0.220000
v 0.041153 0.090000 -0.231705
v 0.044567 0.090000 -0.242961
v 0.050112 0.090000 -0.253334
v 0.057574 0.090000 -0.262426
v 0.066666 0.090000 -0.269888
v 0.077039 0.090000 -0.275433
v 0.088295 0.090000 -0.278847
v 0.100000 0.310000 -0.220000
v -0.694070 -0.160000 -0.055046
v -0.694070 0.160000 -0.055046
v -0.688893 -0.160000 -0.074364
v -0.688893 0.160000 -0.074364
v -0.211107 -0.160000 0.074364
v -0.211107 0.160000 0.074364
v -0.205930 -0.160000 0.055046
v -0.205930 0.160000 0.055046
v 0.211107 -0.160000 0.074364
v 0.211107 0.160000 0.074364
v 0.205930 -0.160000 0.055046
v 0.205930 0.160000 0.055046
v 0.694070 -0.160000 -0.055046
v 0.694070 0.160000 -0.055046
v 0.688893 -0.160000 -0.074364
v 0.688893 0.160000 -0.074364
vn -0.0000 1.0000 -0.0000
vn -0.0000 0.9444 -0.3289
vn -0.0000 0.5774 -0.8164
vn -0.0000 0.3027 -0.9531
vn -0.0000 -0.0000 -1.0000
vn -0.0000 -0.7985 -0.6020
vn -0.0000 -0.9444 -0.3289
vn -0.0000 -1.0000 -0.0000
vn 0.1427 0.9444 -0.2964
vn 0.2612 0.7985 -0.5424
vn 0.3542 0.5774 -0.7356
vn 0.4135 0.3027 -0.8587
vn 0.4339 -0.0000 -0.9010
vn 0.4135 -0.3027 -0.8587
vn 0.3542 -0.5774 -0.7356
vn 0.2612 -0.7985 -0.5424
vn 0.1427 -0.9444 -0.2964
vn 0.2572 0.9444 -0.2051
vn 0.4707 0.7985 -0.3753
vn 0.6383 0.5774 -0.5090
vn 0.7452 0.3027 -0.5942
vn 0.7818 -0.0000 -0.6235
vn 0.7452 -0.3027 -0.5942
vn 0.6383 -0.5774 -0.5090
vn 0.4707 -0.7985 -0.3753
vn 0.2572 -0.9444 -0.2051
vn 0.3207 0.9444 -0.0732
vn 0.5869 0.7985 -0.1340
vn 0.7960 0.5774 -0.1817
vn 0.9292 0.3027 -0.2121
vn 0.9749 -0.0000 -0.2225
vn 0.9292 -0.3027 -0.2121
vn 0.7960 -0.5774 -0.1817
vn 0.5869 -0.7985 -0.1340
vn 0.3207 -0.9444 -0.0732
vn 0.3207 0.9444 0.0732
vn 0.5869 0.7985 0.1340
vn 0.7960 0.5774 0.1817
vn 0.9292 0.3027 0.2121
vn 0.9749 -0.0000 0.2225
vn 0.9292 -0.3027 0.2121
vn 0.7960 -0.5774 0.1817
vn 0.5869 -0.7985 0.1340
vn 0.3207 -0.9444 0.0732
vn 0.2572 0.9444 0.2051
vn 0.4707 0.7985 0.3753
vn 0.6383 0.5774 0.5090
vn 0.7452 0.3027 0.5942
vn 0.7818 -0.0000 0.6235
vn 0.7452 -0.3027 0.5942
vn 0.6383 -0.5774 0.5090
vn 0.4707 -0.7985 0.3753
vn 0.2572 -0.9444 0.2051
vn 0.1427 0.9444 0.2964
vn 0.2612 0.7985 0.5424
vn 0.3542 0.5774 0.7356
vn 0.4135 0.3027 0.8587
vn 0.4339 -0.0000 0.9010
vn 0.4135 -0.3027 0.8587
vn 0.3542 -0.5774 0.7356
vn 0.2612 -0.7985 0.5424
vn 0.1427 -0.9444 0.2964
vn -0.0000 0.9444 0.3289
vn -0.0000 0.7985 0.6020
vn -0.0000 0.5774 0.8164
vn -0.0000 0.3027 0.9531
vn -0.0000 -0.0000 1.0000
vn -0.0000 -0.3027 0.9531
vn -0.0000 -0.5774 0.8164
vn -0.0000 -0.7985 0.6020
vn -0.0000 -0.9444 0.3289
vn -0.1427 0.9444 0.2964
vn -0.2612 0.7985 0.5424
vn -0.3542 0.5774 0.7356
vn -0.4135 0.3027 0.8587
vn -0.4339 -0.0000 0.9010
vn -0.4135 -0.3027 0.8587
vn -0.3542 -0.5774 0.7356
vn -0.2612 -0.7985 0.5424
vn -0.1427 -0.9444 0.2964
vn -0.2572 0.9444 0.2051
vn -0.4707 0.7985 0.3753
vn -0.6383 0.5774 0.5090
vn -0.7452 0.3027 0.5942
vn -0.7818 -0.0000 0.6235
vn -0.7452 -0.3027 0.5942
vn -0.6383 -0.5774 0.5090
vn -0.4707 -0.7985 0.3753
vn -0.2572 -0.9444 0.2051
vn -0.3207 0.9444 0.0732
vn -0.5869 0.7985 0.1340
vn -0.7960 0.5774 0.1817
vn -0.9292 0.3027 0.2121
vn -0.9749 -0.0000 0.2225
vn -0.9292 -0.3027 0.2121
vn -0.7960 -0.5774 0.1817
vn -0.5869 -0.7985 0.1340
vn -0.3207 -0.9444 0.0732
vn -0.3207 0.9444 -0.0732
vn -0.5869 0.7985 -0.1340
vn -0.7960 0.5774 -0.1817
vn -0.9292 0.3027 -0.2121
vn -0.9749 -0.0000 -0.2225
vn -0.9292 -0.3027 -0.2121
vn -0.7960 -0.5774 -0.1817
vn -0.5869 -0.7985 -0.1340
vn -0.3207 -0.9444 -0.0732
vn -0.2572 0.9444 -0.2051
vn -0.4707 0.7985 -0.3753
vn -0.6383 0.5774 -0.5090
vn -0.7452 0.3027 -0.5942
vn -0.7818 -0.0000 -0.6235
vn -0.7452 -0.3027 -0.5942
vn -0.6383 -0.5774 -0.5090
vn -0.4707 -0.7985 -0.3753
vn -0.2572 -0.9444 -0.2051
vn -0.1427 0.9444 -0.2964
vn -0.2612 0.7985 -0.5424
vn -0.3542 0.5774 -0.7356
vn -0.4135 0.3027 -0.8587
vn -0.4339 -0.0000 -0.9010
vn -0.4135 -0.3027 -0.8587
vn -0.3542 -0.5774 -0.7356
vn -0.2612 -0.7985 -0.5424
vn -0.1427 -0.9444 -0.2964
vn -0.0000 0.7985 -0.6020
vn -0.0000 -0.3027 -0.9531
vn -0.0000 -0.5774 -0.8164
vn -0.0000 -0.5841 -0.8117
vn 0.1583 -0.5841 -0.7961
vn 0.3106 -0.5841 -0.7499
vn 0.4509 -0.5841 -0.6749
vn 0.5739 -0.5841 -0.5739
vn 0.6749 -0.5841 -0.4509
vn 0.7499 -0.5841 -0.3106
vn 0.7961 -0.5841 -0.1583
vn 0.8117 -0.5841 -0.0000
vn 0.7961 -0.5841 0.1583
vn 0.7499 -0.5841 0.3106
vn 0.6749 -0.5841 0.4509
vn 0.5739 -0.5841 0.5739
vn 0.4509 -0.5841 0.6749
vn 0.3106 -0.5841 0.7499
vn 0.1583 -0.5841 0.7961
vn -0.0000 -0.5841 0.8117
vn -0.1583 -0.5841 0.7961
vn -0.3106 -0.5841 0.7499
vn -0.4509 -0.5841 0.6749
vn -0.5739 -0.5841 0.5739
vn -0.6749 -0.5841 0.4509
vn -0.7499 -0.5841 0.3106
vn -0.7961 -0.5841 0.1583
vn -0.8117 -0.5841 -0.0000
vn -0.7961 -0.5841 -0.1583
vn -0.7499 -0.5841 -0.3106
vn -0.6749 -0.5841 -0.4509
vn -0.5739 -0.5841 -0.5739
vn -0.4509 -0.5841 -0.6749
vn -0.3106 -0.5841 -0.7499
vn -0.1583 -0.5841 -0.7961
vn -0.7071 -0.5774 0.4082
vn -0.7071 0.5774 0.4082
vn -0.4082 -0.5774 -0.7071
vn -0.4082 0.5774 -0.7071
vn 0.4082 -0.5774 0.7071
vn 0.4082 0.5774 0.7071
vn 0.7071 -0.5774 -0.4082
vn 0.7071 0.5774 -0.4082
vn -0.4082 -0.5774 0.7071
vn -0.4082 0.5774 0.7071
vn -0.7071 -0.5774 -0.4082
vn -0.7071 0.5774 -0.4082
vn 0.7071 -0.5774 0.4082
vn 0.7071 0.5774 0.4082
vn 0.4082 -0.5774 -0.7071
vn 0.4082 0.5774 -0.7071
vt 0.714286 0.200000
vt 0.714286 0.300000
vt 0.642857 0.300000
vt 0.642857 0.200000
vt 0.714286 0.500000
vt 0.714286 0.600000
vt 0.642857 0.600000
vt 0.642857 0.500000
vt 0.714286 0.800000
vt 0.714286 0.900000
vt 0.642857 0.900000
vt 0.642857 0.800000
vt 0.714286 0.100000
vt 0.642857 0.100000
vt 0.714286 0.400000
vt 0.642857 0.400000
vt 0.714286 0.700000
vt 0.642857 0.700000
vt 0.678572 0.000000
vt 0.678572 1.000000
vt 0.571429 0.600000
vt 0.571429 0.500000
vt 0.571429 0.900000
vt 0.571429 0.800000
vt 0.571429 0.200000
vt 0.571429 0.100000
vt 0.571429 0.400000
vt 0.571429 0.700000
vt 0.607143 0.000000
vt 0.571429 0.300000
vt 0.607143 1.000000
vt 0.535714 1.000000
vt 0.500000 0.900000
vt 0.500000 0.300000
vt 0.500000 0.200000
vt 0.500000 0.600000
vt 0.500000 0.500000
vt 0.500000 0.800000
vt 0.500000 0.100000
vt 0.500000 0.400000
vt 0.500000 0.700000
vt 0.535714 0.000000
vt 0.428571 0.400000
vt 0.428571 0.300000
vt 0.428571 0.700000
vt 0.428571 0.600000
vt 0.464286 1.000000
vt 0.428571 0.900000
vt 0.428571 0.200000
vt 0.428571 0.500000
vt 0.428571 0.800000
vt 0.428571 0.100000
vt 0.464286 0.000000
vt 0.357143 0.800000
vt 0.357143 0.700000
vt 0.392857 0.000000
vt 0.357143 0.100000
vt 0.357143 0.400000
vt 0.357143 0.300000
vt 0.357143 0.600000
vt 0.392857 1.000000
vt 0.357143 0.900000
vt 0.357143 0.200000
vt 0.357143 0.500000
vt 0.285714 0.500000
vt 0.285714 0.400000
vt 0.285714 0.800000
vt 0.285714 0.700000
vt 0.321429 0.000000
vt 0.285714 0.100000
vt 0.285714 0.300000
vt 0.285714 0.600000
vt 0.321429 1.000000
vt 0.285714 0.900000
vt 0.285714 0.200000
vt 0.214286 0.900000
vt 0.214286 0.800000
vt 0.214286 0.200000
vt 0.214286 0.100000
vt 0.214286 0.500000
vt 0.214286 0.400000
vt 0.214286 0.700000
vt 0.250000 0.000000
vt 0.214286 0.300000
vt 0.214286 0.600000
vt 0.250000 1.000000
vt 0.142857 0.300000
vt 0.142857 0.200000
vt 0.142857 0.600000
vt 0.142857 0.500000
vt 0.142857 0.900000
vt 0.142857 0.800000
vt 0.142857 0.100000
vt 0.142857 0.400000
vt 0.142857 0.700000
vt 0.178571 0.000000
vt 0.178571 1.000000
vt 0.071429 0.700000
vt 0.071429 0.600000
vt 0.107143 1.000000
vt 0.071429 0.900000
vt 0.071429 0.300000
vt 0.071429 0.200000
vt 0.071429 0.500000
vt 0.071429 0.800000
vt 0.071429 0.100000
vt 0.071429 0.400000
vt 0.107143 0.000000
vt 0.000000 0.400000
vt 0.000000 0.300000
vt 0.000000 0.700000
vt 0.000000 0.600000
vt 0.035714 1.000000
vt 0.000000 0.900000
vt 0.000000 0.200000
vt 0.000000 0.500000
vt 0.000000 0.800000
vt 0.000000 0.100000
vt 0.035714 0.000000
vt 1.000000 0.700000
vt 1.000000 0.800000
vt 0.928571 0.800000
vt 0.928571 0.700000
vt 0.964286 0.000000
vt 1.000000 0.100000
vt 0.928571 0.100000
vt 1.000000 0.300000
vt 1.000000 0.400000
vt 0.928571 0.400000
vt 0.928571 0.300000
vt 1.000000 0.600000
vt 0.928571 0.600000
vt 1.000000 0.900000
vt 0.964286 1.000000
vt 0.928571 0.900000
vt 1.000000 0.200000
vt 0.928571 0.200000
vt 1.000000 0.500000
vt 0.928571 0.500000
vt 0.857143 0.200000
vt 0.857143 0.100000
vt 0.857143 0.500000
vt 0.857143 0.400000
vt 0.857143 0.800000
vt 0.857143 0.700000
vt 0.892857 0.000000
vt 0.857143 0.300000
vt 0.857143 0.600000
vt 0.892857 1.000000
vt 0.857143 0.900000
vt 0.785714 0.600000
vt 0.785714 0.500000
vt 0.785714 0.900000
vt 0.785714 0.800000
vt 0.785714 0.200000
vt 0.785714 0.100000
vt 0.785714 0.400000
vt 0.785714 0.700000
vt 0.821429 0.000000
vt 0.785714 0.300000
vt 0.821429 1.000000
vt 0.750000 1.000000
vt 0.750000 0.000000
vt 0.714286 0.900000
vt 0.678571 1.000000
vt 0.642857 0.900000
vt 0.714286 0.200000
vt 0.714286 0.300000
vt 0.642857 0.300000
vt 0.642857 0.200000
vt 0.714286 0.500000
vt 0.714286 0.600000
vt 0.642857 0.600000
vt 0.642857 0.500000
vt 0.714286 0.800000
vt 0.642857 0.800000
vt 0.714286 0.100000
vt 0.642857 0.100000
vt 0.714286 0.400000
vt 0.642857 0.400000
vt 0.714286 0.700000
vt 0.642857 0.700000
vt 0.678571 0.000000
vt 0.571429 0.300000
vt 0.571429 0.200000
vt 0.571429 0.600000
vt 0.571429 0.500000
vt 0.571429 0.900000
vt 0.571429 0.800000
vt 0.571429 0.100000
vt 0.571429 0.400000
vt 0.571429 0.700000
vt 0.607143 0.000000
vt 0.607143 1.000000
vt 0.500000 0.700000
vt 0.500000 0.600000
vt 0.535714 1.000000
vt 0.500000 0.900000
vt 0.500000 0.300000
vt 0.500000 0.200000
vt 0.500000 0.500000
vt 0.500000 0.800000
vt 0.500000 0.100000
vt 0.500000 0.400000
vt 0.535714 0.000000
vt 0.428571 0.400000
vt 0.428571 0.300000
vt 0.428571 0.700000
vt 0.428571 0.600000
vt 0.464286 1.000000
vt 0.428571 0.900000
vt 0.428571 0.200000
vt 0.428571 0.500000
vt 0.428571 0.800000
vt 0.428571 0.100000
vt 0.464286 0.000000
vt 0.357143 0.800000
vt 0.357143 0.700000
vt 0.392857 0.000000
vt 0.357143 0.100000
vt 0.357143 0.400000
vt 0.357143 0.300000
vt 0.357143 0.600000
vt 0.392857 1.000000
vt 0.357143 0.900000
vt 0.357143 0.200000
vt 0.357143 0.500000
vt 0.285714 0.200000
vt 0.285714 0.100000
vt 0.285714 0.500000
vt 0.285714 0.400000
vt 0.285714 0.800000
vt 0.285714 0.700000
vt 0.321429 0.000000
vt 0.285714 0.300000
vt 0.285714 0.600000
vt 0.321429 1.000000
vt 0.285714 0.900000
vt 0.214286 0.600000
vt 0.214286 0.500000
vt 0.214286 0.900000
vt 0.214286 0.800000
vt 0.214286 0.200000
vt 0.214286 0.100000
vt 0.214286 0.400000
vt 0.214286 0.700000
vt 0.250000 0.000000
vt 0.214286 0.300000
vt 0.250000 1.000000
vt 0.178571 1.000000
vt 0.142857 0.300000
vt 0.142857 0.200000
vt 0.142857 0.600000
vt 0.142857 0.500000
vt 0.142857 0.800000
vt 0.142857 0.400000
vt 0.142857 0.700000
vt 0.178571 0.000000
vt 0.071429 0.700000
vt 0.071429 0.600000
vt 0.071429 0.900000
vt 0.071429 0.300000
vt 0.071429 0.200000
vt 0.071429 0.500000
vt 0.071429 0.800000
vt 0.071429 0.100000
vt 0.071429 0.400000
vt 0.035714 0.000000
vt 0.000000 0.400000
vt 0.000000 0.300000
vt 0.000000 0.700000
vt 0.000000 0.600000
vt 0.035714 1.000000
vt 0.000000 0.200000
vt 0.000000 0.500000
vt 0.000000 0.800000
vt 1.000000 0.400000
vt 0.928571 0.500000
vt 0.928571 0.400000
vt 0.928571 0.800000
vt 0.928571 0.700000
vt 0.964286 0.000000
vt 1.000000 0.100000
vt 0.928571 0.300000
vt 1.000000 0.900000
vt 0.964286 1.000000
vt 0.928571 0.200000
vt 0.857143 0.900000
vt 0.857143 0.800000
vt 0.857143 0.200000
vt 0.857143 0.100000
vt 0.857143 0.500000
vt 0.857143 0.400000
vt 0.857143 0.700000
vt 0.857143 0.300000
vt 0.857143 0.600000
vt 0.785714 0.600000
vt 0.785714 0.500000
vt 0.785714 0.900000
vt 0.785714 0.800000
vt 0.785714 0.200000
vt 0.785714 0.100000
vt 0.785714 0.400000
vt 0.785714 0.700000
vt 0.821429 0.000000
vt 0.785714 0.300000
vt 0.821429 1.000000
vt 0.750000 1.000000
vt 0.750000 0.000000
vt 0.250000 0.490000
vt 0.250000 0.250000
vt 0.296822 0.485388
vt 0.341844 0.471731
vt 0.383337 0.449553
vt 0.419706 0.419706
vt 0.449553 0.383337
vt 0.471731 0.341844
vt 0.485388 0.296822
vt 0.490000 0.250000
vt 0.485388 0.203178
vt 0.471731 0.158156
vt 0.449553 0.116663
vt 0.419706 0.080294
vt 0.383337 0.050447
vt 0.341844 0.028269
vt 0.296822 0.014612
vt 0.250000 0.010000
vt 0.203178 0.014612
vt 0.158156 0.028269
vt 0.116663 0.050447
vt 0.080294 0.080294
vt 0.050447 0.116663
vt 0.028269 0.158156
vt 0.014612 0.203178
vt 0.010000 0.250000
vt 0.014612 0.296822
vt 0.028269 0.341844
vt 0.050447 0.383337
vt 0.080294 0.419706
vt 0.116663 0.449553
vt 0.158156 0.471731
vt 0.750000 0.490000
vt 0.796822 0.485388
vt 0.841844 0.471731
vt 0.883337 0.449553
vt 0.919706 0.419706
vt 0.949553 0.383337
vt 0.971731 0.341844
vt 0.985388 0.296822
vt 0.990000 0.250000
vt 0.985388 0.203178
vt 0.971731 0.158156
vt 0.949553 0.116663
vt 0.919706 0.080294
vt 0.883337 0.050447
vt 0.841844 0.028269
vt 0.796822 0.014612
vt 0.750000 0.010000
vt 0.703178 0.014612
vt 0.658156 0.028269
vt 0.616663 0.050447
vt 0.580294 0.080294
vt 0.550447 0.116663
vt 0.528269 0.158156
vt 0.514612 0.203178
vt 0.510000 0.250000
vt 0.514612 0.296822
vt 0.528269 0.341844
vt 0.550447 0.383337
vt 0.580294 0.419706
vt 0.616663 0.449553
vt 0.658156 0.471731
vt 0.703178 0.485388
vt 0.203178 0.485388
vt 0.375000 0.000000
vt 0.625000 0.000000
vt 0.625000 0.250000
vt 0.375000 0.250000
vt 0.625000 0.500000
vt 0.375000 0.500000
vt 0.625000 0.750000
vt 0.375000 0.750000
vt 0.625000 1.000000
vt 0.375000 1.000000
vt 0.125000 0.500000
vt 0.125000 0.750000
vt 0.875000 0.500000
vt 0.875000 0.750000
s 1
f 6/1/6 128/2/128 15/3/15 16/4/16
f 5/5/5 4/6/4 12/7/12 13/8/13
f 126/9/126 2/10/2 9/11/9 10/12/10
f 7/13/7 6/1/6 16/4/16 17/14/17
f 127/15/127 5/5/5 13/8/13 14/16/14
f 3/17/3 126/9/126 10/12/10 11/18/11
f 8/19/8 7/13/7 17/14/17
f 128/2/128 127/15/127 14/16/14 15/3/15
f 4/6/4 3/17/3 11/18/11 12/7/12
f 2/10/2 1/20/1 9/11/9
f 13/8/13 12/7/12 21/21/21 22/22/22
f 10/12/10 9/11/9 18/23/18 19/24/19
f 17/14/17 16/4/16 25/25/25 26/26/26
f 14/16/14 13/8/13 22/22/22 23/27/23
f 11/18/11 10/12/10 19/24/19 20/28/20
f 8/29/8 17/14/17 26/26/26
f 15/3/15 14/16/14 23/27/23 24/30/24
f 12/7/12 11/18/11 20/28/20 21/21/21
f 9/11/9 1/31/1 18/23/18
f 16/4/16 15/3/15 24/30/24 25/25/25
f 18/23/18 1/32/1 27/33/27
f 25/25/25 24/30/24 33/34/33 34/35/34
f 22/22/22 21/21/21 30/36/30 31/37/31
f 19/24/19 18/23/18 27/33/27 28/38/28
f 26/26/26 25/25/25 34/35/34 35/39/35
f 23/27/23 22/22/22 31/37/31 32/40/32
f 20/28/20 19/24/19 28/38/28 29/41/29
f 8/42/8 26/26/26 35/39/35
f 24/30/24 23/27/23 32/40/32 33/34/33
f 21/21/21 20/28/20 29/41/29 30/36/30
f 33/34/33 32/40/32 41/43/41 42/44/42
f 30/36/30 29/41/29 38/45/38 39/46/39
f 27/33/27 1/47/1 36/48/36
f 34/35/34 33/34/33 42/44/42 43/49/43
f 31/37/31 30/36/30 39/46/39 40/50/40
f 28/38/28 27/33/27 36/48/36 37/51/37
f 35/39/35 34/35/34 43/49/43 44/52/44
f 32/40/32 31/37/31 40/50/40 41/43/41
f 29/41/29 28/38/28 37/51/37 38/45/38
f 8/53/8 35/39/35 44/52/44
f 38/45/38 37/51/37 46/54/46 47/55/47
f 8/56/8 44/52/44 53/57/53
f 42/44/42 41/43/41 50/58/50 51/59/51
f 39/46/39 38/45/38 47/55/47 48/60/48
f 36/48/36 1/61/1 45/62/45
f 43/49/43 42/44/42 51/59/51 52/63/52
f 40/50/40 39/46/39 48/60/48 49/64/49
f 37/51/37 36/48/36 45/62/45 46/54/46
f 44/52/44 43/49/43 52/63/52 53/57/53
f 41/43/41 40/50/40 49/64/49 50/58/50
f 50/58/50 49/64/49 58/65/58 59/66/59
f 47/55/47 46/54/46 55/67/55 56/68/56
f 8/69/8 53/57/53 62/70/62
f 51/59/51 50/58/50 59/66/59 60/71/60
f 48/60/48 47/55/47 56/68/56 57/72/57
f 45/62/45 1/73/1 54/74/54
f 52/63/52 51/59/51 60/71/60 61/75/61
f 49/64/49 48/60/48 57/72/57 58/65/58
f 46/54/46 45/62/45 54/74/54 55/67/55
f 53/57/53 52/63/52 61/75/61 62/70/62
f 55/67/55 54/74/54 63/76/63 64/77/64
f 62/70/62 61/75/61 70/78/70 71/79/71
f 59/66/59 58/65/58 67/80/67 68/81/68
f 56/68/56 55/67/55 64/77/64 65/82/65
f 8/83/8 62/70/62 71/79/71
f 60/71/60 59/66/59 68/81/68 69/84/69
f 57/72/57 56/68/56 65/82/65 66/85/66
f 54/74/54 1/86/1 63/76/63
f 61/75/61 60/71/60 69/84/69 70/78/70
f 58/65/58 57/72/57 66/85/66 67/80/67
f 70/78/70 69/84/69 78/87/78 79/88/79
f 67/80/67 66/85/66 75/89/75 76/90/76
f 64/77/64 63/76/63 72/91/72 73/92/73
f 71/79/71 70/78/70 79/88/79 80/93/80
f 68/81/68 67/80/67 76/90/76 77/94/77
f 65/82/65 64/77/64 73/92/73 74/95/74
f 8/96/8 71/79/71 80/93/80
f 69/84/69 68/81/68 77/94/77 78/87/78
f 66/85/66 65/82/65 74/95/74 75/89/75
f 63/76/63 1/97/1 72/91/72
f 75/89/75 74/95/74 83/98/83 84/99/84
f 72/91/72 1/100/1 81/101/81
f 79/88/79 78/87/78 87/102/87 88/103/88
f 76/90/76 75/89/75 84/99/84 85/104/85
f 73/92/73 72/91/72 81/101/81 82/105/82
f 80/93/80 79/88/79 88/103/88 89/106/89
f 77/94/77 76/90/76 85/104/85 86/107/86
f 74/95/74 73/92/73 82/105/82 83/98/83
f 8/108/8 80/93/80 89/106/89
f 78/87/78 77/94/77 86/107/86 87/102/87
f 87/102/87 86/107/86 95/109/95 96/110/96
f 84/99/84 83/98/83 92/111/92 93/112/93
f 81/101/81 1/113/1 90/114/90
f 88/103/88 87/102/87 96/110/96 97/115/97
f 85/104/85 84/99/84 93/112/93 94/116/94
f 82/105/82 81/101/81 90/114/90 91/117/91
f 89/106/89 88/103/88 97/115/97 98/118/98
f 86/107/86 85/104/85 94/116/94 95/109/95
f 83/98/83 82/105/82 91/117/91 92/111/92
f 8/119/8 89/106/89 98/118/98
f 92/120/92 91/121/91 100/122/100 101/123/101
f 8/124/8 98/125/98 107/126/107
f 96/127/96 95/128/95 104/129/104 105/130/105
f 93/131/93 92/120/92 101/123/101 102/132/102
f 90/133/90 1/134/1 99/135/99
f 97/136/97 96/127/96 105/130/105 106/137/106
f 94/138/94 93/131/93 102/132/102 103/139/103
f 91/121/91 90/133/90 99/135/99 100/122/100
f 98/125/98 97/136/97 106/137/106 107/126/107
f 95/128/95 94/138/94 103/139/103 104/129/104
f 107/126/107 106/137/106 115/140/115 116/141/116
f 104/129/104 103/139/103 112/142/112 113/143/113
f 101/123/101 100/122/100 109/144/109 110/145/110
f 8/146/8 107/126/107 116/141/116
f 105/130/105 104/129/104 113/143/113 114/147/114
f 102/132/102 101/123/101 110/145/110 111/148/111
f 99/135/99 1/149/1 108/150/108
f 106/137/106 105/130/105 114/147/114 115/140/115
f 103/139/103 102/132/102 111/148/111 112/142/112
f 100/122/100 99/135/99 108/150/108 109/144/109
f 112/142/112 111/148/111 120/151/120 121/152/121
f 109/144/109 108/150/108 117/153/117 118/154/118
f 116/141/116 115/140/115 124/155/124 125/156/125
f 113/143/113 112/142/112 121/152/121 122/157/122
f 110/145/110 109/144/109 118/154/118 119/158/119
f 8/159/8 116/141/116 125/156/125
f 114/147/114 113/143/113 122/157/122 123/160/123
f 111/148/111 110/145/110 119/158/119 120/151/120
f 108/150/108 1/161/1 117/153/117
f 115/140/115 114/147/114 123/160/123 124/155/124
f 117/153/117 1/162/1 2/10/2
f 124/155/124 123/160/123 128/2/128 6/1/6
f 121/152/121 120/151/120 4/6/4 5/5/5
f 118/154/118 117/153/117 2/10/2 126/9/126
f 125/156/125 124/155/124 6/1/6 7/13/7
f 122/157/122 121/152/121 5/5/5 127/15/127
f 119/158/119 118/154/118 126/9/126 3/17/3
f 8/163/8 125/156/125 7/13/7
f 123/160/123 122/157/122 127/15/127 128/2/128
f 120/151/120 119/158/119 3/17/3 4/6/4
f 254/164/2 129/165/1 137/166/9
f 134/167/6 256/168/128 143/169/15 144/170/16
f 132/171/5 131/172/4 140/173/12 141/174/13
f 255/175/126 254/164/2 137/166/9 138/176/10
f 135/177/7 134/167/6 144/170/16 145/178/17
f 133/179/127 132/171/5 141/174/13 142/180/14
f 130/181/3 255/175/126 138/176/10 139/182/11
f 136/183/8 135/177/7 145/178/17
f 256/168/128 133/179/127 142/180/14 143/169/15
f 131/172/4 130/181/3 139/182/11 140/173/12
f 144/170/16 143/169/15 152/184/24 153/185/25
f 141/174/13 140/173/12 149/186/21 150/187/22
f 138/176/10 137/166/9 146/188/18 147/189/19
f 145/178/17 144/170/16 153/185/25 154/190/26
f 142/180/14 141/174/13 150/187/22 151/191/23
f 139/182/11 138/176/10 147/189/19 148/192/20
f 136/193/8 145/178/17 154/190/26
f 143/169/15 142/180/14 151/191/23 152/184/24
f 140/173/12 139/182/11 148/192/20 149/186/21
f 137/166/9 129/194/1 146/188/18
f 149/186/21 148/192/20 157/195/29 158/196/30
f 146/188/18 129/197/1 155/198/27
f 153/185/25 152/184/24 161/199/33 162/200/34
f 150/187/22 149/186/21 158/196/30 159/201/31
f 147/189/19 146/188/18 155/198/27 156/202/28
f 154/190/26 153/185/25 162/200/34 163/203/35
f 151/191/23 150/187/22 159/201/31 160/204/32
f 148/192/20 147/189/19 156/202/28 157/195/29
f 136/205/8 154/190/26 163/203/35
f 152/184/24 151/191/23 160/204/32 161/199/33
f 161/199/33 160/204/32 169/206/41 170/207/42
f 158/196/30 157/195/29 166/208/38 167/209/39
f 155/198/27 129/210/1 164/211/36
f 162/200/34 161/199/33 170/207/42 171/212/43
f 159/201/31 158/196/30 167/209/39 168/213/40
f 156/202/28 155/198/27 164/211/36 165/214/37
f 163/203/35 162/200/34 171/212/43 172/215/44
f 160/204/32 159/201/31 168/213/40 169/206/41
f 157/195/29 156/202/28 165/214/37 166/208/38
f 136/216/8 163/203/35 172/215/44
f 166/208/38 165/214/37 174/217/46 175/218/47
f 136/219/8 172/215/44 181/220/53
f 170/207/42 169/206/41 178/221/50 179/222/51
f 167/209/39 166/208/38 175/218/47 176/223/48
f 164/211/36 129/224/1 173/225/45
f 171/212/43 170/207/42 179/222/51 180/226/52
f 168/213/40 167/209/39 176/223/48 177/227/49
f 165/214/37 164/211/36 173/225/45 174/217/46
f 172/215/44 171/212/43 180/226/52 181/220/53
f 169/206/41 168/213/40 177/227/49 178/221/50
f 181/220/53 180/226/52 189/228/61 190/229/62
f 178/221/50 177/227/49 186/230/58 187/231/59
f 175/218/47 174/217/46 183/232/55 184/233/56
f 136/234/8 181/220/53 190/229/62
f 179/222/51 178/221/50 187/231/59 188/235/60
f 176/223/48 175/218/47 184/233/56 185/236/57
f 173/225/45 129/237/1 182/238/54
f 180/226/52 179/222/51 188/235/60 189/228/61
f 177/227/49 176/223/48 185/236/57 186/230/58
f 174/217/46 173/225/45 182/238/54 183/232/55
f 186/230/58 185/236/57 194/239/66 195/240/67
f 183/232/55 182/238/54 191/241/63 192/242/64
f 190/229/62 189/228/61 198/243/70 199/244/71
f 187/231/59 186/230/58 195/240/67 196/245/68
f 184/233/56 183/232/55 192/242/64 193/246/65
f 136/247/8 190/229/62 199/244/71
f 188/235/60 187/231/59 196/245/68 197/248/69
f 185/236/57 184/233/56 193/246/65 194/239/66
f 182/238/54 129/249/1 191/241/63
f 189/228/61 188/235/60 197/248/69 198/243/70
f 191/241/63 129/250/1 200/91/72
f 198/243/70 197/248/69 206/251/78 207/252/79
f 195/240/67 194/239/66 203/253/75 204/254/76
f 192/242/64 191/241/63 200/91/72 201/255/73
f 199/244/71 198/243/70 207/252/79 208/93/80
f 196/245/68 195/240/67 204/254/76 205/256/77
f 193/246/65 192/242/64 201/255/73 202/257/74
f 136/258/8 199/244/71 208/93/80
f 197/248/69 196/245/68 205/256/77 206/251/78
f 194/239/66 193/246/65 202/257/74 203/253/75
f 203/253/75 202/257/74 211/259/83 212/260/84
f 200/91/72 129/100/1 209/261/81
f 207/252/79 206/251/78 215/262/87 216/263/88
f 204/254/76 203/253/75 212/260/84 213/264/85
f 201/255/73 200/91/72 209/261/81 210/265/82
f 208/93/80 207/252/79 216/263/88 217/266/89
f 205/256/77 204/254/76 213/264/85 214/267/86
f 202/257/74 201/255/73 210/265/82 211/259/83
f 136/108/8 208/93/80 217/266/89
f 206/251/78 205/256/77 214/267/86 215/262/87
f 136/268/8 217/266/89 226/118/98
f 215/262/87 214/267/86 223/269/95 224/270/96
f 212/260/84 211/259/83 220/271/92 221/272/93
f 209/261/81 129/273/1 218/114/90
f 216/263/88 215/262/87 224/270/96 225/274/97
f 213/264/85 212/260/84 221/272/93 222/275/94
f 210/265/82 209/261/81 218/114/90 219/276/91
f 217/266/89 216/263/88 225/274/97 226/118/98
f 214/267/86 213/264/85 222/275/94 223/269/95
f 211/259/83 210/265/82 219/276/91 220/271/92
f 223/277/95 222/138/94 231/278/103 232/279/104
f 220/120/92 219/121/91 228/280/100 229/281/101
f 136/282/8 226/283/98 235/126/107
f 224/127/96 223/277/95 232/279/104 233/284/105
f 221/131/93 220/120/92 229/281/101 230/132/102
f 218/285/90 129/286/1 227/135/99
f 225/136/97 224/127/96 233/284/105 234/287/106
f 222/138/94 221/131/93 230/132/102 231/278/103
f 219/121/91 218/285/90 227/135/99 228/280/100
f 226/283/98 225/136/97 234/287/106 235/126/107
f 228/280/100 227/135/99 236/288/108 237/289/109
f 235/126/107 234/287/106 243/290/115 244/291/116
f 232/279/104 231/278/103 240/292/112 241/293/113
f 229/281/101 228/280/100 237/289/109 238/294/110
f 136/146/8 235/126/107 244/291/116
f 233/284/105 232/279/104 241/293/113 242/295/114
f 230/132/102 229/281/101 238/294/110 239/296/111
f 227/135/99 129/149/1 236/288/108
f 234/287/106 233/284/105 242/295/114 243/290/115
f 231/278/103 230/132/102 239/296/111 240/292/112
f 240/292/112 239/296/111 248/297/120 249/298/121
f 237/289/109 236/288/108 245/299/117 246/300/118
f 244/291/116 243/290/115 252/301/124 253/302/125
f 241/293/113 240/292/112 249/298/121 250/303/122
f 238/294/110 237/289/109 246/300/118 247/304/119
f 136/305/8 244/291/116 253/302/125
f 242/295/114 241/293/113 250/303/122 251/306/123
f 239/296/111 238/294/110 247/304/119 248/297/120
f 236/288/108 129/307/1 245/299/117
f 243/290/115 242/295/114 251/306/123 252/301/124
f 245/299/117 129/308/1 254/164/2
f 252/301/124 251/306/123 256/168/128 134/167/6
f 249/298/121 248/297/120 131/172/4 132/171/5
f 246/300/118 245/299/117 254/164/2 255/175/126
f 253/302/125 252/301/124 134/167/6 135/177/7
f 250/303/122 249/298/121 132/171/5 133/179/127
f 247/304/119 246/300/118 255/175/126 130/181/3
f 136/309/8 253/302/125 135/177/7
f 251/306/123 250/303/122 133/179/127 256/168/128
f 248/297/120 247/304/119 130/181/3 131/172/4
f 257/310/129 289/311/1 258/312/130
f 258/312/130 289/311/1 259/313/131
f 259/313/131 289/311/1 260/314/132
f 260/314/132 289/311/1 261/315/133
f 261/315/133 289/311/1 262/316/134
f 262/316/134 289/311/1 263/317/135
f 263/317/135 289/311/1 264/318/136
f 264/318/136 289/311/1 265/319/137
f 265/319/137 289/311/1 266/320/138
f 266/320/138 289/311/1 267/321/139
f 267/321/139 289/311/1 268/322/140
f 268/322/140 289/311/1 269/323/141
f 269/323/141 289/311/1 270/324/142
f 270/324/142 289/311/1 271/325/143
f 271/325/143 289/311/1 272/326/144
f 272/326/144 289/311/1 273/327/145
f 273/327/145 289/311/1 274/328/146
f 274/328/146 289/311/1 275/329/147
f 275/329/147 289/311/1 276/330/148
f 276/330/148 289/311/1 277/331/149
f 277/331/149 289/311/1 278/332/150
f 278/332/150 289/311/1 279/333/151
f 279/333/151 289/311/1 280/334/152
f 280/334/152 289/311/1 281/335/153
f 281/335/153 289/311/1 282/336/154
f 282/336/154 289/311/1 283/337/155
f 283/337/155 289/311/1 284/338/156
f 284/338/156 289/311/1 285/339/157
f 285/339/157 289/311/1 286/340/158
f 286/340/158 289/311/1 287/341/159
f 257/342/129 258/343/130 259/344/131 260/345/132 261/346/133 262/347/134 263/348/135 264/349/136 265/350/137 266/351/138 267/352/139 268/353/140 269/354/141 270/355/142 271/356/143 272/357/144 273/358/145 274/359/146 275/360/147 276/361/148 277/362/149 278/363/150 279/364/151 280/365/152 281/366/153 282/367/154 283/368/155 284/369/156 285/370/157 286/371/158 287/372/159 288/373/160
f 287/341/159 289/311/1 288/374/160
f 288/374/160 289/311/1 257/310/129
f 290/310/129 322/311/1 291/312/130
f 291/312/130 322/311/1 292/313/131
f 292/313/131 322/311/1 293/314/132
f 293/314/132 322/311/1 294/315/133
f 294/315/133 322/311/1 295/316/134
f 295/316/134 322/311/1 296/317/135
f 296/317/135 322/311/1 297/318/136
f 297/318/136 322/311/1 298/319/137
f 298/319/137 322/311/1 299/320/138
f 299/320/138 322/311/1 300/321/139
f 300/321/139 322/311/1 301/322/140
f 301/322/140 322/311/1 302/323/141
f 302/323/141 322/311/1 303/324/142
f 303/324/142 322/311/1 304/325/143
f 304/325/143 322/311/1 305/326/144
f 305/326/144 322/311/1 306/327/145
f 306/327/145 322/311/1 307/328/146
f 307/328/146 322/311/1 308/329/147
f 308/329/147 322/311/1 309/330/148
f 309/330/148 322/311/1 310/331/149
f 310/331/149 322/311/1 311/332/150
f 311/332/150 322/311/1 312/333/151
f 312/333/151 322/311/1 313/334/152
f 313/334/152 322/311/1 314/335/153
f 314/335/153 322/311/1 315/336/154
f 315/336/154 322/311/1 316/337/155
f 316/337/155 322/311/1 317/338/156
f 317/338/156 322/311/1 318/339/157
f 318/339/157 322/311/1 319/340/158
f 319/340/158 322/311/1 320/341/159
f 290/342/129 291/343/130 292/344/131 293/345/132 294/346/133 295/347/134 296/348/135 297/349/136 298/350/137 299/351/138 300/352/139 301/353/140 302/354/141 303/355/142 304/356/143 305/357/144 306/358/145 307/359/146 308/360/147 309/361/148 310/362/149 311/363/150 312/364/151 313/365/152 314/366/153 315/367/154 316/368/155 317/369/156 318/370/157 319/371/158 320/372/159 321/373/160
f 320/341/159 322/311/1 321/374/160
f 321/374/160 322/311/1 290/310/129
f 323/375/161 324/376/162 326/377/164 325/378/163
f 325/378/163 326/377/164 330/379/168 329/380/167
f 329/380/167 330/379/168 328/381/166 327/382/165
f 327/382/165 328/381/166 324/383/162 323/384/161
f 325/385/163 329/380/167 327/382/165 323/386/161
f 330/379/168 326/387/164 324/388/162 328/381/166
f 331/375/169 332/376/170 334/377/172 333/378/171
f 333/378/171 334/377/172 338/379/176 337/380/175
f 337/380/175 338/379/176 336/381/174 335/382/173
f 335/382/173 336/381/174 332/383/170 331/384/169
f 333/385/171 337/380/175 335/382/173 331/386/169
f 338/379/176 334/387/172 332/388/170 336/381/174
